{
.appVersion = "1056";
copyright = "Copyright (c) 2017 Kaputa Font Project Authors, Copyright 2012 The Encode Project Authors (impallari@gmail.com)";
customParameters = (
{
name = glyphOrder;
value = (
.notdef,
.null,
uni000D,
space,
exclam,
quotedbl,
numbersign,
dollar,
percent,
ampersand,
quotesingle,
parenleft,
parenright,
asterisk,
plus,
comma,
hyphen,
period,
slash,
zero,
one,
two,
three,
four,
five,
six,
seven,
eight,
nine,
colon,
semicolon,
less,
equal,
greater,
question,
at,
bracketleft,
backslash,
bracketright,
braceleft,
bar,
braceright,
asciitilde,
Euro,
ellipsis,
dagger,
daggerdbl,
perthousand,
quoteleft,
quoteright,
quotedblleft,
quotedblright,
bullet,
endash,
emdash,
uni00A0,
cent,
sterling,
currency,
yen,
brokenbar,
section,
copyright,
registered,
trademark,
guillemotleft,
guillemotright,
guilsinglleft,
guilsinglright,
logicalnot,
degree,
multiply,
divide,
uni22C6,
plusminus,
paragraph,
periodcentered,
uni200C,
uni200D,
uni25CC,
uni0D82,
uni0D83,
uni0D85,
uni0D86,
uni0D87,
uni0D88,
uni0D89,
uni0D8A,
uni0D8B,
uni0D8C,
uni0D8D,
uni0D8E,
uni0D8F,
uni0D90,
uni0D91,
uni0D92,
uni0D93,
uni0D94,
uni0D95,
uni0D96,
uni0D9A,
uni0D9B,
uni0D9C,
uni0D9D,
uni0D9E,
uni0D9F,
uni0DA0,
uni0DA1,
uni0DA2,
uni0DA3,
uni0DA4,
uni0DA5,
uni0DA6,
uni0DA7,
uni0DA8,
uni0DA9,
uni0DAA,
uni0DAB,
uni0DAC,
uni0DAD,
uni0DAE,
uni0DAF,
uni0DB0,
uni0DB1,
uni0DB3,
uni0DB4,
uni0DB5,
uni0DB6,
uni0DB7,
uni0DB8,
uni0DB9,
uni0DBA,
uni0DBB,
uni0DBD,
uni0DC0,
uni0DC1,
uni0DC2,
uni0DC3,
uni0DC4,
uni0DC5,
uni0DC6,
uni0DCA,
uni0DCF,
uni0DD0,
uni0DD1,
uni0DD2,
uni0DD3,
uni0DD4,
uni0DD6,
uni0DD8,
uni0DD9,
uni0DDA,
uni0DDB,
uni0DDC,
uni0DDD,
uni0DDE,
uni0DDF,
uni0DF2,
uni0DF3,
uni0DF4,
uni0D9A0DCA200D0DC2,
uni0D9B0DCA,
uni0D9B0DD2,
uni0D9B0DD3,
uni0D9C0DD4,
uni0D9C0DD6,
uni0D9E0DCA,
uni0D9E0DD2,
uni0D9E0DD3,
uni0D9F0DD4,
uni0D9F0DD6,
uni0DA00DCA,
uni0DA00DD2,
uni0DA00DD3,
uni0DA10DCA,
uni0DA20DCA,
uni0DA40DCF,
uni0DA40DD4,
uni0DA40DD6,
uni0DA4.rakar,
uni0DA50DCF,
uni0DA50DD4,
uni0DA50DD6,

glyphs = (
{
glyphname = .notdef;
lastChange = "2017-09-18 08:47:20 +0000";
layers = (
{
layerId = "902E803C-EB75-4CF8-B2E0-AD6A3AB6F03E";
paths = (
{
closed = 1;
nodes = (
"57 0 LINE",
"391 0 LINE",
"391 469 LINE",
"57 469 LINE"
);
},
{
closed = 1;
nodes = (
"85 28 LINE",
"85 441 LINE",
"363 441 LINE",
"363 28 LINE"
);
},
{
closed = 1;
nodes = (
"138 309 CURVE",
"171 303 LINE",
"175 347 OFFCURVE",
"196 365 OFFCURVE",
"225 365 CURVE SMOOTH",
"253 365 OFFCURVE",
"274 338 OFFCURVE",
"274 310 CURVE SMOOTH",
"274 301 OFFCURVE",
"273 294 OFFCURVE",
"269 287 CURVE SMOOTH",
"264 279 OFFCURVE",
"255 269 OFFCURVE",
"241 255 CURVE SMOOTH",
"212 224 OFFCURVE",
"203 216 OFFCURVE",
"203 164 CURVE",
"204 153 LINE",
"234 153 LINE",
"234 177 OFFCURVE",
"235 192 OFFCURVE",
"239 199 CURVE",
"241 208 OFFCURVE",
"251 220 OFFCURVE",
"267 236 CURVE SMOOTH",
"292 261 OFFCURVE",
"308 272 OFFCURVE",
"308 313 CURVE SMOOTH",
"308 361 OFFCURVE",
"274 398 OFFCURVE",
"226 398 CURVE SMOOTH",
"179 398 OFFCURVE",
"144 371 OFFCURVE"
);
},
{
closed = 1;
nodes = (
"200 76 LINE",
"237 76 LINE",
"237 120 LINE",
"200 120 LINE"
);
}
);
width = 430;
}
);
},
{
glyphname = exclam;
lastChange = "2017-09-19 12:52:05 +0000";
layers = (
{
layerId = "902E803C-EB75-4CF8-B2E0-AD6A3AB6F03E";
paths = (
{
closed = 1;
nodes = (
"85 151 LINE",
"115 151 LINE",
"124 406 LINE",
"124 667 LINE",
"76 667 LINE",
"76 406 LINE"
);
},
{
closed = 1;
nodes = (
"121 -5 OFFCURVE",
"136 9 OFFCURVE",
"136 31 CURVE SMOOTH",
"136 52 OFFCURVE",
"121 67 OFFCURVE",
"100 67 CURVE SMOOTH",
"78 67 OFFCURVE",
"63 52 OFFCURVE",
"63 31 CURVE SMOOTH",
"63 9 OFFCURVE",
"78 -5 OFFCURVE",
"100 -5 CURVE SMOOTH"
);
}
);
width = 201;
}
);
leftKerningGroup = b;
note = "\012    exclam\012  ";
rightKerningGroup = d;
unicode = 0021;
},
{
glyphname = quotedbl;
lastChange = "2017-09-19 12:52:05 +0000";
layers = (
{
layerId = "902E803C-EB75-4CF8-B2E0-AD6A3AB6F03E";
paths = (
{
closed = 1;
nodes = (
"71 425 LINE",
"98 425 LINE",
"110 729 LINE",
"60 729 LINE"
);
},
{
closed = 1;
nodes = (
"200 425 LINE",
"227 425 LINE",
"238 729 LINE",
"188 729 LINE"
);
}
);
width = 299;
}
);
leftKerningGroup = quotedbl;
note = "\012    quotedbl\012  ";
rightKerningGroup = quotedbl;
unicode = 0022;
},
{
glyphname = numbersign;
lastChange = "2017-09-19 12:52:05 +0000";
layers = (
{
layerId = "902E803C-EB75-4CF8-B2E0-AD6A3AB6F03E";
paths = (
{
closed = 1;
nodes = (
"267 0 LINE",
"307 0 LINE",
"370 667 LINE",
"330 667 LINE"
);
},
{
closed = 1;
nodes = (
"43 217 LINE",
"440 217 LINE",
"440 257 LINE",
"43 257 LINE"
);
},
{
closed = 1;
nodes = (
"113 0 LINE",
"153 0 LINE",
"215 667 LINE",
"175 667 LINE"
);
},
{
closed = 1;
nodes = (
"43 410 LINE",
"440 410 LINE",
"440 450 LINE",
"43 450 LINE"
);
}
);
width = 484;
}
);
note = "\012    numbersign\012  ";
unicode = 0023;
},
{
glyphname = dollar;
lastChange = "2017-09-19 12:52:05 +0000";
layers = (
{
layerId = "902E803C-EB75-4CF8-B2E0-AD6A3AB6F03E";
paths = (
{
closed = 1;
nodes = (
"321 -8 OFFCURVE",
"399 57 OFFCURVE",
"399 174 CURVE SMOOTH",
"399 268 OFFCURVE",
"345 323 OFFCURVE",
"236 355 CURVE SMOOTH",
"208 363 LINE SMOOTH",
"115 392 OFFCURVE",
"79 427 OFFCURVE",
"79 502 CURVE SMOOTH",
"79 587 OFFCURVE",
"133 634 OFFCURVE",
"245 634 CURVE SMOOTH",
"288 634 OFFCURVE",
"330 628 OFFCURVE",
"372 615 CURVE",
"372 657 LINE",
"336 669 OFFCURVE",
"288 675 OFFCURVE",
"246 675 CURVE SMOOTH",
"105 675 OFFCURVE",
"32 609 OFFCURVE",
"32 499 CURVE SMOOTH",
"32 406 OFFCURVE",
"86 352 OFFCURVE",
"188 321 CURVE SMOOTH",
"216 313 LINE SMOOTH",
"313 284 OFFCURVE",
"352 248 OFFCURVE",
"352 171 CURVE SMOOTH",
"352 80 OFFCURVE",
"296 33 OFFCURVE",
"186 33 CURVE SMOOTH",
"141 33 OFFCURVE",
"92 41 OFFCURVE",
"41 58 CURVE",
"41 16 LINE",
"87 0 OFFCURVE",
"140 -8 OFFCURVE",
"184 -8 CURVE SMOOTH"
);
},
{
closed = 1;
nodes = (
"195 -108 LINE",
"237 -108 LINE",
"237 10 LINE",
"195 4 LINE"
);
},
{
closed = 1;
nodes = (
"195 665 LINE",
"237 665 LINE",
"237 775 LINE",
"195 775 LINE"
);
}
);
width = 433;
}
);
leftKerningGroup = S;
note = "\012    dollar\012  ";
rightKerningGroup = S;
unicode = 0024;
},
{
glyphname = percent;
lastChange = "2017-09-19 12:52:05 +0000";
layers = (
{
layerId = "902E803C-EB75-4CF8-B2E0-AD6A3AB6F03E";
paths = (
{
closed = 1;
nodes = (
"224 0 LINE",
"266 0 LINE",
"532 667 LINE",
"489 667 LINE"
);
},
{
closed = 1;
nodes = (
"264 260 OFFCURVE",
"321 315 OFFCURVE",
"321 468 CURVE SMOOTH",
"321 620 OFFCURVE",
"265 675 OFFCURVE",
"183 675 CURVE SMOOTH",
"101 675 OFFCURVE",
"46 620 OFFCURVE",
"46 468 CURVE SMOOTH",
"46 315 OFFCURVE",
"102 260 OFFCURVE",
"183 260 CURVE SMOOTH"
);
},
{
closed = 1;
nodes = (
"125 296 OFFCURVE",
"87 338 OFFCURVE",
"87 468 CURVE SMOOTH",
"87 598 OFFCURVE",
"125 639 OFFCURVE",
"183 639 CURVE SMOOTH",
"241 639 OFFCURVE",
"280 598 OFFCURVE",
"280 467 CURVE SMOOTH",
"280 337 OFFCURVE",
"241 296 OFFCURVE",
"183 296 CURVE SMOOTH"
);
},
{
closed = 1;
nodes = (
"654 -8 OFFCURVE",
"710 47 OFFCURVE",
"710 200 CURVE SMOOTH",
"710 352 OFFCURVE",
"654 407 OFFCURVE",
"573 407 CURVE SMOOTH",
"491 407 OFFCURVE",
"435 352 OFFCURVE",
"435 200 CURVE SMOOTH",
"435 47 OFFCURVE",
"491 -8 OFFCURVE",
"573 -8 CURVE SMOOTH"
);
},
{
closed = 1;
nodes = (
"515 28 OFFCURVE",
"476 69 OFFCURVE",
"476 201 CURVE SMOOTH",
"476 330 OFFCURVE",
"515 371 OFFCURVE",
"573 371 CURVE SMOOTH",
"630 371 OFFCURVE",
"669 330 OFFCURVE",
"669 199 CURVE SMOOTH",
"669 69 OFFCURVE",
"630 28 OFFCURVE",
"573 28 CURVE SMOOTH"
);
}
);
width = 756;
}
);
note = "\012    percent\012  ";
unicode = 0025;
},
{
glyphname = ampersand;
lastChange = "2017-09-19 12:52:05 +0000";
layers = (
{
layerId = "902E803C-EB75-4CF8-B2E0-AD6A3AB6F03E";
paths = (
{
closed = 1;
nodes = (
"589 -9 LINE",
"615 25 LINE",
"292 301 LINE SMOOTH",
"201 381 OFFCURVE",
"178 426 OFFCURVE",
"178 491 CURVE SMOOTH",
"178 585 OFFCURVE",
"229 634 OFFCURVE",
"343 634 CURVE SMOOTH",
"374 634 OFFCURVE",
"404 631 OFFCURVE",
"438 622 CURVE",
"438 664 LINE",
"409 671 OFFCURVE",
"377 675 OFFCURVE",
"342 675 CURVE SMOOTH",
"202 675 OFFCURVE",
"131 609 OFFCURVE",
"131 491 CURVE SMOOTH",
"131 412 OFFCURVE",
"163 356 OFFCURVE",
"266 267 CURVE SMOOTH"
);
},
{
closed = 1;
nodes = (
"427 -8 OFFCURVE",
"515 71 OFFCURVE",
"515 226 CURVE SMOOTH",
"515 265 OFFCURVE",
"510 309 OFFCURVE",
"498 349 CURVE",
"456 349 LINE",
"468 309 OFFCURVE",
"474 264 OFFCURVE",
"474 225 CURVE SMOOTH",
"474 89 OFFCURVE",
"403 32 OFFCURVE",
"286 32 CURVE SMOOTH",
"170 32 OFFCURVE",
"110 92 OFFCURVE",
"110 186 CURVE SMOOTH",
"110 255 OFFCURVE",
"142 306 OFFCURVE",
"204 338 CURVE",
"180 368 LINE",
"106 331 OFFCURVE",
"64 266 OFFCURVE",
"64 182 CURVE SMOOTH",
"64 68 OFFCURVE",
"142 -8 OFFCURVE",
"283 -8 CURVE SMOOTH"
);
}
);
width = 614;
}
);
note = "\012    ampersand\012  ";
unicode = 0026;
},
{
glyphname = quotesingle;
lastChange = "2017-09-19 12:52:05 +0000";
layers = (
{
layerId = "902E803C-EB75-4CF8-B2E0-AD6A3AB6F03E";
paths = (
{
closed = 1;
nodes = (
"71 425 LINE",
"98 425 LINE",
"110 729 LINE",
"60 729 LINE"
);
}
);
width = 171;
}
);
leftKerningGroup = quotedbl;
note = "\012    quotesingle\012  ";
rightKerningGroup = quotedbl;
unicode = 0027;
},
{
glyphname = parenleft;
lastChange = "2017-09-19 12:52:05 +0000";
layers = (
{
layerId = "902E803C-EB75-4CF8-B2E0-AD6A3AB6F03E";
paths = (
{
closed = 1;
nodes = (
"247 -198 LINE",
"147 -59 OFFCURVE",
"103 97 OFFCURVE",
"103 265 CURVE SMOOTH",
"103 433 OFFCURVE",
"147 589 OFFCURVE",
"247 729 CURVE",
"200 729 LINE",
"100 593 OFFCURVE",
"56 436 OFFCURVE",
"56 265 CURVE SMOOTH",
"56 94 OFFCURVE",
"100 -63 OFFCURVE",
"200 -198 CURVE"
);
}
);
width = 269;
}
);
leftKerningGroup = C;
note = "\012    parenleft\012  ";
rightKerningGroup = braceleft;
unicode = 0028;
},
{
glyphname = parenright;
lastChange = "2017-09-19 12:52:05 +0000";
layers = (
{
layerId = "902E803C-EB75-4CF8-B2E0-AD6A3AB6F03E";
paths = (
{
closed = 1;
nodes = (
"70 -198 LINE",
"170 -63 OFFCURVE",
"214 94 OFFCURVE",
"214 265 CURVE SMOOTH",
"214 436 OFFCURVE",
"170 593 OFFCURVE",
"70 729 CURVE",
"22 729 LINE",
"123 589 OFFCURVE",
"167 433 OFFCURVE",
"167 265 CURVE SMOOTH",
"167 97 OFFCURVE",
"123 -59 OFFCURVE",
"22 -198 CURVE"
);
}
);
width = 269;
}
);
leftKerningGroup = braceright;
note = "\012    parenright\012  ";
rightKerningGroup = D;
unicode = 0029;
},
{
glyphname = asterisk;
lastChange = "2017-09-19 12:52:05 +0000";
layers = (
{
layerId = "902E803C-EB75-4CF8-B2E0-AD6A3AB6F03E";
paths = (
{
closed = 1;
nodes = (
"212 541 LINE",
"301 562 LINE",
"377 587 LINE",
"365 622 LINE",
"290 597 LINE",
"206 561 LINE",
"214 653 LINE",
"214 729 LINE",
"176 729 LINE",
"176 653 LINE",
"185 561 LINE",
"100 597 LINE",
"25 622 LINE",
"14 587 LINE",
"89 562 LINE",
"178 541 LINE",
"118 472 LINE",
"72 410 LINE",
"103 388 LINE",
"149 450 LINE",
"195 529 LINE",
"242 450 LINE",
"288 388 LINE",
"318 410 LINE",
"272 472 LINE"
);
}
);
width = 391;
}
);
leftKerningGroup = asterisk;
note = "\012    asterisk\012  ";
rightKerningGroup = asterisk;
unicode = 002A;
},
{
glyphname = plus;
lastChange = "2017-09-19 12:52:05 +0000";
layers = (
{
layerId = "902E803C-EB75-4CF8-B2E0-AD6A3AB6F03E";
paths = (
{
closed = 1;
nodes = (
"214 167 LINE",
"256 167 LINE",
"256 323 LINE",
"403 323 LINE",
"403 362 LINE",
"256 362 LINE",
"256 518 LINE",
"214 518 LINE",
"214 362 LINE",
"67 362 LINE",
"67 323 LINE",
"214 323 LINE"
);
}
);
width = 472;
}
);
leftKerningGroup = uni2219;
note = "\012    plus\012  ";
rightKerningGroup = uni2219;
unicode = 002B;
},
{
glyphname = comma;
lastChange = "2017-09-19 12:52:05 +0000";
layers = (
{
layerId = "902E803C-EB75-4CF8-B2E0-AD6A3AB6F03E";
paths = (
{
closed = 1;
nodes = (
"91 -138 LINE",
"111 -93 OFFCURVE",
"127 -39 OFFCURVE",
"127 19 CURVE SMOOTH",
"127 53 OFFCURVE",
"112 68 OFFCURVE",
"90 68 CURVE SMOOTH",
"69 68 OFFCURVE",
"54 53 OFFCURVE",
"54 32 CURVE SMOOTH",
"54 9 OFFCURVE",
"69 -5 OFFCURVE",
"91 -5 CURVE SMOOTH",
"98 -5 LINE",
"92 7 LINE",
"92 -40 OFFCURVE",
"81 -85 OFFCURVE",
"63 -138 CURVE"
);
}
);
width = 183;
}
);
leftKerningGroup = comma;
note = "\012    comma\012  ";
rightKerningGroup = comma;
unicode = 002C;
},
{
glyphname = hyphen;
lastChange = "2017-09-19 12:52:05 +0000";
layers = (
{
layerId = "902E803C-EB75-4CF8-B2E0-AD6A3AB6F03E";
paths = (
{
closed = 1;
nodes = (
"67 233 LINE",
"270 233 LINE",
"270 273 LINE",
"67 273 LINE"
);
}
);
width = 338;
}
);
leftKerningGroup = periodcentered;
note = "\012    hyphen\012  ";
rightKerningGroup = periodcentered;
unicode = 002D;
},
{
glyphname = period;
lastChange = "2017-09-19 12:52:05 +0000";
layers = (
{
layerId = "902E803C-EB75-4CF8-B2E0-AD6A3AB6F03E";
paths = (
{
closed = 1;
nodes = (
"112 -5 OFFCURVE",
"127 9 OFFCURVE",
"127 31 CURVE SMOOTH",
"127 53 OFFCURVE",
"112 68 OFFCURVE",
"91 68 CURVE SMOOTH",
"69 68 OFFCURVE",
"54 53 OFFCURVE",
"54 31 CURVE SMOOTH",
"54 9 OFFCURVE",
"69 -5 OFFCURVE",
"91 -5 CURVE SMOOTH"
);
}
);
width = 183;
}
);
leftKerningGroup = comma;
note = "\012    period\012  ";
rightKerningGroup = comma;
unicode = 002E;
},
{
glyphname = slash;
lastChange = "2017-09-19 12:52:05 +0000";
layers = (
{
layerId = "902E803C-EB75-4CF8-B2E0-AD6A3AB6F03E";
paths = (
{
closed = 1;
nodes = (
"0 -108 LINE",
"45 -108 LINE",
"226 729 LINE",
"181 729 LINE"
);
}
);
width = 225;
}
);
leftKerningGroup = slash;
note = "\012    slash\012  ";
rightKerningGroup = slash;
unicode = 002F;
},
{
glyphname = zero;
lastChange = "2017-09-19 12:52:05 +0000";
layers = (
{
layerId = "902E803C-EB75-4CF8-B2E0-AD6A3AB6F03E";
paths = (
{
closed = 1;
nodes = (
"381 -8 OFFCURVE",
"461 81 OFFCURVE",
"461 334 CURVE SMOOTH",
"461 586 OFFCURVE",
"382 675 OFFCURVE",
"256 675 CURVE SMOOTH",
"130 675 OFFCURVE",
"51 586 OFFCURVE",
"51 334 CURVE SMOOTH",
"51 81 OFFCURVE",
"131 -8 OFFCURVE",
"256 -8 CURVE SMOOTH"
);
},
{
closed = 1;
nodes = (
"160 33 OFFCURVE",
"98 102 OFFCURVE",
"98 335 CURVE SMOOTH",
"98 565 OFFCURVE",
"160 634 OFFCURVE",
"256 634 CURVE SMOOTH",
"352 634 OFFCURVE",
"414 565 OFFCURVE",
"414 332 CURVE SMOOTH",
"414 102 OFFCURVE",
"352 33 OFFCURVE",
"256 33 CURVE SMOOTH"
);
}
);
width = 513;
}
);
leftKerningGroup = C;
note = "\012    zero\012  ";
rightKerningGroup = D;
unicode = 0030;
},
{
glyphname = one;
lastChange = "2017-09-19 12:52:05 +0000";
layers = (
{
layerId = "902E803C-EB75-4CF8-B2E0-AD6A3AB6F03E";
paths = (
{
closed = 1;
nodes = (
"158 0 LINE",
"204 0 LINE",
"204 669 LINE",
"176 669 LINE",
"9 545 LINE",
"9 498 LINE",
"176 622 LINE",
"158 623 LINE"
);
}
);
width = 286;
}
);
leftKerningGroup = one;
note = "\012    one\012  ";
rightKerningGroup = H;
unicode = 0031;
},
{
glyphname = two;
lastChange = "2017-09-19 12:52:05 +0000";
layers = (
{
layerId = "902E803C-EB75-4CF8-B2E0-AD6A3AB6F03E";
paths = (
{
closed = 1;
nodes = (
"26 0 LINE",
"372 0 LINE",
"372 41 LINE",
"69 41 LINE",
"77 27 LINE",
"244 273 LINE SMOOTH",
"314 375 OFFCURVE",
"338 436 OFFCURVE",
"339 506 CURVE SMOOTH",
"339 625 OFFCURVE",
"269 675 OFFCURVE",
"153 675 CURVE SMOOTH",
"105 675 OFFCURVE",
"53 666 OFFCURVE",
"18 651 CURVE",
"18 609 LINE",
"60 626 OFFCURVE",
"102 634 OFFCURVE",
"150 634 CURVE SMOOTH",
"243 634 OFFCURVE",
"293 599 OFFCURVE",
"293 504 CURVE SMOOTH",
"293 444 OFFCURVE",
"269 385 OFFCURVE",
"207 294 CURVE SMOOTH",
"26 26 LINE"
);
}
);
width = 402;
}
);
leftKerningGroup = two;
note = "\012    two\012  ";
rightKerningGroup = two;
unicode = 0032;
},
{
glyphname = three;
lastChange = "2017-09-19 12:52:05 +0000";
layers = (
{
layerId = "902E803C-EB75-4CF8-B2E0-AD6A3AB6F03E";
paths = (
{
closed = 1;
nodes = (
"307 -8 OFFCURVE",
"385 59 OFFCURVE",
"385 176 CURVE SMOOTH",
"385 274 OFFCURVE",
"326 336 OFFCURVE",
"215 352 CURVE",
"215 341 LINE",
"309 361 OFFCURVE",
"363 424 OFFCURVE",
"363 511 CURVE SMOOTH",
"363 616 OFFCURVE",
"297 675 OFFCURVE",
"173 675 CURVE SMOOTH",
"125 675 OFFCURVE",
"74 667 OFFCURVE",
"37 651 CURVE",
"37 610 LINE",
"80 627 OFFCURVE",
"124 635 OFFCURVE",
"171 635 CURVE SMOOTH",
"268 635 OFFCURVE",
"318 592 OFFCURVE",
"318 509 CURVE SMOOTH",
"318 418 OFFCURVE",
"253 363 OFFCURVE",
"129 363 CURVE SMOOTH",
"103 363 LINE",
"103 322 LINE",
"165 322 LINE SMOOTH",
"285 322 OFFCURVE",
"339 267 OFFCURVE",
"339 177 CURVE SMOOTH",
"339 81 OFFCURVE",
"278 32 OFFCURVE",
"169 32 CURVE SMOOTH",
"123 32 OFFCURVE",
"71 41 OFFCURVE",
"23 58 CURVE",
"23 17 LINE",
"68 0 OFFCURVE",
"118 -8 OFFCURVE",
"170 -8 CURVE SMOOTH"
);
}
);
width = 420;
}
);
leftKerningGroup = three;
note = "\012    three\012  ";
rightKerningGroup = B;
unicode = 0033;
},
{
glyphname = four;
lastChange = "2017-09-19 12:52:05 +0000";
layers = (
{
layerId = "902E803C-EB75-4CF8-B2E0-AD6A3AB6F03E";
paths = (
{
closed = 1;
nodes = (
"23 169 LINE",
"467 169 LINE",
"467 208 LINE",
"61 208 LINE",
"69 194 LINE",
"320 667 LINE",
"273 667 LINE",
"23 195 LINE"
);
},
{
closed = 1;
nodes = (
"331 0 LINE",
"375 0 LINE",
"375 442 LINE",
"339 442 LINE",
"331 208 LINE"
);
}
);
width = 488;
}
);
leftKerningGroup = four;
note = "\012    four\012  ";
rightKerningGroup = four;
unicode = 0034;
},
{
glyphname = five;
lastChange = "2017-09-19 12:52:05 +0000";
layers = (
{
layerId = "902E803C-EB75-4CF8-B2E0-AD6A3AB6F03E";
paths = (
{
closed = 1;
nodes = (
"321 -8 OFFCURVE",
"396 59 OFFCURVE",
"396 183 CURVE SMOOTH",
"396 305 OFFCURVE",
"319 366 OFFCURVE",
"151 376 CURVE SMOOTH",
"73 381 LINE",
"103 356 LINE",
"123 646 LINE",
"101 627 LINE",
"368 627 LINE",
"368 667 LINE",
"80 667 LINE",
"59 341 LINE",
"137 336 LINE SMOOTH",
"291 327 OFFCURVE",
"351 281 OFFCURVE",
"351 182 CURVE SMOOTH",
"351 82 OFFCURVE",
"293 32 OFFCURVE",
"181 32 CURVE SMOOTH",
"133 32 OFFCURVE",
"82 41 OFFCURVE",
"34 58 CURVE",
"34 17 LINE",
"78 0 OFFCURVE",
"129 -8 OFFCURVE",
"182 -8 CURVE SMOOTH"
);
}
);
width = 423;
}
);
leftKerningGroup = five;
note = "\012    five\012  ";
rightKerningGroup = five;
unicode = 0035;
},
{
glyphname = six;
lastChange = "2017-09-19 12:52:05 +0000";
layers = (
{
layerId = "902E803C-EB75-4CF8-B2E0-AD6A3AB6F03E";
paths = (
{
closed = 1;
nodes = (
"367 -8 OFFCURVE",
"445 55 OFFCURVE",
"445 186 CURVE SMOOTH",
"445 316 OFFCURVE",
"364 377 OFFCURVE",
"255 377 CURVE SMOOTH",
"188 377 OFFCURVE",
"124 351 OFFCURVE",
"90 308 CURVE",
"90 260 LINE",
"126 316 OFFCURVE",
"193 337 OFFCURVE",
"250 337 CURVE SMOOTH",
"338 337 OFFCURVE",
"401 293 OFFCURVE",
"401 183 CURVE SMOOTH",
"401 76 OFFCURVE",
"340 32 OFFCURVE",
"266 32 CURVE SMOOTH",
"170 32 OFFCURVE",
"103 93 OFFCURVE",
"103 309 CURVE SMOOTH",
"103 321 LINE SMOOTH",
"103 550 OFFCURVE",
"175 635 OFFCURVE",
"310 635 CURVE SMOOTH",
"347 635 OFFCURVE",
"385 629 OFFCURVE",
"417 615 CURVE",
"417 657 LINE",
"385 670 OFFCURVE",
"347 675 OFFCURVE",
"310 675 CURVE SMOOTH",
"147 675 OFFCURVE",
"57 571 OFFCURVE",
"57 312 CURVE SMOOTH",
"57 70 OFFCURVE",
"144 -8 OFFCURVE",
"265 -8 CURVE SMOOTH"
);
}
);
width = 472;
}
);
leftKerningGroup = C;
note = "\012    six\012  ";
rightKerningGroup = six;
unicode = 0036;
},
{
glyphname = seven;
lastChange = "2017-09-19 12:52:05 +0000";
layers = (
{
layerId = "902E803C-EB75-4CF8-B2E0-AD6A3AB6F03E";
paths = (
{
closed = 1;
nodes = (
"74 0 LINE",
"121 0 LINE",
"359 641 LINE",
"359 667 LINE",
"5 667 LINE",
"5 626 LINE",
"325 626 LINE",
"314 642 LINE"
);
}
);
width = 385;
}
);
leftKerningGroup = seven;
note = "\012    seven\012  ";
rightKerningGroup = V;
unicode = 0037;
},
{
glyphname = eight;
lastChange = "2017-09-19 12:52:05 +0000";
layers = (
{
layerId = "902E803C-EB75-4CF8-B2E0-AD6A3AB6F03E";
paths = (
{
closed = 1;
nodes = (
"391 -8 OFFCURVE",
"468 61 OFFCURVE",
"468 166 CURVE SMOOTH",
"468 262 OFFCURVE",
"416 315 OFFCURVE",
"272 354 CURVE SMOOTH",
"147 389 OFFCURVE",
"110 431 OFFCURVE",
"110 509 CURVE SMOOTH",
"110 587 OFFCURVE",
"161 636 OFFCURVE",
"255 636 CURVE SMOOTH",
"348 636 OFFCURVE",
"404 591 OFFCURVE",
"404 506 CURVE SMOOTH",
"404 429 OFFCURVE",
"367 385 OFFCURVE",
"283 347 CURVE",
"321 330 LINE",
"403 366 OFFCURVE",
"447 426 OFFCURVE",
"447 508 CURVE SMOOTH",
"447 611 OFFCURVE",
"374 675 OFFCURVE",
"255 675 CURVE SMOOTH",
"137 675 OFFCURVE",
"64 610 OFFCURVE",
"64 507 CURVE SMOOTH",
"64 410 OFFCURVE",
"118 353 OFFCURVE",
"260 315 CURVE SMOOTH",
"382 281 OFFCURVE",
"422 244 OFFCURVE",
"422 163 CURVE SMOOTH",
"422 79 OFFCURVE",
"363 31 OFFCURVE",
"261 31 CURVE SMOOTH",
"147 31 OFFCURVE",
"89 80 OFFCURVE",
"89 169 CURVE SMOOTH",
"89 248 OFFCURVE",
"137 308 OFFCURVE",
"221 333 CURVE",
"182 351 LINE",
"96 321 OFFCURVE",
"43 253 OFFCURVE",
"43 166 CURVE SMOOTH",
"43 56 OFFCURVE",
"121 -8 OFFCURVE",
"261 -8 CURVE SMOOTH"
);
}
);
width = 513;
}
);
leftKerningGroup = eight;
note = "\012    eight\012  ";
rightKerningGroup = B;
unicode = 0038;
},
{
glyphname = nine;
lastChange = "2017-09-19 12:52:05 +0000";
layers = (
{
layerId = "902E803C-EB75-4CF8-B2E0-AD6A3AB6F03E";
paths = (
{
closed = 1;
nodes = (
"104 675 OFFCURVE",
"25 612 OFFCURVE",
"25 481 CURVE SMOOTH",
"25 352 OFFCURVE",
"106 290 OFFCURVE",
"215 290 CURVE SMOOTH",
"282 290 OFFCURVE",
"346 316 OFFCURVE",
"380 359 CURVE",
"380 407 LINE",
"344 352 OFFCURVE",
"277 330 OFFCURVE",
"220 330 CURVE SMOOTH",
"133 330 OFFCURVE",
"69 375 OFFCURVE",
"69 484 CURVE SMOOTH",
"69 591 OFFCURVE",
"130 636 OFFCURVE",
"205 636 CURVE SMOOTH",
"300 636 OFFCURVE",
"367 574 OFFCURVE",
"367 358 CURVE SMOOTH",
"367 346 LINE SMOOTH",
"367 118 OFFCURVE",
"295 32 OFFCURVE",
"160 32 CURVE SMOOTH",
"124 32 OFFCURVE",
"85 38 OFFCURVE",
"54 52 CURVE",
"54 10 LINE",
"85 -3 OFFCURVE",
"124 -8 OFFCURVE",
"160 -8 CURVE SMOOTH",
"323 -8 OFFCURVE",
"413 96 OFFCURVE",
"413 355 CURVE SMOOTH",
"413 597 OFFCURVE",
"326 675 OFFCURVE",
"206 675 CURVE SMOOTH"
);
}
);
width = 472;
}
);
leftKerningGroup = nine;
note = "\012    nine\012  ";
rightKerningGroup = D;
unicode = 0039;
},
{
glyphname = colon;
lastChange = "2017-09-19 12:52:05 +0000";
layers = (
{
layerId = "902E803C-EB75-4CF8-B2E0-AD6A3AB6F03E";
paths = (
{
closed = 1;
nodes = (
"112 -5 OFFCURVE",
"127 9 OFFCURVE",
"127 31 CURVE SMOOTH",
"127 53 OFFCURVE",
"112 68 OFFCURVE",
"91 68 CURVE SMOOTH",
"69 68 OFFCURVE",
"54 53 OFFCURVE",
"54 31 CURVE SMOOTH",
"54 9 OFFCURVE",
"69 -5 OFFCURVE",
"91 -5 CURVE SMOOTH"
);
},
{
closed = 1;
nodes = (
"112 420 OFFCURVE",
"127 434 OFFCURVE",
"127 456 CURVE SMOOTH",
"127 478 OFFCURVE",
"112 493 OFFCURVE",
"91 493 CURVE SMOOTH",
"69 493 OFFCURVE",
"54 478 OFFCURVE",
"54 456 CURVE SMOOTH",
"54 434 OFFCURVE",
"69 420 OFFCURVE",
"91 420 CURVE SMOOTH"
);
}
);
width = 183;
}
);
leftKerningGroup = colon;
note = "\012    colon\012  ";
rightKerningGroup = colon;
unicode = 003A;
},
{
glyphname = semicolon;
lastChange = "2017-09-19 12:52:05 +0000";
layers = (
{
layerId = "902E803C-EB75-4CF8-B2E0-AD6A3AB6F03E";
paths = (
{
closed = 1;
nodes = (
"91 -138 LINE",
"111 -93 OFFCURVE",
"127 -39 OFFCURVE",
"127 19 CURVE SMOOTH",
"127 53 OFFCURVE",
"112 68 OFFCURVE",
"90 68 CURVE SMOOTH",
"69 68 OFFCURVE",
"54 53 OFFCURVE",
"54 32 CURVE SMOOTH",
"54 9 OFFCURVE",
"69 -5 OFFCURVE",
"91 -5 CURVE SMOOTH",
"98 -5 LINE",
"92 7 LINE",
"92 -40 OFFCURVE",
"81 -85 OFFCURVE",
"63 -138 CURVE"
);
},
{
closed = 1;
nodes = (
"112 420 OFFCURVE",
"127 434 OFFCURVE",
"127 456 CURVE SMOOTH",
"127 478 OFFCURVE",
"112 493 OFFCURVE",
"91 493 CURVE SMOOTH",
"69 493 OFFCURVE",
"54 478 OFFCURVE",
"54 456 CURVE SMOOTH",
"54 434 OFFCURVE",
"69 420 OFFCURVE",
"91 420 CURVE SMOOTH"
);
}
);
width = 183;
}
);
note = "\012    semicolon\012  ";
unicode = 003B;
},
{
glyphname = less;
lastChange = "2017-09-19 12:52:05 +0000";
layers = (
{
layerId = "902E803C-EB75-4CF8-B2E0-AD6A3AB6F03E";
paths = (
{
closed = 1;
nodes = (
"403 175 LINE",
"403 218 LINE",
"103 348 LINE",
"103 337 LINE",
"403 467 LINE",
"403 510 LINE",
"67 362 LINE",
"67 324 LINE"
);
}
);
width = 472;
}
);
leftKerningGroup = uni2219;
note = "\012    less\012  ";
rightKerningGroup = multiply;
unicode = 003C;
},
{
glyphname = equal;
lastChange = "2017-09-19 12:52:05 +0000";
layers = (
{
layerId = "902E803C-EB75-4CF8-B2E0-AD6A3AB6F03E";
paths = (
{
closed = 1;
nodes = (
"67 407 LINE",
"403 407 LINE",
"403 447 LINE",
"67 447 LINE"
);
},
{
closed = 1;
nodes = (
"67 238 LINE",
"403 238 LINE",
"403 278 LINE",
"67 278 LINE"
);
}
);
width = 472;
}
);
leftKerningGroup = multiply;
note = "\012    equal\012  ";
rightKerningGroup = multiply;
unicode = 003D;
},
{
glyphname = greater;
lastChange = "2017-09-19 12:52:05 +0000";
layers = (
{
layerId = "902E803C-EB75-4CF8-B2E0-AD6A3AB6F03E";
paths = (
{
closed = 1;
nodes = (
"67 175 LINE",
"403 324 LINE",
"403 362 LINE",
"67 510 LINE",
"67 467 LINE",
"367 337 LINE",
"367 348 LINE",
"67 218 LINE"
);
}
);
width = 472;
}
);
leftKerningGroup = multiply;
note = "\012    greater\012  ";
rightKerningGroup = uni2219;
unicode = 003E;
},
{
glyphname = question;
lastChange = "2017-09-19 12:56:00 +0000";
layers = (
{
layerId = "902E803C-EB75-4CF8-B2E0-AD6A3AB6F03E";
paths = (
{
closed = 1;
nodes = (
"143 145 LINE",
"183 145 LINE",
"184 311 LINE",
"303 361 OFFCURVE",
"344 418 OFFCURVE",
"344 510 CURVE SMOOTH",
"344 616 OFFCURVE",
"277 675 OFFCURVE",
"154 675 CURVE SMOOTH",
"106 675 OFFCURVE",
"55 667 OFFCURVE",
"18 651 CURVE",
"18 610 LINE",
"61 627 OFFCURVE",
"104 635 OFFCURVE",
"151 635 CURVE SMOOTH",
"248 635 OFFCURVE",
"299 592 OFFCURVE",
"299 509 CURVE SMOOTH",
"299 429 OFFCURVE",
"260 380 OFFCURVE",
"141 336 CURVE"
);
},
{
closed = 1;
nodes = (
"186 -5 OFFCURVE",
"200 10 OFFCURVE",
"200 31 CURVE SMOOTH",
"200 52 OFFCURVE",
"185 67 OFFCURVE",
"164 67 CURVE SMOOTH",
"142 67 OFFCURVE",
"128 52 OFFCURVE",
"128 31 CURVE SMOOTH",
"128 9 OFFCURVE",
"143 -5 OFFCURVE",
"164 -5 CURVE SMOOTH"
);
}
);
width = 372;
}
);
leftKerningGroup = question;
note = "\012    question\012  ";
rightKerningGroup = question;
unicode = 003F;
},
{
glyphname = at;
lastChange = "2017-09-19 12:52:13 +0000";
layers = (
{
layerId = "902E803C-EB75-4CF8-B2E0-AD6A3AB6F03E";
paths = (
{
closed = 1;
nodes = (
"465 -207 OFFCURVE",
"520 -197 OFFCURVE",
"564 -182 CURVE",
"564 -143 LINE",
"511 -160 OFFCURVE",
"462 -170 OFFCURVE",
"408 -170 CURVE SMOOTH",
"201 -170 OFFCURVE",
"89 -66 OFFCURVE",
"89 236 CURVE SMOOTH",
"89 533 OFFCURVE",
"200 637 OFFCURVE",
"390 637 CURVE SMOOTH",
"580 637 OFFCURVE",
"689 535 OFFCURVE",
"689 251 CURVE SMOOTH",
"689 84 OFFCURVE",
"643 30 OFFCURVE",
"598 30 CURVE SMOOTH",
"560 30 OFFCURVE",
"545 53 OFFCURVE",
"545 103 CURVE SMOOTH",
"545 335 LINE SMOOTH",
"545 454 OFFCURVE",
"486 494 OFFCURVE",
"382 494 CURVE SMOOTH",
"343 494 OFFCURVE",
"293 486 OFFCURVE",
"257 473 CURVE",
"257 432 LINE",
"300 448 OFFCURVE",
"345 454 OFFCURVE",
"378 454 CURVE SMOOTH",
"457 454 OFFCURVE",
"500 428 OFFCURVE",
"500 335 CURVE SMOOTH",
"500 103 LINE",
"464 50 OFFCURVE",
"416 32 OFFCURVE",
"372 32 CURVE SMOOTH",
"309 32 OFFCURVE",
"275 63 OFFCURVE",
"275 127 CURVE SMOOTH",
"275 186 OFFCURVE",
"309 218 OFFCURVE",
"387 227 CURVE SMOOTH",
"522 242 LINE",
"518 278 LINE",
"385 263 LINE SMOOTH",
"277 251 OFFCURVE",
"227 206 OFFCURVE",
"227 122 CURVE SMOOTH",
"227 38 OFFCURVE",
"282 -8 OFFCURVE",
"364 -8 CURVE SMOOTH",
"419 -8 OFFCURVE",
"469 14 OFFCURVE",
"500 56 CURVE",
"504 56 LINE",
"514 18 OFFCURVE",
"543 -8 OFFCURVE",
"592 -8 CURVE SMOOTH",
"668 -8 OFFCURVE",
"729 66 OFFCURVE",
"729 254 CURVE SMOOTH",
"729 550 OFFCURVE",
"606 675 OFFCURVE",
"390 675 CURVE SMOOTH",
"174 675 OFFCURVE",
"47 550 OFFCURVE",
"47 234 CURVE SMOOTH",
"47 -84 OFFCURVE",
"176 -207 OFFCURVE",
"408 -207 CURVE SMOOTH"
);
}
);
width = 775;
}
);
leftKerningGroup = C;
note = "\012    at\012  ";
rightKerningGroup = D;
unicode = 0040;
},
{
glyphname = bracketleft;
lastChange = "2017-09-19 12:55:08 +0000";
layers = (
{
layerId = "902E803C-EB75-4CF8-B2E0-AD6A3AB6F03E";
paths = (
{
closed = 1;
nodes = (
"86 -198 LINE",
"287 -198 LINE",
"287 -159 LINE",
"131 -159 LINE",
"131 689 LINE",
"287 689 LINE",
"287 729 LINE",
"86 729 LINE"
);
}
);
width = 269;
}
);
leftKerningGroup = B;
note = "\012    bracketleft\012  ";
rightKerningGroup = braceleft;
unicode = 005B;
},
{
glyphname = backslash;
lastChange = "2017-09-19 12:55:08 +0000";
layers = (
{
layerId = "902E803C-EB75-4CF8-B2E0-AD6A3AB6F03E";
paths = (
{
closed = 1;
nodes = (
"181 -108 LINE",
"227 -108 LINE",
"46 729 LINE",
"0 729 LINE"
);
}
);
width = 228;
}
);
note = "\012    backslash\012  ";
unicode = 005C;
},
{
glyphname = bracketright;
lastChange = "2017-09-19 12:55:08 +0000";
layers = (
{
layerId = "902E803C-EB75-4CF8-B2E0-AD6A3AB6F03E";
paths = (
{
closed = 1;
nodes = (
"-17 -198 LINE",
"184 -198 LINE",
"184 729 LINE",
"-18 729 LINE",
"-18 689 LINE",
"139 689 LINE",
"139 -159 LINE",
"-17 -159 LINE"
);
}
);
width = 269;
}
);
leftKerningGroup = braceright;
note = "\012    bracketright\012  ";
rightKerningGroup = H;
unicode = 005D;
},
{
glyphname = asciitilde;
lastChange = "2017-09-19 12:52:36 +0000";
layers = (
{
layerId = "902E803C-EB75-4CF8-B2E0-AD6A3AB6F03E";
paths = (
{
closed = 1;
nodes = (
"350 294 OFFCURVE",
"382 309 OFFCURVE",
"403 335 CURVE",
"403 382 LINE",
"377 349 OFFCURVE",
"348 334 OFFCURVE",
"313 334 CURVE SMOOTH",
"265 334 OFFCURVE",
"217 386 OFFCURVE",
"156 386 CURVE SMOOTH",
"120 386 OFFCURVE",
"88 371 OFFCURVE",
"67 345 CURVE",
"67 298 LINE",
"92 331 OFFCURVE",
"122 347 OFFCURVE",
"157 347 CURVE SMOOTH",
"205 347 OFFCURVE",
"253 294 OFFCURVE",
"314 294 CURVE SMOOTH"
);
}
);
width = 472;
}
);
leftKerningGroup = uni2219;
note = "\012    asciitilde\012  ";
rightKerningGroup = uni2219;
unicode = 007E;
},
{
glyphname = brokenbar;
lastChange = "2017-09-19 12:52:05 +0000";
layers = (
{
layerId = "902E803C-EB75-4CF8-B2E0-AD6A3AB6F03E";
paths = (
{
closed = 1;
nodes = (
"77 377 LINE",
"119 377 LINE",
"119 729 LINE",
"77 729 LINE"
);
},
{
closed = 1;
nodes = (
"77 -198 LINE",
"119 -198 LINE",
"119 153 LINE",
"77 153 LINE"
);
}
);
width = 197;
}
);
note = "\012    brokenbar\012  ";
unicode = 00A6;
},
{
glyphname = section;
lastChange = "2017-09-19 12:53:16 +0000";
layers = (
{
layerId = "902E803C-EB75-4CF8-B2E0-AD6A3AB6F03E";
paths = (
{
closed = 1;
nodes = (
"287 -8 OFFCURVE",
"346 43 OFFCURVE",
"346 128 CURVE SMOOTH",
"346 194 OFFCURVE",
"316 235 OFFCURVE",
"229 257 CURVE SMOOTH",
"174 270 LINE SMOOTH",
"117 284 OFFCURVE",
"93 314 OFFCURVE",
"93 362 CURVE SMOOTH",
"93 394 OFFCURVE",
"107 421 OFFCURVE",
"137 440 CURVE",
"107 463 LINE",
"73 439 OFFCURVE",
"52 403 OFFCURVE",
"52 360 CURVE SMOOTH",
"52 294 OFFCURVE",
"83 252 OFFCURVE",
"166 231 CURVE SMOOTH",
"220 218 LINE SMOOTH",
"276 204 OFFCURVE",
"302 179 OFFCURVE",
"302 126 CURVE SMOOTH",
"302 65 OFFCURVE",
"261 31 OFFCURVE",
"177 31 CURVE SMOOTH",
"140 31 OFFCURVE",
"105 36 OFFCURVE",
"61 50 CURVE",
"61 9 LINE",
"97 -2 OFFCURVE",
"136 -8 OFFCURVE",
"177 -8 CURVE SMOOTH"
);
},
{
closed = 1;
nodes = (
"302 203 LINE",
"336 227 OFFCURVE",
"357 263 OFFCURVE",
"357 309 CURVE SMOOTH",
"357 376 OFFCURVE",
"327 418 OFFCURVE",
"240 440 CURVE SMOOTH",
"185 453 LINE SMOOTH",
"128 467 OFFCURVE",
"106 495 OFFCURVE",
"106 542 CURVE SMOOTH",
"106 594 OFFCURVE",
"143 636 OFFCURVE",
"234 636 CURVE SMOOTH",
"267 636 OFFCURVE",
"295 632 OFFCURVE",
"331 623 CURVE",
"331 663 LINE",
"300 670 OFFCURVE",
"269 674 OFFCURVE",
"232 674 CURVE SMOOTH",
"119 674 OFFCURVE",
"62 617 OFFCURVE",
"62 540 CURVE SMOOTH",
"62 476 OFFCURVE",
"93 434 OFFCURVE",
"177 413 CURVE SMOOTH",
"231 400 LINE SMOOTH",
"288 386 OFFCURVE",
"316 360 OFFCURVE",
"316 306 CURVE SMOOTH",
"316 271 OFFCURVE",
"301 246 OFFCURVE",
"273 228 CURVE"
);
}
);
width = 409;
}
);
note = "\012    section\012  ";
unicode = 00A7;
},
{
glyphname = copyright;
lastChange = "2017-09-19 12:53:16 +0000";
layers = (
{
layerId = "902E803C-EB75-4CF8-B2E0-AD6A3AB6F03E";
paths = (
{
closed = 1;
nodes = (
"584 -10 OFFCURVE",
"718 127 OFFCURVE",
"718 334 CURVE SMOOTH",
"718 540 OFFCURVE",
"584 677 OFFCURVE",
"382 677 CURVE SMOOTH",
"181 677 OFFCURVE",
"47 540 OFFCURVE",
"47 334 CURVE SMOOTH",
"47 127 OFFCURVE",
"181 -10 OFFCURVE",
"382 -10 CURVE SMOOTH"
);
},
{
closed = 1;
nodes = (
"435 146 OFFCURVE",
"467 151 OFFCURVE",
"497 165 CURVE",
"497 202 LINE",
"460 188 OFFCURVE",
"429 184 OFFCURVE",
"403 184 CURVE SMOOTH",
"318 184 OFFCURVE",
"266 231 OFFCURVE",
"266 332 CURVE SMOOTH",
"266 431 OFFCURVE",
"318 478 OFFCURVE",
"412 478 CURVE SMOOTH",
"443 478 OFFCURVE",
"469 473 OFFCURVE",
"497 466 CURVE",
"497 504 LINE",
"468 512 OFFCURVE",
"441 516 OFFCURVE",
"410 516 CURVE SMOOTH",
"291 516 OFFCURVE",
"224 449 OFFCURVE",
"224 331 CURVE SMOOTH",
"224 209 OFFCURVE",
"294 146 OFFCURVE",
"399 146 CURVE SMOOTH"
);
},
{
closed = 1;
nodes = (
"202 27 OFFCURVE",
"84 148 OFFCURVE",
"84 334 CURVE SMOOTH",
"84 519 OFFCURVE",
"202 640 OFFCURVE",
"382 640 CURVE SMOOTH",
"563 640 OFFCURVE",
"681 519 OFFCURVE",
"681 334 CURVE SMOOTH",
"681 148 OFFCURVE",
"563 27 OFFCURVE",
"382 27 CURVE SMOOTH"
);
}
);
width = 765;
}
);
leftKerningGroup = C;
note = "\012    copyright\012  ";
rightKerningGroup = D;
unicode = 00A9;
},
{
glyphname = registered;
lastChange = "2017-09-19 12:53:16 +0000";
layers = (
{
layerId = "902E803C-EB75-4CF8-B2E0-AD6A3AB6F03E";
paths = (
{
closed = 1;
nodes = (
"501 121 OFFCURVE",
"613 234 OFFCURVE",
"613 398 CURVE SMOOTH",
"613 562 OFFCURVE",
"501 675 OFFCURVE",
"338 675 CURVE SMOOTH",
"175 675 OFFCURVE",
"63 562 OFFCURVE",
"63 398 CURVE SMOOTH",
"63 234 OFFCURVE",
"175 121 OFFCURVE",
"338 121 CURVE SMOOTH"
);
},
{
closed = 1;
nodes = (
"416 270 LINE",
"454 270 LINE",
"376 386 LINE",
"344 374 LINE"
);
},
{
closed = 1;
nodes = (
"193 155 OFFCURVE",
"98 250 OFFCURVE",
"98 398 CURVE SMOOTH",
"98 545 OFFCURVE",
"193 642 OFFCURVE",
"338 642 CURVE SMOOTH",
"484 642 OFFCURVE",
"578 545 OFFCURVE",
"578 398 CURVE SMOOTH",
"578 250 OFFCURVE",
"484 155 OFFCURVE",
"338 155 CURVE SMOOTH"
);
},
{
closed = 1;
nodes = (
"244 270 LINE",
"278 270 LINE",
"278 371 LINE",
"332 371 LINE SMOOTH",
"406 371 OFFCURVE",
"443 400 OFFCURVE",
"443 454 CURVE SMOOTH",
"443 507 OFFCURVE",
"405 537 OFFCURVE",
"332 537 CURVE SMOOTH",
"244 537 LINE"
);
},
{
closed = 1;
nodes = (
"278 402 LINE",
"278 506 LINE",
"338 506 LINE SMOOTH",
"386 506 OFFCURVE",
"409 489 OFFCURVE",
"409 454 CURVE SMOOTH",
"409 418 OFFCURVE",
"387 402 OFFCURVE",
"338 402 CURVE SMOOTH"
);
}
);
width = 677;
}
);
leftKerningGroup = ordfeminine;
note = "\012    registered\012  ";
unicode = 00AE;
},
{
glyphname = trademark;
lastChange = "2017-09-19 12:53:16 +0000";
layers = (
{
layerId = "902E803C-EB75-4CF8-B2E0-AD6A3AB6F03E";
paths = (
{
closed = 1;
nodes = (
"146 216 LINE",
"186 216 LINE",
"186 630 LINE",
"326 630 LINE",
"326 667 LINE",
"5 667 LINE",
"5 630 LINE",
"146 630 LINE"
);
},
{
closed = 1;
nodes = (
"371 216 LINE",
"409 216 LINE",
"409 629 LINE",
"394 629 LINE",
"550 278 LINE",
"587 278 LINE",
"742 629 LINE",
"729 629 LINE",
"729 216 LINE",
"768 216 LINE",
"768 667 LINE",
"721 667 LINE",
"565 311 LINE",
"575 311 LINE",
"418 667 LINE",
"371 667 LINE"
);
}
);
width = 841;
}
);
leftKerningGroup = trademark;
note = "\012    trademark\012  ";
rightKerningGroup = trademark;
unicode = 2122;
},
{
glyphname = multiply;
lastChange = "2017-09-19 12:52:05 +0000";
layers = (
{
layerId = "902E803C-EB75-4CF8-B2E0-AD6A3AB6F03E";
paths = (
{
closed = 1;
nodes = (
"82 179 LINE",
"219 315 LINE",
"354 179 LINE",
"382 207 LINE",
"246 343 LINE",
"382 478 LINE",
"354 506 LINE",
"219 370 LINE",
"82 506 LINE",
"55 478 LINE",
"191 343 LINE",
"55 207 LINE"
);
}
);
width = 437;
}
);
leftKerningGroup = multiply;
note = "\012    multiply\012  ";
rightKerningGroup = multiply;
unicode = 00D7;
},
{
glyphname = divide;
lastChange = "2017-09-19 12:52:36 +0000";
layers = (
{
layerId = "902E803C-EB75-4CF8-B2E0-AD6A3AB6F03E";
paths = (
{
closed = 1;
nodes = (
"67 323 LINE",
"403 323 LINE",
"403 362 LINE",
"67 362 LINE"
);
},
{
closed = 1;
nodes = (
"256 156 OFFCURVE",
"270 169 OFFCURVE",
"270 190 CURVE SMOOTH",
"270 211 OFFCURVE",
"256 225 OFFCURVE",
"235 225 CURVE SMOOTH",
"214 225 OFFCURVE",
"200 211 OFFCURVE",
"200 190 CURVE SMOOTH",
"200 169 OFFCURVE",
"215 156 OFFCURVE",
"235 156 CURVE SMOOTH"
);
},
{
closed = 1;
nodes = (
"256 460 OFFCURVE",
"270 473 OFFCURVE",
"270 495 CURVE SMOOTH",
"270 515 OFFCURVE",
"256 530 OFFCURVE",
"235 530 CURVE SMOOTH",
"214 530 OFFCURVE",
"200 516 OFFCURVE",
"200 495 CURVE SMOOTH",
"200 473 OFFCURVE",
"215 460 OFFCURVE",
"235 460 CURVE SMOOTH"
);
}
);
width = 472;
}
);
leftKerningGroup = uni2219;
note = "\012    divide\012  ";
rightKerningGroup = uni2219;
unicode = 00F7;
},
{
glyphname = plusminus;
lastChange = "2017-09-19 12:52:36 +0000";
layers = (
{
layerId = "902E803C-EB75-4CF8-B2E0-AD6A3AB6F03E";
paths = (
{
closed = 1;
nodes = (
"214 146 LINE",
"256 146 LINE",
"256 301 LINE",
"403 301 LINE",
"403 340 LINE",
"256 340 LINE",
"256 495 LINE",
"214 495 LINE",
"214 340 LINE",
"67 340 LINE",
"67 301 LINE",
"214 301 LINE"
);
},
{
closed = 1;
nodes = (
"67 0 LINE",
"403 0 LINE",
"403 39 LINE",
"67 39 LINE"
);
}
);
width = 472;
}
);
leftKerningGroup = multiply;
note = "\012    plusminus\012  ";
rightKerningGroup = multiply;
unicode = 00B1;
},
{
glyphname = paragraph;
lastChange = "2017-09-19 12:53:16 +0000";
layers = (
{
layerId = "902E803C-EB75-4CF8-B2E0-AD6A3AB6F03E";
paths = (
{
closed = 1;
nodes = (
"298 0 LINE",
"338 0 LINE",
"338 667 LINE",
"305 671 OFFCURVE",
"267 674 OFFCURVE",
"228 674 CURVE SMOOTH",
"105 674 OFFCURVE",
"41 604 OFFCURVE",
"41 451 CURVE SMOOTH",
"41 306 OFFCURVE",
"103 228 OFFCURVE",
"239 228 CURVE SMOOTH",
"261 228 OFFCURVE",
"277 229 OFFCURVE",
"298 231 CURVE"
);
},
{
closed = 1;
nodes = (
"396 0 LINE",
"435 0 LINE",
"435 667 LINE",
"396 667 LINE"
);
}
);
width = 513;
}
);
note = "\012    paragraph\012  ";
rightKerningGroup = H;
unicode = 00B6;
},
{
glyphname = periodcentered;
lastChange = "2017-09-18 08:47:20 +0000";
layers = (
{
layerId = "902E803C-EB75-4CF8-B2E0-AD6A3AB6F03E";
paths = (
{
closed = 1;
nodes = (
"225 198 CURVE SMOOTH",
"225 168 OFFCURVE",
"248 146 OFFCURVE",
"277 146 CURVE SMOOTH",
"306 146 OFFCURVE",
"329 168 OFFCURVE",
"329 198 CURVE SMOOTH",
"329 227 OFFCURVE",
"306 250 OFFCURVE",
"277 250 CURVE SMOOTH",
"248 250 OFFCURVE",
"225 228 OFFCURVE"
);
}
);
width = 519;
}
);
unicode = 00B7;
},
{
glyphname = uni0D9A0DCA200D0DC2;
lastChange = "2017-09-18 08:47:20 +0000";
layers = (
{
layerId = "902E803C-EB75-4CF8-B2E0-AD6A3AB6F03E";
paths = (
{
closed = 1;
nodes = (
"38 265 LINE",
"40 220 LINE",
"58 220 LINE",
"51 208 OFFCURVE",
"48 199 OFFCURVE",
"48 193 CURVE SMOOTH",
"48 183 LINE SMOOTH",
"48 97 OFFCURVE",
"69 36 OFFCURVE",
"149 36 CURVE SMOOTH",
"191 36 OFFCURVE",
"217 52 OFFCURVE",
"226 84 CURVE",
"230 72 OFFCURVE",
"234 65 OFFCURVE",
"237 64 CURVE",
"261 45 OFFCURVE",
"284 36 OFFCURVE",
"304 36 CURVE SMOOTH",
"347 36 OFFCURVE",
"377 52 OFFCURVE",
"395 83 CURVE SMOOTH",
"398 87 OFFCURVE",
"401 95 OFFCURVE",
"406 106 CURVE SMOOTH",
"411 118 OFFCURVE",
"415 127 OFFCURVE",
"415 132 CURVE SMOOTH",
"418 171 LINE",
"418 179 LINE SMOOTH",
"418 240 OFFCURVE",
"412 255 OFFCURVE",
"400 295 CURVE SMOOTH",
"396 310 OFFCURVE",
"391 317 OFFCURVE",
"389 320 CURVE SMOOTH",
"382 334 OFFCURVE",
"370 351 OFFCURVE",
"350 368 CURVE SMOOTH",
"342 376 OFFCURVE",
"333 380 OFFCURVE",
"326 384 CURVE",
"292 394 OFFCURVE",
"270 398 OFFCURVE",
"259 399 CURVE SMOOTH",
"229 400 LINE",
"229 422 LINE",
"248 453 OFFCURVE",
"293 467 OFFCURVE",
"345 467 CURVE SMOOTH",
"354 467 LINE SMOOTH",
"396 467 OFFCURVE",
"429 454 OFFCURVE",
"456 428 CURVE SMOOTH",
"457 428 OFFCURVE",
"457 427 OFFCURVE",
"457 425 CURVE SMOOTH",
"457 422 OFFCURVE",
"453 409 OFFCURVE",
"453 406 CURVE SMOOTH",
"453 405 LINE SMOOTH",
"453 402 OFFCURVE",
"454 401 OFFCURVE",
"455 401 CURVE",
"455 400 LINE",
"456 395 LINE",
"462 395 LINE",
"469 391 OFFCURVE",
"476 389 OFFCURVE",
"484 389 CURVE SMOOTH",
"498 389 OFFCURVE",
"518 394 OFFCURVE",
"518 407 CURVE SMOOTH",
"518 409 LINE SMOOTH",
"518 417 OFFCURVE",
"513 425 OFFCURVE",
"505 436 CURVE",
"520 457 OFFCURVE",
"540 467 OFFCURVE",
"566 467 CURVE SMOOTH",
"578 467 LINE",
"610 463 OFFCURVE",
"626 445 OFFCURVE",
"626 411 CURVE SMOOTH",
"626 399 LINE",
"548 399 LINE",
"532 396 OFFCURVE",
"521 393 OFFCURVE",
"512 389 CURVE",
"502 387 OFFCURVE",
"491 381 OFFCURVE",
"479 373 CURVE",
"446 361 OFFCURVE",
"433 299 OFFCURVE",
"433 253 CURVE SMOOTH",
"433 156 OFFCURVE",
"510 33 OFFCURVE",
"641 33 CURVE SMOOTH",
"649 33 LINE SMOOTH",
"779 33 OFFCURVE",
"880 135 OFFCURVE",
"880 265 CURVE SMOOTH",
"880 281 LINE",
"876 324 OFFCURVE",
"848 399 OFFCURVE",
"786 399 CURVE SMOOTH",
"681 399 LINE",
"681 400 LINE SMOOTH",
"681 435 OFFCURVE",
"712 465 OFFCURVE",
"747 465 CURVE SMOOTH",
"791 465 OFFCURVE",
"813 449 OFFCURVE",
"816 417 CURVE",
"816 395 LINE",
"850 396 LINE",
"851 402 OFFCURVE",
"851 409 OFFCURVE",
"851 416 CURVE SMOOTH",
"851 424 LINE",
"847 465 OFFCURVE",
"809 505 OFFCURVE",
"750 505 CURVE SMOOTH",
"715 505 OFFCURVE",
"667 490 OFFCURVE",
"655 439 CURVE",
"646 478 OFFCURVE",
"621 499 OFFCURVE",
"578 503 CURVE SMOOTH",
"571 503 OFFCURVE",
"566 504 OFFCURVE",
"563 504 CURVE SMOOTH",
"526 504 OFFCURVE",
"498 492 OFFCURVE",
"477 467 CURVE",
"448 492 OFFCURVE",
"406 505 OFFCURVE",
"353 505 CURVE SMOOTH",
"331 505 OFFCURVE",
"305 502 OFFCURVE",
"275 494 CURVE SMOOTH",
"257 489 OFFCURVE",
"240 476 OFFCURVE",
"224 458 CURVE",
"211 489 OFFCURVE",
"183 505 OFFCURVE",
"139 505 CURVE SMOOTH",
"99 505 OFFCURVE",
"54 468 OFFCURVE",
"56 428 CURVE SMOOTH",
"60 358 LINE",
"97 358 LINE",
"96 371 OFFCURVE",
"95 387 OFFCURVE",
"95 404 CURVE SMOOTH",
"95 440 OFFCURVE",
"108 464 OFFCURVE",
"133 464 CURVE SMOOTH",
"138 464 OFFCURVE",
"142 465 OFFCURVE",
"146 465 CURVE SMOOTH",
"169 465 OFFCURVE",
"185 456 OFFCURVE",
"186 438 CURVE SMOOTH",
"187 411 LINE"
);
},
{
closed = 1;
nodes = (
"72 253 LINE",
"190 366 LINE",
"273 365 LINE SMOOTH",
"330 365 OFFCURVE",
"362 301 OFFCURVE",
"368 273 CURVE SMOOTH",
"378 230 LINE SMOOTH",
"380 222 OFFCURVE",
"381 212 OFFCURVE",
"381 203 CURVE SMOOTH",
"381 198 OFFCURVE",
"380 193 OFFCURVE",
"380 189 CURVE SMOOTH",
"380 169 OFFCURVE",
"378 156 OFFCURVE",
"378 149 CURVE SMOOTH",
"377 140 OFFCURVE",
"373 126 OFFCURVE",
"364 110 CURVE SMOOTH",
"352 87 OFFCURVE",
"330 75 OFFCURVE",
"300 75 CURVE SMOOTH",
"295 75 LINE SMOOTH",
"264 75 OFFCURVE",
"247 93 OFFCURVE",
"242 129 CURVE SMOOTH",
"235 185 LINE",
"232 234 LINE",
"194 234 LINE",
"198 183 LINE",
"200 126 LINE",
"200 122 LINE SMOOTH",
"200 94 OFFCURVE",
"180 72 OFFCURVE",
"152 72 CURVE SMOOTH",
"120 72 OFFCURVE",
"92 99 OFFCURVE",
"89 131 CURVE",
"89 134 LINE SMOOTH",
"89 138 OFFCURVE",
"88 145 OFFCURVE",
"88 154 CURVE SMOOTH",
"87 164 OFFCURVE",
"87 170 OFFCURVE",
"87 175 CURVE SMOOTH",
"87 182 OFFCURVE",
"87 188 OFFCURVE",
"88 193 CURVE",
"103 224 LINE",
"100 254 LINE"
);
},
{
closed = 1;
nodes = (
"466 250 CURVE SMOOTH",
"466 298 OFFCURVE",
"488 367 OFFCURVE",
"574 367 CURVE SMOOTH",
"752 367 LINE",
"696 295 LINE",
"609 295 LINE SMOOTH",
"582 295 OFFCURVE",
"565 269 OFFCURVE",
"565 238 CURVE SMOOTH",
"565 232 LINE",
"569 189 OFFCURVE",
"609 153 OFFCURVE",
"647 153 CURVE SMOOTH",
"652 153 OFFCURVE",
"657 153 OFFCURVE",
"662 154 CURVE SMOOTH",
"725 162 OFFCURVE",
"736 193 OFFCURVE",
"738 263 CURVE",
"730 287 LINE",
"793 363 LINE",
"828 348 OFFCURVE",
"847 322 OFFCURVE",
"849 286 CURVE SMOOTH",
"850 273 LINE SMOOTH",
"851 269 OFFCURVE",
"851 266 OFFCURVE",
"851 262 CURVE SMOOTH",
"851 149 OFFCURVE",
"732 72 OFFCURVE",
"652 72 CURVE SMOOTH",
"558 72 OFFCURVE",
"487 127 OFFCURVE",
"470 219 CURVE SMOOTH",
"467 235 OFFCURVE",
"466 246 OFFCURVE"
);
},
{
closed = 1;
nodes = (
"607 229 CURVE SMOOTH",
"607 243 LINE SMOOTH",
"607 249 OFFCURVE",
"607 255 OFFCURVE",
"608 262 CURVE",
"699 262 LINE",
"704 256 OFFCURVE",
"707 250 OFFCURVE",
"707 243 CURVE SMOOTH",
"707 240 LINE SMOOTH",
"707 232 OFFCURVE",
"704 223 OFFCURVE",
"697 212 CURVE SMOOTH",
"685 193 OFFCURVE",
"670 184 OFFCURVE",
"652 184 CURVE SMOOTH",
"619 184 OFFCURVE",
"607 200 OFFCURVE"
);
}
);
width = 929;
}
);
},
{
glyphname = uni0D9B0DCA;
lastChange = "2017-09-18 08:47:20 +0000";
layers = (
{
layerId = "902E803C-EB75-4CF8-B2E0-AD6A3AB6F03E";
paths = (
{
closed = 1;
nodes = (
"20 250 CURVE SMOOTH",
"20 92 OFFCURVE",
"29 1 OFFCURVE",
"144 1 CURVE",
"144 44 LINE",
"94 44 OFFCURVE",
"69 93 OFFCURVE",
"69 191 CURVE SMOOTH",
"69 310 OFFCURVE",
"87 393 OFFCURVE",
"183 393 CURVE SMOOTH",
"231 393 OFFCURVE",
"256 360 OFFCURVE",
"256 293 CURVE SMOOTH",
"256 269 OFFCURVE",
"249 242 OFFCURVE",
"231 216 CURVE SMOOTH",
"183 148 LINE",
"167 119 OFFCURVE",
"158 85 OFFCURVE",
"158 48 CURVE SMOOTH",
"158 0 LINE",
"162 0 OFFCURVE",
"170 -1 OFFCURVE",
"181 -1 CURVE SMOOTH",
"191 -1 OFFCURVE",
"198 0 OFFCURVE",
"203 0 CURVE",
"203 2 OFFCURVE",
"202 5 OFFCURVE",
"202 9 CURVE SMOOTH",
"202 20 OFFCURVE",
"206 34 OFFCURVE",
"212 51 CURVE",
"235 25 OFFCURVE",
"293 -1 OFFCURVE",
"329 -1 CURVE SMOOTH",
"473 -1 OFFCURVE",
"512 115 OFFCURVE",
"512 279 CURVE SMOOTH",
"512 312 OFFCURVE",
"507 349 OFFCURVE",
"496 391 CURVE SMOOTH",
"472 485 OFFCURVE",
"427 531 OFFCURVE",
"384 553 CURVE SMOOTH",
"358 566 OFFCURVE",
"316 577 OFFCURVE",
"251 577 CURVE SMOOTH",
"237 577 OFFCURVE",
"222 576 OFFCURVE",
"205 576 CURVE SMOOTH",
"190 576 OFFCURVE",
"170 578 OFFCURVE",
"146 581 CURVE",
"127 592 OFFCURVE",
"117 605 OFFCURVE",
"117 621 CURVE SMOOTH",
"117 631 OFFCURVE",
"121 642 OFFCURVE",
"128 654 CURVE",
"163 673 OFFCURVE",
"201 683 OFFCURVE",
"242 683 CURVE SMOOTH",
"283 683 OFFCURVE",
"320 679 OFFCURVE",
"354 675 CURVE SMOOTH",
"413 668 OFFCURVE",
"442 631 OFFCURVE",
"441 558 CURVE",
"496 560 LINE",
"497 566 OFFCURVE",
"497 571 OFFCURVE",
"497 577 CURVE SMOOTH",
"497 624 OFFCURVE",
"481 658 OFFCURVE",
"457 685 CURVE SMOOTH",
"435 711 OFFCURVE",
"384 728 OFFCURVE",
"297 728 CURVE SMOOTH",
"287 728 OFFCURVE",
"275 727 OFFCURVE",
"264 727 CURVE SMOOTH",
"222 727 OFFCURVE",
"186 723 OFFCURVE",
"155 718 CURVE SMOOTH",
"88 707 OFFCURVE",
"59 667 OFFCURVE",
"59 630 CURVE SMOOTH",
"59 607 OFFCURVE",
"70 586 OFFCURVE",
"90 575 CURVE",
"71 574 OFFCURVE",
"51 574 OFFCURVE",
"29 574 CURVE",
"30 521 LINE",
"188 523 LINE SMOOTH",
"197 523 OFFCURVE",
"206 524 OFFCURVE",
"214 524 CURVE SMOOTH",
"246 524 OFFCURVE",
"268 522 OFFCURVE",
"280 519 CURVE",
"394 519 OFFCURVE",
"464 440 OFFCURVE",
"464 309 CURVE SMOOTH",
"464 132 OFFCURVE",
"425 44 OFFCURVE",
"347 44 CURVE SMOOTH",
"316 44 OFFCURVE",
"273 62 OFFCURVE",
"218 98 CURVE",
"222 119 OFFCURVE",
"232 140 OFFCURVE",
"247 161 CURVE SMOOTH",
"290 218 OFFCURVE",
"302 231 OFFCURVE",
"302 309 CURVE SMOOTH",
"302 397 OFFCURVE",
"258 441 OFFCURVE",
"172 441 CURVE SMOOTH",
"73 441 OFFCURVE",
"20 354 OFFCURVE"
);
}
);
width = 533;
}
);
},
{
glyphname = uni0D9B0DD2;
lastChange = "2017-09-18 08:47:20 +0000";
layers = (
{
layerId = "902E803C-EB75-4CF8-B2E0-AD6A3AB6F03E";
paths = (
{
closed = 1;
nodes = (
"20 250 CURVE SMOOTH",
"20 92 OFFCURVE",
"29 1 OFFCURVE",
"144 1 CURVE",
"144 44 LINE",
"94 44 OFFCURVE",
"69 93 OFFCURVE",
"69 191 CURVE SMOOTH",
"69 310 OFFCURVE",
"87 393 OFFCURVE",
"183 393 CURVE SMOOTH",
"231 393 OFFCURVE",
"256 360 OFFCURVE",
"256 293 CURVE SMOOTH",
"256 269 OFFCURVE",
"249 242 OFFCURVE",
"231 216 CURVE SMOOTH",
"183 148 LINE",
"167 119 OFFCURVE",
"158 85 OFFCURVE",
"158 48 CURVE SMOOTH",
"158 0 LINE",
"162 0 OFFCURVE",
"170 -1 OFFCURVE",
"181 -1 CURVE SMOOTH",
"191 -1 OFFCURVE",
"198 0 OFFCURVE",
"203 0 CURVE",
"203 2 OFFCURVE",
"202 5 OFFCURVE",
"202 9 CURVE SMOOTH",
"202 20 OFFCURVE",
"206 34 OFFCURVE",
"212 51 CURVE",
"235 25 OFFCURVE",
"293 -1 OFFCURVE",
"329 -1 CURVE SMOOTH",
"473 -1 OFFCURVE",
"512 115 OFFCURVE",
"512 279 CURVE SMOOTH",
"512 312 OFFCURVE",
"507 349 OFFCURVE",
"496 391 CURVE SMOOTH",
"472 485 OFFCURVE",
"427 531 OFFCURVE",
"384 553 CURVE SMOOTH",
"358 566 OFFCURVE",
"316 577 OFFCURVE",
"251 577 CURVE SMOOTH",
"222 577 OFFCURVE",
"181 573 OFFCURVE",
"154 573 CURVE SMOOTH",
"127 573 OFFCURVE",
"106 577 OFFCURVE",
"92 583 CURVE",
"87 594 OFFCURVE",
"85 604 OFFCURVE",
"85 613 CURVE SMOOTH",
"85 637 OFFCURVE",
"100 658 OFFCURVE",
"132 670 CURVE SMOOTH",
"163 681 OFFCURVE",
"201 683 OFFCURVE",
"242 683 CURVE SMOOTH",
"283 683 OFFCURVE",
"320 679 OFFCURVE",
"354 675 CURVE SMOOTH",
"413 668 OFFCURVE",
"442 631 OFFCURVE",
"441 558 CURVE",
"496 560 LINE",
"497 566 OFFCURVE",
"497 571 OFFCURVE",
"497 577 CURVE SMOOTH",
"497 624 OFFCURVE",
"481 658 OFFCURVE",
"457 685 CURVE SMOOTH",
"435 711 OFFCURVE",
"384 728 OFFCURVE",
"297 728 CURVE SMOOTH",
"287 728 OFFCURVE",
"275 727 OFFCURVE",
"264 727 CURVE SMOOTH",
"222 727 OFFCURVE",
"184 727 OFFCURVE",
"151 722 CURVE SMOOTH",
"99 715 OFFCURVE",
"63 694 OFFCURVE",
"43 662 CURVE",
"30 637 LINE",
"26 625 OFFCURVE",
"25 617 OFFCURVE",
"25 608 CURVE SMOOTH",
"25 596 OFFCURVE",
"28 583 OFFCURVE",
"33 565 CURVE",
"51 542 LINE",
"72 526 OFFCURVE",
"94 522 OFFCURVE",
"125 522 CURVE SMOOTH",
"188 523 LINE SMOOTH",
"197 523 OFFCURVE",
"206 524 OFFCURVE",
"214 524 CURVE SMOOTH",
"246 524 OFFCURVE",
"268 522 OFFCURVE",
"280 519 CURVE",
"394 519 OFFCURVE",
"464 440 OFFCURVE",
"464 309 CURVE SMOOTH",
"464 132 OFFCURVE",
"425 44 OFFCURVE",
"347 44 CURVE SMOOTH",
"316 44 OFFCURVE",
"273 62 OFFCURVE",
"218 98 CURVE",
"222 119 OFFCURVE",
"232 140 OFFCURVE",
"247 161 CURVE SMOOTH",
"290 218 OFFCURVE",
"302 231 OFFCURVE",
"302 309 CURVE SMOOTH",
"302 397 OFFCURVE",
"258 441 OFFCURVE",
"172 441 CURVE SMOOTH",
"73 441 OFFCURVE",
"20 354 OFFCURVE"
);
}
);
width = 533;
}
);
},
{
glyphname = uni0D9B0DD3;
lastChange = "2017-09-18 08:47:20 +0000";
layers = (
{
layerId = "902E803C-EB75-4CF8-B2E0-AD6A3AB6F03E";
paths = (
{
closed = 1;
nodes = (
"20 250 CURVE SMOOTH",
"20 92 OFFCURVE",
"29 1 OFFCURVE",
"144 1 CURVE",
"144 44 LINE",
"94 44 OFFCURVE",
"69 93 OFFCURVE",
"69 191 CURVE SMOOTH",
"69 310 OFFCURVE",
"87 393 OFFCURVE",
"183 393 CURVE SMOOTH",
"231 393 OFFCURVE",
"256 360 OFFCURVE",
"256 293 CURVE SMOOTH",
"256 269 OFFCURVE",
"249 242 OFFCURVE",
"231 216 CURVE SMOOTH",
"183 148 LINE",
"167 119 OFFCURVE",
"158 85 OFFCURVE",
"158 48 CURVE SMOOTH",
"158 0 LINE",
"162 0 OFFCURVE",
"170 -1 OFFCURVE",
"181 -1 CURVE SMOOTH",
"191 -1 OFFCURVE",
"198 0 OFFCURVE",
"203 0 CURVE",
"203 2 OFFCURVE",
"202 5 OFFCURVE",
"202 9 CURVE SMOOTH",
"202 20 OFFCURVE",
"206 34 OFFCURVE",
"212 51 CURVE",
"235 25 OFFCURVE",
"293 -1 OFFCURVE",
"329 -1 CURVE SMOOTH",
"473 -1 OFFCURVE",
"512 115 OFFCURVE",
"512 279 CURVE SMOOTH",
"512 312 OFFCURVE",
"507 349 OFFCURVE",
"496 391 CURVE SMOOTH",
"472 485 OFFCURVE",
"429 534 OFFCURVE",
"384 553 CURVE",
"363 569 OFFCURVE",
"319 577 OFFCURVE",
"252 577 CURVE SMOOTH",
"223 577 OFFCURVE",
"181 573 OFFCURVE",
"154 573 CURVE SMOOTH",
"127 573 OFFCURVE",
"106 577 OFFCURVE",
"92 583 CURVE",
"87 594 OFFCURVE",
"85 604 OFFCURVE",
"85 613 CURVE SMOOTH",
"85 637 OFFCURVE",
"100 658 OFFCURVE",
"132 670 CURVE SMOOTH",
"163 681 OFFCURVE",
"201 683 OFFCURVE",
"242 683 CURVE SMOOTH",
"283 683 OFFCURVE",
"322 681 OFFCURVE",
"357 679 CURVE SMOOTH",
"414 677 OFFCURVE",
"442 657 OFFCURVE",
"442 618 CURVE SMOOTH",
"442 600 OFFCURVE",
"427 587 OFFCURVE",
"394 587 CURVE SMOOTH",
"357 587 OFFCURVE",
"336 611 OFFCURVE",
"336 638 CURVE SMOOTH",
"336 648 OFFCURVE",
"339 660 OFFCURVE",
"347 672 CURVE",
"317 674 LINE",
"309 660 OFFCURVE",
"303 647 OFFCURVE",
"303 630 CURVE SMOOTH",
"303 618 OFFCURVE",
"307 604 OFFCURVE",
"318 592 CURVE SMOOTH",
"335 574 OFFCURVE",
"360 563 OFFCURVE",
"388 558 CURVE SMOOTH",
"396 557 OFFCURVE",
"404 556 OFFCURVE",
"411 556 CURVE SMOOTH",
"443 556 OFFCURVE",
"465 568 OFFCURVE",
"478 591 CURVE",
"481 601 OFFCURVE",
"482 611 OFFCURVE",
"482 621 CURVE SMOOTH",
"482 644 OFFCURVE",
"473 665 OFFCURVE",
"457 685 CURVE SMOOTH",
"436 712 OFFCURVE",
"384 728 OFFCURVE",
"297 728 CURVE SMOOTH",
"287 728 OFFCURVE",
"275 727 OFFCURVE",
"264 727 CURVE SMOOTH",
"222 727 OFFCURVE",
"184 727 OFFCURVE",
"151 722 CURVE SMOOTH",
"99 715 OFFCURVE",
"63 694 OFFCURVE",
"43 662 CURVE",
"30 637 LINE",
"26 625 OFFCURVE",
"25 617 OFFCURVE",
"25 608 CURVE SMOOTH",
"25 596 OFFCURVE",
"28 583 OFFCURVE",
"33 565 CURVE",
"51 542 LINE",
"72 526 OFFCURVE",
"94 522 OFFCURVE",
"125 522 CURVE SMOOTH",
"188 523 LINE SMOOTH",
"197 523 OFFCURVE",
"206 524 OFFCURVE",
"214 524 CURVE SMOOTH",
"246 524 OFFCURVE",
"268 522 OFFCURVE",
"280 519 CURVE",
"394 519 OFFCURVE",
"464 440 OFFCURVE",
"464 309 CURVE SMOOTH",
"464 132 OFFCURVE",
"425 44 OFFCURVE",
"347 44 CURVE SMOOTH",
"316 44 OFFCURVE",
"273 62 OFFCURVE",
"218 98 CURVE",
"222 119 OFFCURVE",
"232 140 OFFCURVE",
"247 161 CURVE SMOOTH",
"290 218 OFFCURVE",
"302 231 OFFCURVE",
"302 309 CURVE SMOOTH",
"302 397 OFFCURVE",
"258 441 OFFCURVE",
"172 441 CURVE SMOOTH",
"73 441 OFFCURVE",
"20 354 OFFCURVE"
);
}
);
width = 533;
}
);
},
{
glyphname = uni0D9C0DD4;
lastChange = "2017-09-18 08:47:20 +0000";
layers = (
{
layerId = "902E803C-EB75-4CF8-B2E0-AD6A3AB6F03E";
paths = (
{
closed = 1;
nodes = (
"15 244 LINE",
"16 211 LINE",
"23 144 LINE SMOOTH",
"31 68 OFFCURVE",
"114 0 OFFCURVE",
"191 0 CURVE SMOOTH",
"238 0 OFFCURVE",
"283 0 OFFCURVE",
"328 46 CURVE SMOOTH",
"382 100 OFFCURVE",
"383 169 OFFCURVE",
"383 205 CURVE SMOOTH",
"383 227 OFFCURVE",
"381 248 OFFCURVE",
"376 268 CURVE SMOOTH",
"367 300 OFFCURVE",
"349 321 OFFCURVE",
"327 330 CURVE",
"321 334 OFFCURVE",
"310 337 OFFCURVE",
"293 338 CURVE SMOOTH",
"235 342 LINE",
"252 430 OFFCURVE",
"289 462 OFFCURVE",
"364 462 CURVE SMOOTH",
"418 462 OFFCURVE",
"456 443 OFFCURVE",
"479 405 CURVE SMOOTH",
"502 366 OFFCURVE",
"506 356 OFFCURVE",
"506 325 CURVE SMOOTH",
"506 299 OFFCURVE",
"511 279 OFFCURVE",
"511 266 CURVE SMOOTH",
"512 239 LINE",
"510 195 LINE",
"501 143 LINE SMOOTH",
"495 105 OFFCURVE",
"446 41 OFFCURVE",
"391 41 CURVE SMOOTH",
"305 41 OFFCURVE",
"264 -5 OFFCURVE",
"264 -71 CURVE SMOOTH",
"264 -140 OFFCURVE",
"315 -181 OFFCURVE",
"385 -181 CURVE SMOOTH",
"472 -181 OFFCURVE",
"516 -125 OFFCURVE",
"516 -16 CURVE",
"468 -16 LINE",
"468 -27 LINE SMOOTH",
"468 -99 OFFCURVE",
"440 -134 OFFCURVE",
"386 -134 CURVE SMOOTH",
"345 -134 OFFCURVE",
"312 -111 OFFCURVE",
"312 -71 CURVE SMOOTH",
"312 -32 OFFCURVE",
"331 1 OFFCURVE",
"403 1 CURVE SMOOTH",
"407 1 OFFCURVE",
"411 1 OFFCURVE",
"415 1 CURVE",
"510 22 OFFCURVE",
"557 126 OFFCURVE",
"557 250 CURVE SMOOTH",
"557 269 OFFCURVE",
"555 298 OFFCURVE",
"551 338 CURVE SMOOTH",
"541 432 OFFCURVE",
"474 504 OFFCURVE",
"382 504 CURVE SMOOTH",
"289 504 OFFCURVE",
"231 474 OFFCURVE",
"210 415 CURVE SMOOTH",
"199 384 OFFCURVE",
"193 364 OFFCURVE",
"192 354 CURVE SMOOTH",
"188 313 LINE",
"188 228 LINE",
"232 228 LINE",
"232 304 LINE",
"243 304 LINE",
"279 302 LINE",
"290 300 OFFCURVE",
"301 297 OFFCURVE",
"310 290 CURVE SMOOTH",
"330 276 OFFCURVE",
"338 249 OFFCURVE",
"338 211 CURVE SMOOTH",
"338 187 OFFCURVE",
"335 163 OFFCURVE",
"330 138 CURVE SMOOTH",
"317 77 OFFCURVE",
"269 42 OFFCURVE",
"205 42 CURVE SMOOTH",
"146 42 OFFCURVE",
"104 70 OFFCURVE",
"79 127 CURVE SMOOTH",
"73 140 OFFCURVE",
"69 151 OFFCURVE",
"68 158 CURVE",
"64 167 OFFCURVE",
"63 178 OFFCURVE",
"62 188 CURVE SMOOTH",
"59 243 LINE",
"60 273 LINE",
"65 321 LINE SMOOTH",
"67 340 OFFCURVE",
"72 366 OFFCURVE",
"88 393 CURVE SMOOTH",
"117 442 OFFCURVE",
"152 465 OFFCURVE",
"184 466 CURVE SMOOTH",
"220 467 LINE",
"219 505 LINE",
"170 505 LINE",
"141 499 OFFCURVE",
"119 490 OFFCURVE",
"103 477 CURVE SMOOTH",
"55 439 OFFCURVE",
"24 385 OFFCURVE",
"18 300 CURVE SMOOTH",
"16 270 LINE"
);
}
);
width = 572;
}
);
},
{
glyphname = uni0D9C0DD6;
lastChange = "2017-09-18 08:47:20 +0000";
layers = (
{
layerId = "902E803C-EB75-4CF8-B2E0-AD6A3AB6F03E";
paths = (
{
closed = 1;
nodes = (
"15 244 LINE",
"16 211 LINE",
"23 144 LINE SMOOTH",
"31 68 OFFCURVE",
"114 0 OFFCURVE",
"191 0 CURVE SMOOTH",
"238 0 OFFCURVE",
"283 0 OFFCURVE",
"328 46 CURVE SMOOTH",
"382 100 OFFCURVE",
"383 169 OFFCURVE",
"383 205 CURVE SMOOTH",
"383 227 OFFCURVE",
"381 248 OFFCURVE",
"376 268 CURVE SMOOTH",
"367 300 OFFCURVE",
"349 321 OFFCURVE",
"327 330 CURVE",
"321 334 OFFCURVE",
"310 337 OFFCURVE",
"293 338 CURVE SMOOTH",
"235 342 LINE",
"252 430 OFFCURVE",
"289 462 OFFCURVE",
"364 462 CURVE SMOOTH",
"418 462 OFFCURVE",
"456 443 OFFCURVE",
"479 405 CURVE SMOOTH",
"502 366 OFFCURVE",
"506 356 OFFCURVE",
"506 325 CURVE SMOOTH",
"506 299 OFFCURVE",
"511 279 OFFCURVE",
"511 266 CURVE SMOOTH",
"512 239 LINE",
"510 195 LINE",
"501 143 LINE SMOOTH",
"495 105 OFFCURVE",
"446 41 OFFCURVE",
"391 41 CURVE SMOOTH",
"388 41 OFFCURVE",
"383 40 OFFCURVE",
"378 38 CURVE",
"352 38 LINE",
"352 -3 LINE",
"379 -3 OFFCURVE",
"400 -1 OFFCURVE",
"415 1 CURVE SMOOTH",
"516 22 OFFCURVE",
"557 131 OFFCURVE",
"557 250 CURVE SMOOTH",
"557 269 OFFCURVE",
"555 298 OFFCURVE",
"551 338 CURVE SMOOTH",
"541 432 OFFCURVE",
"474 504 OFFCURVE",
"382 504 CURVE SMOOTH",
"289 504 OFFCURVE",
"231 474 OFFCURVE",
"210 415 CURVE SMOOTH",
"199 384 OFFCURVE",
"193 364 OFFCURVE",
"192 354 CURVE SMOOTH",
"188 313 LINE",
"188 228 LINE",
"232 228 LINE",
"232 304 LINE",
"243 304 LINE",
"279 302 LINE",
"290 300 OFFCURVE",
"301 297 OFFCURVE",
"310 290 CURVE SMOOTH",
"330 276 OFFCURVE",
"338 249 OFFCURVE",
"338 211 CURVE SMOOTH",
"338 187 OFFCURVE",
"335 163 OFFCURVE",
"330 138 CURVE SMOOTH",
"317 77 OFFCURVE",
"269 42 OFFCURVE",
"205 42 CURVE SMOOTH",
"147 42 OFFCURVE",
"105 70 OFFCURVE",
"79 127 CURVE SMOOTH",
"73 140 OFFCURVE",
"69 151 OFFCURVE",
"68 158 CURVE",
"64 167 OFFCURVE",
"63 178 OFFCURVE",
"62 188 CURVE SMOOTH",
"59 243 LINE",
"60 273 LINE",
"65 321 LINE SMOOTH",
"67 340 OFFCURVE",
"72 366 OFFCURVE",
"88 393 CURVE SMOOTH",
"117 442 OFFCURVE",
"152 465 OFFCURVE",
"184 466 CURVE SMOOTH",
"220 467 LINE",
"219 505 LINE",
"170 505 LINE",
"141 499 OFFCURVE",
"119 490 OFFCURVE",
"103 477 CURVE SMOOTH",
"50 435 OFFCURVE",
"16 369 OFFCURVE",
"16 270 CURVE"
);
},
{
closed = 1;
nodes = (
"327 38 LINE",
"359 -19 LINE",
"340 -34 OFFCURVE",
"331 -52 OFFCURVE",
"331 -75 CURVE SMOOTH",
"331 -129 OFFCURVE",
"386 -151 OFFCURVE",
"445 -151 CURVE SMOOTH",
"526 -151 OFFCURVE",
"567 -114 OFFCURVE",
"567 -40 CURVE SMOOTH",
"567 -29 OFFCURVE",
"566 -21 OFFCURVE",
"566 -17 CURVE",
"521 -17 LINE",
"521 -29 LINE SMOOTH",
"521 -80 OFFCURVE",
"496 -105 OFFCURVE",
"446 -105 CURVE SMOOTH",
"402 -105 OFFCURVE",
"380 -90 OFFCURVE",
"380 -60 CURVE SMOOTH",
"380 -47 OFFCURVE",
"390 -36 OFFCURVE",
"411 -25 CURVE",
"378 38 LINE"
);
}
);
width = 572;
}
);
},
{
glyphname = uni0D9E0DCA;
lastChange = "2017-09-18 08:47:20 +0000";
layers = (
{
layerId = "902E803C-EB75-4CF8-B2E0-AD6A3AB6F03E";
paths = (
{
closed = 1;
nodes = (
"0 369 CURVE SMOOTH",
"0 333 OFFCURVE",
"18 318 OFFCURVE",
"58 306 CURVE",
"27 282 OFFCURVE",
"12 237 OFFCURVE",
"12 171 CURVE SMOOTH",
"12 77 OFFCURVE",
"53 -1 OFFCURVE",
"142 -1 CURVE SMOOTH",
"192 -1 OFFCURVE",
"226 21 OFFCURVE",
"245 63 CURVE",
"261 21 OFFCURVE",
"297 -1 OFFCURVE",
"352 -1 CURVE SMOOTH",
"456 -1 OFFCURVE",
"508 86 OFFCURVE",
"508 260 CURVE SMOOTH",
"508 340 OFFCURVE",
"495 409 OFFCURVE",
"470 466 CURVE SMOOTH",
"455 502 OFFCURVE",
"435 528 OFFCURVE",
"413 546 CURVE SMOOTH",
"375 578 OFFCURVE",
"295 596 OFFCURVE",
"168 596 CURVE SMOOTH",
"157 596 OFFCURVE",
"145 596 OFFCURVE",
"132 595 CURVE",
"117 602 OFFCURVE",
"110 615 OFFCURVE",
"110 633 CURVE SMOOTH",
"110 635 OFFCURVE",
"110 638 OFFCURVE",
"110 640 CURVE SMOOTH",
"110 681 OFFCURVE",
"169 688 OFFCURVE",
"273 688 CURVE SMOOTH",
"291 688 OFFCURVE",
"310 688 OFFCURVE",
"331 688 CURVE SMOOTH",
"373 688 OFFCURVE",
"403 679 OFFCURVE",
"421 661 CURVE",
"435 653 OFFCURVE",
"443 624 OFFCURVE",
"447 572 CURVE",
"492 572 LINE",
"492 644 OFFCURVE",
"469 687 OFFCURVE",
"427 706 CURVE SMOOTH",
"400 718 OFFCURVE",
"353 727 OFFCURVE",
"280 727 CURVE SMOOTH",
"179 727 OFFCURVE",
"116 714 OFFCURVE",
"92 689 CURVE SMOOTH",
"78 674 OFFCURVE",
"71 657 OFFCURVE",
"71 640 CURVE SMOOTH",
"71 626 OFFCURVE",
"76 611 OFFCURVE",
"84 596 CURVE",
"28 596 LINE",
"29 547 LINE",
"110 550 OFFCURVE",
"171 552 OFFCURVE",
"212 552 CURVE SMOOTH",
"325 552 OFFCURVE",
"395 520 OFFCURVE",
"423 457 CURVE SMOOTH",
"447 401 OFFCURVE",
"459 342 OFFCURVE",
"459 279 CURVE SMOOTH",
"459 263 OFFCURVE",
"460 248 OFFCURVE",
"460 234 CURVE SMOOTH",
"460 167 OFFCURVE",
"450 119 OFFCURVE",
"429 91 CURVE SMOOTH",
"404 58 OFFCURVE",
"378 41 OFFCURVE",
"351 41 CURVE SMOOTH",
"294 41 OFFCURVE",
"265 75 OFFCURVE",
"265 142 CURVE SMOOTH",
"265 210 LINE",
"266 234 LINE",
"222 234 LINE",
"222 230 OFFCURVE",
"223 226 OFFCURVE",
"223 219 CURVE SMOOTH",
"223 169 LINE SMOOTH",
"223 83 OFFCURVE",
"195 41 OFFCURVE",
"140 41 CURVE SMOOTH",
"87 41 OFFCURVE",
"55 96 OFFCURVE",
"55 152 CURVE SMOOTH",
"55 255 OFFCURVE",
"79 306 OFFCURVE",
"127 306 CURVE SMOOTH",
"267 306 LINE",
"267 375 LINE SMOOTH",
"267 430 OFFCURVE",
"232 461 OFFCURVE",
"168 467 CURVE",
"112 467 LINE",
"77 463 OFFCURVE",
"49 456 OFFCURVE",
"33 442 CURVE SMOOTH",
"8 422 OFFCURVE",
"0 396 OFFCURVE"
);
},
{
closed = 1;
nodes = (
"34 385 CURVE SMOOTH",
"34 390 OFFCURVE",
"36 396 OFFCURVE",
"41 401 CURVE SMOOTH",
"58 418 OFFCURVE",
"76 430 OFFCURVE",
"99 430 CURVE SMOOTH",
"110 430 LINE SMOOTH",
"113 430 OFFCURVE",
"116 430 OFFCURVE",
"119 429 CURVE SMOOTH",
"123 427 OFFCURVE",
"132 414 OFFCURVE",
"132 404 CURVE SMOOTH",
"132 378 OFFCURVE",
"88 360 OFFCURVE",
"64 360 CURVE SMOOTH",
"47 360 OFFCURVE",
"34 369 OFFCURVE"
);
},
{
closed = 1;
nodes = (
"94 341 LINE",
"121 345 OFFCURVE",
"143 354 OFFCURVE",
"160 369 CURVE",
"167 382 OFFCURVE",
"170 393 OFFCURVE",
"170 404 CURVE SMOOTH",
"170 412 OFFCURVE",
"168 419 OFFCURVE",
"164 426 CURVE",
"195 426 OFFCURVE",
"226 393 OFFCURVE",
"226 366 CURVE SMOOTH",
"226 343 LINE"
);
}
);
width = 533;
}
);
},
{
glyphname = uni0D9E0DD2;
lastChange = "2017-09-18 08:47:20 +0000";
layers = (
{
layerId = "902E803C-EB75-4CF8-B2E0-AD6A3AB6F03E";
paths = (
{
closed = 1;
nodes = (
"0 369 CURVE SMOOTH",
"0 333 OFFCURVE",
"18 318 OFFCURVE",
"58 306 CURVE",
"27 282 OFFCURVE",
"12 237 OFFCURVE",
"12 171 CURVE SMOOTH",
"12 77 OFFCURVE",
"53 -1 OFFCURVE",
"142 -1 CURVE SMOOTH",
"192 -1 OFFCURVE",
"226 21 OFFCURVE",
"245 63 CURVE",
"261 21 OFFCURVE",
"297 -1 OFFCURVE",
"352 -1 CURVE SMOOTH",
"456 -1 OFFCURVE",
"508 86 OFFCURVE",
"508 260 CURVE SMOOTH",
"508 340 OFFCURVE",
"495 409 OFFCURVE",
"470 466 CURVE SMOOTH",
"455 502 OFFCURVE",
"435 528 OFFCURVE",
"413 546 CURVE SMOOTH",
"379 575 OFFCURVE",
"327 591 OFFCURVE",
"254 591 CURVE SMOOTH",
"239 591 OFFCURVE",
"224 591 OFFCURVE",
"207 589 CURVE SMOOTH",
"184 586 OFFCURVE",
"164 583 OFFCURVE",
"146 583 CURVE SMOOTH",
"107 583 OFFCURVE",
"68 592 OFFCURVE",
"68 627 CURVE SMOOTH",
"68 635 OFFCURVE",
"70 643 OFFCURVE",
"74 652 CURVE",
"93 675 OFFCURVE",
"132 688 OFFCURVE",
"191 691 CURVE SMOOTH",
"201 691 OFFCURVE",
"211 692 OFFCURVE",
"222 692 CURVE SMOOTH",
"255 692 OFFCURVE",
"291 688 OFFCURVE",
"331 688 CURVE SMOOTH",
"373 688 OFFCURVE",
"403 678 OFFCURVE",
"423 657 CURVE",
"436 652 OFFCURVE",
"443 624 OFFCURVE",
"447 572 CURVE",
"492 572 LINE",
"492 644 OFFCURVE",
"469 687 OFFCURVE",
"427 706 CURVE SMOOTH",
"400 718 OFFCURVE",
"353 727 OFFCURVE",
"280 727 CURVE SMOOTH",
"262 727 OFFCURVE",
"244 728 OFFCURVE",
"227 728 CURVE SMOOTH",
"159 728 OFFCURVE",
"107 719 OFFCURVE",
"71 703 CURVE SMOOTH",
"40 689 OFFCURVE",
"24 665 OFFCURVE",
"24 630 CURVE SMOOTH",
"24 626 OFFCURVE",
"24 623 OFFCURVE",
"25 619 CURVE SMOOTH",
"25 617 OFFCURVE",
"25 615 OFFCURVE",
"25 613 CURVE SMOOTH",
"25 588 OFFCURVE",
"38 569 OFFCURVE",
"64 555 CURVE",
"70 549 OFFCURVE",
"88 546 OFFCURVE",
"118 546 CURVE SMOOTH",
"142 546 OFFCURVE",
"173 552 OFFCURVE",
"212 552 CURVE SMOOTH",
"325 552 OFFCURVE",
"395 520 OFFCURVE",
"423 457 CURVE SMOOTH",
"447 401 OFFCURVE",
"459 342 OFFCURVE",
"459 279 CURVE SMOOTH",
"459 263 OFFCURVE",
"460 248 OFFCURVE",
"460 234 CURVE SMOOTH",
"460 167 OFFCURVE",
"450 119 OFFCURVE",
"429 91 CURVE SMOOTH",
"404 58 OFFCURVE",
"378 41 OFFCURVE",
"351 41 CURVE SMOOTH",
"294 41 OFFCURVE",
"265 75 OFFCURVE",
"265 142 CURVE SMOOTH",
"265 210 LINE",
"266 234 LINE",
"222 234 LINE",
"222 230 OFFCURVE",
"223 226 OFFCURVE",
"223 219 CURVE SMOOTH",
"223 169 LINE SMOOTH",
"223 83 OFFCURVE",
"195 41 OFFCURVE",
"140 41 CURVE SMOOTH",
"87 41 OFFCURVE",
"55 96 OFFCURVE",
"55 152 CURVE SMOOTH",
"55 255 OFFCURVE",
"79 306 OFFCURVE",
"127 306 CURVE SMOOTH",
"267 306 LINE",
"267 375 LINE SMOOTH",
"267 430 OFFCURVE",
"232 461 OFFCURVE",
"168 467 CURVE",
"112 467 LINE",
"77 463 OFFCURVE",
"49 456 OFFCURVE",
"33 442 CURVE SMOOTH",
"8 422 OFFCURVE",
"0 396 OFFCURVE"
);
},
{
closed = 1;
nodes = (
"34 385 CURVE SMOOTH",
"34 390 OFFCURVE",
"36 396 OFFCURVE",
"41 401 CURVE SMOOTH",
"58 418 OFFCURVE",
"76 430 OFFCURVE",
"99 430 CURVE SMOOTH",
"110 430 LINE SMOOTH",
"113 430 OFFCURVE",
"116 430 OFFCURVE",
"119 429 CURVE SMOOTH",
"123 427 OFFCURVE",
"132 414 OFFCURVE",
"132 404 CURVE SMOOTH",
"132 378 OFFCURVE",
"88 360 OFFCURVE",
"64 360 CURVE SMOOTH",
"47 360 OFFCURVE",
"34 369 OFFCURVE"
);
},
{
closed = 1;
nodes = (
"94 341 LINE",
"121 345 OFFCURVE",
"143 354 OFFCURVE",
"160 369 CURVE",
"167 382 OFFCURVE",
"170 393 OFFCURVE",
"170 404 CURVE SMOOTH",
"170 412 OFFCURVE",
"168 419 OFFCURVE",
"164 426 CURVE",
"195 426 OFFCURVE",
"226 393 OFFCURVE",
"226 366 CURVE SMOOTH",
"226 343 LINE"
);
}
);
width = 533;
}
);
},
{
glyphname = uni0D9E0DD3;
lastChange = "2017-09-18 08:47:20 +0000";
layers = (
{
layerId = "902E803C-EB75-4CF8-B2E0-AD6A3AB6F03E";
paths = (
{
closed = 1;
nodes = (
"0 369 CURVE SMOOTH",
"0 333 OFFCURVE",
"18 318 OFFCURVE",
"58 306 CURVE",
"27 282 OFFCURVE",
"12 237 OFFCURVE",
"12 171 CURVE SMOOTH",
"12 77 OFFCURVE",
"53 -1 OFFCURVE",
"142 -1 CURVE SMOOTH",
"192 -1 OFFCURVE",
"226 21 OFFCURVE",
"245 63 CURVE",
"261 21 OFFCURVE",
"297 -1 OFFCURVE",
"352 -1 CURVE SMOOTH",
"456 -1 OFFCURVE",
"508 86 OFFCURVE",
"508 260 CURVE SMOOTH",
"508 340 OFFCURVE",
"495 409 OFFCURVE",
"470 466 CURVE SMOOTH",
"455 502 OFFCURVE",
"435 528 OFFCURVE",
"413 546 CURVE SMOOTH",
"379 575 OFFCURVE",
"327 591 OFFCURVE",
"254 591 CURVE SMOOTH",
"239 591 OFFCURVE",
"224 591 OFFCURVE",
"207 589 CURVE SMOOTH",
"184 586 OFFCURVE",
"164 583 OFFCURVE",
"146 583 CURVE SMOOTH",
"107 583 OFFCURVE",
"68 592 OFFCURVE",
"68 627 CURVE SMOOTH",
"68 635 OFFCURVE",
"70 643 OFFCURVE",
"74 652 CURVE",
"93 675 OFFCURVE",
"132 688 OFFCURVE",
"191 691 CURVE SMOOTH",
"212 692 OFFCURVE",
"233 692 OFFCURVE",
"257 692 CURVE SMOOTH",
"280 692 OFFCURVE",
"305 692 OFFCURVE",
"332 691 CURVE SMOOTH",
"379 690 OFFCURVE",
"413 684 OFFCURVE",
"433 674 CURVE",
"447 662 OFFCURVE",
"454 648 OFFCURVE",
"454 631 CURVE SMOOTH",
"454 606 OFFCURVE",
"431 594 OFFCURVE",
"409 594 CURVE SMOOTH",
"384 594 OFFCURVE",
"359 612 OFFCURVE",
"359 645 CURVE SMOOTH",
"359 656 OFFCURVE",
"363 669 OFFCURVE",
"370 682 CURVE",
"341 688 LINE",
"335 668 OFFCURVE",
"332 652 OFFCURVE",
"332 638 CURVE SMOOTH",
"332 591 OFFCURVE",
"376 567 OFFCURVE",
"421 567 CURVE SMOOTH",
"427 567 OFFCURVE",
"434 567 OFFCURVE",
"440 569 CURVE SMOOTH",
"467 577 OFFCURVE",
"483 590 OFFCURVE",
"487 605 CURVE SMOOTH",
"489 612 OFFCURVE",
"488 619 OFFCURVE",
"488 625 CURVE SMOOTH",
"488 667 OFFCURVE",
"467 693 OFFCURVE",
"429 708 CURVE SMOOTH",
"401 719 OFFCURVE",
"353 727 OFFCURVE",
"280 727 CURVE SMOOTH",
"262 727 OFFCURVE",
"244 728 OFFCURVE",
"227 728 CURVE SMOOTH",
"159 728 OFFCURVE",
"107 719 OFFCURVE",
"71 703 CURVE SMOOTH",
"40 689 OFFCURVE",
"24 665 OFFCURVE",
"24 630 CURVE SMOOTH",
"24 626 OFFCURVE",
"24 623 OFFCURVE",
"25 619 CURVE SMOOTH",
"25 617 OFFCURVE",
"25 615 OFFCURVE",
"25 613 CURVE SMOOTH",
"25 588 OFFCURVE",
"38 569 OFFCURVE",
"64 555 CURVE",
"70 549 OFFCURVE",
"88 546 OFFCURVE",
"118 546 CURVE SMOOTH",
"142 546 OFFCURVE",
"173 552 OFFCURVE",
"212 552 CURVE SMOOTH",
"325 552 OFFCURVE",
"395 520 OFFCURVE",
"423 457 CURVE SMOOTH",
"447 401 OFFCURVE",
"459 342 OFFCURVE",
"459 279 CURVE SMOOTH",
"459 263 OFFCURVE",
"460 248 OFFCURVE",
"460 234 CURVE SMOOTH",
"460 167 OFFCURVE",
"450 119 OFFCURVE",
"429 91 CURVE SMOOTH",
"404 58 OFFCURVE",
"378 41 OFFCURVE",
"351 41 CURVE SMOOTH",
"294 41 OFFCURVE",
"265 75 OFFCURVE",
"265 142 CURVE SMOOTH",
"265 210 LINE",
"266 234 LINE",
"222 234 LINE",
"222 230 OFFCURVE",
"223 226 OFFCURVE",
"223 219 CURVE SMOOTH",
"223 169 LINE SMOOTH",
"223 83 OFFCURVE",
"195 41 OFFCURVE",
"140 41 CURVE SMOOTH",
"87 41 OFFCURVE",
"55 96 OFFCURVE",
"55 152 CURVE SMOOTH",
"55 255 OFFCURVE",
"79 306 OFFCURVE",
"127 306 CURVE SMOOTH",
"267 306 LINE",
"267 375 LINE SMOOTH",
"267 430 OFFCURVE",
"232 461 OFFCURVE",
"168 467 CURVE",
"112 467 LINE",
"77 463 OFFCURVE",
"49 456 OFFCURVE",
"33 442 CURVE SMOOTH",
"8 422 OFFCURVE",
"0 396 OFFCURVE"
);
},
{
closed = 1;
nodes = (
"34 385 CURVE SMOOTH",
"34 390 OFFCURVE",
"36 396 OFFCURVE",
"41 401 CURVE SMOOTH",
"58 418 OFFCURVE",
"76 430 OFFCURVE",
"99 430 CURVE SMOOTH",
"110 430 LINE SMOOTH",
"113 430 OFFCURVE",
"116 430 OFFCURVE",
"119 429 CURVE SMOOTH",
"123 427 OFFCURVE",
"132 414 OFFCURVE",
"132 404 CURVE SMOOTH",
"132 378 OFFCURVE",
"88 360 OFFCURVE",
"64 360 CURVE SMOOTH",
"47 360 OFFCURVE",
"34 369 OFFCURVE"
);
},
{
closed = 1;
nodes = (
"94 341 LINE",
"121 345 OFFCURVE",
"143 354 OFFCURVE",
"160 369 CURVE",
"167 382 OFFCURVE",
"170 393 OFFCURVE",
"170 404 CURVE SMOOTH",
"170 412 OFFCURVE",
"168 419 OFFCURVE",
"164 426 CURVE",
"195 426 OFFCURVE",
"226 393 OFFCURVE",
"226 366 CURVE SMOOTH",
"226 343 LINE"
);
}
);
width = 533;
}
);
},
{
glyphname = uni0D9F0DD4;
lastChange = "2017-09-18 08:47:20 +0000";
layers = (
{
layerId = "902E803C-EB75-4CF8-B2E0-AD6A3AB6F03E";
paths = (
{
closed = 1;
nodes = (
"22 319 CURVE SMOOTH",
"22 275 OFFCURVE",
"32 230 OFFCURVE",
"53 184 CURVE",
"86 183 LINE",
"99 83 OFFCURVE",
"163 0 OFFCURVE",
"258 0 CURVE SMOOTH",
"361 0 OFFCURVE",
"423 47 OFFCURVE",
"444 141 CURVE SMOOTH",
"448 161 OFFCURVE",
"450 180 OFFCURVE",
"450 196 CURVE SMOOTH",
"450 199 OFFCURVE",
"450 202 OFFCURVE",
"450 205 CURVE SMOOTH",
"448 238 LINE",
"443 267 LINE",
"436 289 OFFCURVE",
"428 303 OFFCURVE",
"420 309 CURVE SMOOTH",
"394 330 LINE SMOOTH",
"388 335 OFFCURVE",
"371 338 OFFCURVE",
"343 340 CURVE SMOOTH",
"336 341 OFFCURVE",
"322 342 OFFCURVE",
"302 342 CURVE",
"316 394 LINE",
"323 409 OFFCURVE",
"331 423 OFFCURVE",
"341 431 CURVE SMOOTH",
"365 453 OFFCURVE",
"396 462 OFFCURVE",
"431 462 CURVE SMOOTH",
"492 462 OFFCURVE",
"533 438 OFFCURVE",
"554 392 CURVE SMOOTH",
"569 359 OFFCURVE",
"575 337 OFFCURVE",
"577 326 CURVE SMOOTH",
"582 290 LINE",
"582 257 LINE",
"579 206 LINE",
"572 160 LINE",
"564 115 OFFCURVE",
"534 68 OFFCURVE",
"495 51 CURVE",
"474 44 LINE",
"457 40 LINE",
"443 38 LINE",
"418 38 LINE",
"418 -3 LINE",
"469 -3 OFFCURVE",
"510 6 OFFCURVE",
"538 28 CURVE SMOOTH",
"560 46 OFFCURVE",
"573 62 OFFCURVE",
"580 72 CURVE SMOOTH",
"605 109 OFFCURVE",
"625 183 OFFCURVE",
"625 231 CURVE SMOOTH",
"625 237 OFFCURVE",
"625 245 OFFCURVE",
"624 253 CURVE SMOOTH",
"617 341 LINE SMOOTH",
"610 433 OFFCURVE",
"540 504 OFFCURVE",
"448 504 CURVE SMOOTH",
"353 504 OFFCURVE",
"293 468 OFFCURVE",
"268 396 CURVE SMOOTH",
"262 379 LINE",
"258 353 LINE",
"255 313 LINE",
"255 228 LINE",
"298 228 LINE",
"298 304 LINE",
"309 304 LINE",
"345 302 LINE",
"385 293 OFFCURVE",
"401 276 OFFCURVE",
"406 229 CURVE",
"407 211 LINE SMOOTH",
"407 208 OFFCURVE",
"408 204 OFFCURVE",
"408 200 CURVE SMOOTH",
"408 182 OFFCURVE",
"404 161 OFFCURVE",
"398 137 CURVE SMOOTH",
"380 74 OFFCURVE",
"338 42 OFFCURVE",
"272 42 CURVE SMOOTH",
"188 42 OFFCURVE",
"130 117 OFFCURVE",
"130 181 CURVE",
"126 221 LINE",
"126 246 LINE",
"127 277 LINE",
"132 324 LINE SMOOTH",
"136 363 OFFCURVE",
"171 443 OFFCURVE",
"219 458 CURVE SMOOTH",
"229 461 OFFCURVE",
"238 464 OFFCURVE",
"246 465 CURVE SMOOTH",
"251 466 OFFCURVE",
"265 467 OFFCURVE",
"287 467 CURVE",
"286 505 LINE",
"237 505 LINE",
"181 501 LINE SMOOTH",
"87 495 OFFCURVE",
"22 405 OFFCURVE"
);
},
{
closed = 1;
nodes = (
"60 307 CURVE SMOOTH",
"60 366 OFFCURVE",
"92 439 OFFCURVE",
"145 448 CURVE",
"121 419 OFFCURVE",
"105 391 OFFCURVE",
"97 362 CURVE SMOOTH",
"90 335 LINE",
"85 320 OFFCURVE",
"83 306 OFFCURVE",
"83 295 CURVE SMOOTH",
"82 267 LINE",
"82 238 LINE",
"83 208 LINE",
"71 226 OFFCURVE",
"60 280 OFFCURVE"
);
},
{
closed = 1;
nodes = (
"313 -72 CURVE SMOOTH",
"313 -140 OFFCURVE",
"364 -181 OFFCURVE",
"434 -181 CURVE SMOOTH",
"521 -181 OFFCURVE",
"565 -126 OFFCURVE",
"565 -16 CURVE",
"517 -16 LINE",
"517 -28 LINE SMOOTH",
"517 -99 OFFCURVE",
"490 -135 OFFCURVE",
"435 -135 CURVE SMOOTH",
"394 -135 OFFCURVE",
"361 -111 OFFCURVE",
"361 -72 CURVE SMOOTH",
"361 -31 OFFCURVE",
"387 -2 OFFCURVE",
"427 -2 CURVE",
"427 42 LINE",
"360 42 OFFCURVE",
"313 -5 OFFCURVE"
);
}
);
width = 648;
}
);
},
{
glyphname = uni0D9F0DD6;
lastChange = "2017-09-18 08:47:20 +0000";
layers = (
{
layerId = "902E803C-EB75-4CF8-B2E0-AD6A3AB6F03E";
paths = (
{
closed = 1;
nodes = (
"22 319 CURVE SMOOTH",
"22 275 OFFCURVE",
"32 230 OFFCURVE",
"53 184 CURVE",
"86 183 LINE",
"99 83 OFFCURVE",
"163 0 OFFCURVE",
"258 0 CURVE SMOOTH",
"361 0 OFFCURVE",
"423 47 OFFCURVE",
"444 141 CURVE SMOOTH",
"448 161 OFFCURVE",
"450 180 OFFCURVE",
"450 196 CURVE SMOOTH",
"450 199 OFFCURVE",
"450 202 OFFCURVE",
"450 205 CURVE SMOOTH",
"448 238 LINE",
"443 267 LINE",
"436 289 OFFCURVE",
"428 303 OFFCURVE",
"420 309 CURVE SMOOTH",
"394 330 LINE SMOOTH",
"388 335 OFFCURVE",
"371 338 OFFCURVE",
"343 340 CURVE SMOOTH",
"336 341 OFFCURVE",
"322 342 OFFCURVE",
"302 342 CURVE",
"316 394 LINE",
"323 409 OFFCURVE",
"331 423 OFFCURVE",
"341 431 CURVE SMOOTH",
"365 453 OFFCURVE",
"396 462 OFFCURVE",
"431 462 CURVE SMOOTH",
"492 462 OFFCURVE",
"533 438 OFFCURVE",
"554 392 CURVE SMOOTH",
"569 359 OFFCURVE",
"575 337 OFFCURVE",
"577 326 CURVE SMOOTH",
"582 290 LINE",
"582 257 LINE",
"579 206 LINE",
"572 160 LINE",
"564 115 OFFCURVE",
"534 68 OFFCURVE",
"495 51 CURVE",
"474 44 LINE",
"457 40 LINE",
"443 38 LINE",
"418 38 LINE",
"418 -3 LINE",
"469 -3 OFFCURVE",
"510 6 OFFCURVE",
"538 28 CURVE SMOOTH",
"560 46 OFFCURVE",
"573 62 OFFCURVE",
"580 72 CURVE SMOOTH",
"605 109 OFFCURVE",
"625 183 OFFCURVE",
"625 231 CURVE SMOOTH",
"625 237 OFFCURVE",
"625 245 OFFCURVE",
"624 253 CURVE SMOOTH",
"617 341 LINE SMOOTH",
"610 433 OFFCURVE",
"540 504 OFFCURVE",
"448 504 CURVE SMOOTH",
"353 504 OFFCURVE",
"293 468 OFFCURVE",
"268 396 CURVE SMOOTH",
"262 379 LINE",
"258 353 LINE",
"255 313 LINE",
"255 228 LINE",
"298 228 LINE",
"298 304 LINE",
"309 304 LINE",
"345 302 LINE",
"385 293 OFFCURVE",
"401 276 OFFCURVE",
"406 229 CURVE",
"407 211 LINE SMOOTH",
"407 208 OFFCURVE",
"408 204 OFFCURVE",
"408 200 CURVE SMOOTH",
"408 182 OFFCURVE",
"404 161 OFFCURVE",
"398 137 CURVE SMOOTH",
"380 74 OFFCURVE",
"338 42 OFFCURVE",
"272 42 CURVE SMOOTH",
"188 42 OFFCURVE",
"130 117 OFFCURVE",
"130 181 CURVE",
"126 221 LINE",
"126 246 LINE",
"127 277 LINE",
"132 324 LINE SMOOTH",
"136 363 OFFCURVE",
"171 443 OFFCURVE",
"219 458 CURVE SMOOTH",
"229 461 OFFCURVE",
"238 464 OFFCURVE",
"246 465 CURVE SMOOTH",
"251 466 OFFCURVE",
"265 467 OFFCURVE",
"287 467 CURVE",
"286 505 LINE",
"237 505 LINE",
"181 501 LINE SMOOTH",
"87 495 OFFCURVE",
"22 405 OFFCURVE"
);
},
{
closed = 1;
nodes = (
"60 307 CURVE SMOOTH",
"60 366 OFFCURVE",
"92 439 OFFCURVE",
"145 448 CURVE",
"121 419 OFFCURVE",
"105 391 OFFCURVE",
"97 362 CURVE SMOOTH",
"90 335 LINE",
"85 320 OFFCURVE",
"83 306 OFFCURVE",
"83 295 CURVE SMOOTH",
"82 267 LINE",
"82 238 LINE",
"83 208 LINE",
"71 226 OFFCURVE",
"60 280 OFFCURVE"
);
},
{
closed = 1;
nodes = (
"388 25 LINE",
"420 -32 LINE",
"401 -47 OFFCURVE",
"392 -65 OFFCURVE",
"392 -88 CURVE SMOOTH",
"392 -143 OFFCURVE",
"447 -164 OFFCURVE",
"506 -164 CURVE SMOOTH",
"588 -164 OFFCURVE",
"628 -127 OFFCURVE",
"628 -53 CURVE SMOOTH",
"628 -42 OFFCURVE",
"628 -35 OFFCURVE",
"627 -30 CURVE",
"583 -30 LINE",
"583 -42 LINE SMOOTH",
"583 -93 OFFCURVE",
"558 -118 OFFCURVE",
"507 -118 CURVE SMOOTH",
"463 -118 OFFCURVE",
"441 -103 OFFCURVE",
"441 -73 CURVE SMOOTH",
"441 -61 OFFCURVE",
"452 -49 OFFCURVE",
"472 -38 CURVE",
"439 25 LINE"
);
}
);
width = 648;
}
);
},
{
glyphname = uni0DA00DCA;
lastChange = "2017-09-18 08:47:20 +0000";
layers = (
{
layerId = "902E803C-EB75-4CF8-B2E0-AD6A3AB6F03E";
paths = (
{
closed = 1;
nodes = (
"17 344 LINE",
"18 304 LINE",
"62 304 LINE",
"39 281 OFFCURVE",
"28 247 OFFCURVE",
"28 200 CURVE SMOOTH",
"28 76 OFFCURVE",
"116 0 OFFCURVE",
"242 0 CURVE SMOOTH",
"272 0 OFFCURVE",
"295 1 OFFCURVE",
"311 3 CURVE SMOOTH",
"428 17 OFFCURVE",
"511 142 OFFCURVE",
"511 263 CURVE SMOOTH",
"512 277 OFFCURVE",
"512 291 OFFCURVE",
"512 303 CURVE SMOOTH",
"512 351 OFFCURVE",
"504 384 OFFCURVE",
"497 405 CURVE SMOOTH",
"460 520 OFFCURVE",
"353 583 OFFCURVE",
"205 583 CURVE SMOOTH",
"128 583 LINE SMOOTH",
"112 583 OFFCURVE",
"86 612 OFFCURVE",
"86 631 CURVE SMOOTH",
"86 633 OFFCURVE",
"86 635 OFFCURVE",
"86 637 CURVE SMOOTH",
"90 686 OFFCURVE",
"142 690 OFFCURVE",
"183 697 CURVE",
"190 696 OFFCURVE",
"201 697 OFFCURVE",
"213 697 CURVE SMOOTH",
"225 698 OFFCURVE",
"239 698 OFFCURVE",
"255 698 CURVE SMOOTH",
"286 698 OFFCURVE",
"324 696 OFFCURVE",
"365 687 CURVE SMOOTH",
"411 676 OFFCURVE",
"436 662 OFFCURVE",
"448 620 CURVE",
"450 579 LINE",
"493 580 LINE",
"490 628 LINE",
"487 637 OFFCURVE",
"485 644 OFFCURVE",
"484 648 CURVE SMOOTH",
"482 657 OFFCURVE",
"479 662 OFFCURVE",
"471 670 CURVE SMOOTH",
"455 688 LINE",
"449 691 OFFCURVE",
"444 695 OFFCURVE",
"439 698 CURVE",
"435 702 OFFCURVE",
"428 705 OFFCURVE",
"420 708 CURVE SMOOTH",
"405 715 OFFCURVE",
"380 722 OFFCURVE",
"333 728 CURVE SMOOTH",
"302 731 OFFCURVE",
"267 733 OFFCURVE",
"234 733 CURVE SMOOTH",
"201 732 OFFCURVE",
"169 730 OFFCURVE",
"146 728 CURVE SMOOTH",
"140 728 OFFCURVE",
"127 724 OFFCURVE",
"112 718 CURVE SMOOTH",
"87 705 OFFCURVE",
"46 682 OFFCURVE",
"46 646 CURVE SMOOTH",
"46 643 OFFCURVE",
"46 641 OFFCURVE",
"46 638 CURVE SMOOTH",
"46 604 OFFCURVE",
"55 598 OFFCURVE",
"74 583 CURVE",
"19 583 LINE",
"19 541 LINE",
"212 542 LINE",
"400 536 OFFCURVE",
"470 419 OFFCURVE",
"470 308 CURVE SMOOTH",
"470 158 OFFCURVE",
"407 41 OFFCURVE",
"274 41 CURVE SMOOTH",
"159 41 OFFCURVE",
"70 82 OFFCURVE",
"70 188 CURVE SMOOTH",
"70 271 OFFCURVE",
"101 304 OFFCURVE",
"184 304 CURVE SMOOTH",
"332 304 LINE",
"333 318 OFFCURVE",
"333 328 OFFCURVE",
"333 332 CURVE SMOOTH",
"333 418 OFFCURVE",
"271 468 OFFCURVE",
"184 468 CURVE SMOOTH",
"112 468 OFFCURVE",
"54 432 OFFCURVE",
"54 363 CURVE",
"55 344 LINE"
);
},
{
closed = 1;
nodes = (
"102 345 LINE",
"102 357 LINE SMOOTH",
"102 403 OFFCURVE",
"132 426 OFFCURVE",
"192 426 CURVE SMOOTH",
"241 426 OFFCURVE",
"284 394 OFFCURVE",
"284 345 CURVE"
);
}
);
width = 533;
}
);
},
{
glyphname = uni0DA00DD2;
lastChange = "2017-09-18 08:47:20 +0000";
layers = (
{
layerId = "902E803C-EB75-4CF8-B2E0-AD6A3AB6F03E";
paths = (
{
closed = 1;
nodes = (
"17 344 LINE",
"18 304 LINE",
"62 304 LINE",
"39 281 OFFCURVE",
"28 247 OFFCURVE",
"28 200 CURVE SMOOTH",
"28 76 OFFCURVE",
"116 0 OFFCURVE",
"242 0 CURVE SMOOTH",
"272 0 OFFCURVE",
"295 1 OFFCURVE",
"311 3 CURVE SMOOTH",
"428 17 OFFCURVE",
"511 142 OFFCURVE",
"511 263 CURVE SMOOTH",
"512 277 OFFCURVE",
"512 291 OFFCURVE",
"512 303 CURVE SMOOTH",
"512 351 OFFCURVE",
"504 384 OFFCURVE",
"497 405 CURVE SMOOTH",
"460 520 OFFCURVE",
"353 583 OFFCURVE",
"205 583 CURVE",
"118 588 LINE",
"101 585 OFFCURVE",
"77 604 OFFCURVE",
"77 624 CURVE SMOOTH",
"77 626 OFFCURVE",
"78 628 OFFCURVE",
"78 631 CURVE SMOOTH",
"78 634 OFFCURVE",
"77 636 OFFCURVE",
"77 639 CURVE SMOOTH",
"77 680 OFFCURVE",
"150 690 OFFCURVE",
"183 697 CURVE",
"190 696 OFFCURVE",
"201 697 OFFCURVE",
"213 697 CURVE SMOOTH",
"225 698 OFFCURVE",
"239 698 OFFCURVE",
"255 698 CURVE SMOOTH",
"286 698 OFFCURVE",
"324 696 OFFCURVE",
"365 687 CURVE SMOOTH",
"411 676 OFFCURVE",
"436 662 OFFCURVE",
"448 620 CURVE",
"450 579 LINE",
"493 580 LINE",
"490 628 LINE",
"487 637 OFFCURVE",
"485 644 OFFCURVE",
"484 648 CURVE SMOOTH",
"482 657 OFFCURVE",
"479 662 OFFCURVE",
"471 670 CURVE SMOOTH",
"455 688 LINE",
"449 691 OFFCURVE",
"444 695 OFFCURVE",
"439 698 CURVE",
"435 702 OFFCURVE",
"428 705 OFFCURVE",
"420 708 CURVE SMOOTH",
"405 715 OFFCURVE",
"380 722 OFFCURVE",
"333 728 CURVE SMOOTH",
"302 731 OFFCURVE",
"267 733 OFFCURVE",
"234 733 CURVE SMOOTH",
"201 732 OFFCURVE",
"169 730 OFFCURVE",
"146 728 CURVE SMOOTH",
"90 724 OFFCURVE",
"35 689 OFFCURVE",
"33 630 CURVE SMOOTH",
"33 583 OFFCURVE",
"39 575 OFFCURVE",
"69 554 CURVE",
"104 545 LINE",
"212 542 LINE SMOOTH",
"400 536 OFFCURVE",
"470 419 OFFCURVE",
"470 308 CURVE SMOOTH",
"470 158 OFFCURVE",
"407 41 OFFCURVE",
"274 41 CURVE SMOOTH",
"159 41 OFFCURVE",
"70 82 OFFCURVE",
"70 188 CURVE SMOOTH",
"70 271 OFFCURVE",
"101 304 OFFCURVE",
"184 304 CURVE SMOOTH",
"332 304 LINE",
"333 318 OFFCURVE",
"333 328 OFFCURVE",
"333 332 CURVE SMOOTH",
"333 418 OFFCURVE",
"271 468 OFFCURVE",
"184 468 CURVE SMOOTH",
"112 468 OFFCURVE",
"54 432 OFFCURVE",
"54 363 CURVE",
"55 344 LINE"
);
},
{
closed = 1;
nodes = (
"102 345 LINE",
"102 357 LINE SMOOTH",
"102 403 OFFCURVE",
"132 426 OFFCURVE",
"192 426 CURVE SMOOTH",
"241 426 OFFCURVE",
"284 394 OFFCURVE",
"284 345 CURVE"
);
}
);
width = 533;
}
);
},
{
glyphname = uni0DA00DD3;
lastChange = "2017-09-18 08:47:20 +0000";
layers = (
{
layerId = "902E803C-EB75-4CF8-B2E0-AD6A3AB6F03E";
paths = (
{
closed = 1;
nodes = (
"17 344 LINE",
"18 304 LINE",
"62 304 LINE",
"39 281 OFFCURVE",
"28 247 OFFCURVE",
"28 200 CURVE SMOOTH",
"28 76 OFFCURVE",
"116 0 OFFCURVE",
"242 0 CURVE SMOOTH",
"272 0 OFFCURVE",
"295 1 OFFCURVE",
"311 3 CURVE SMOOTH",
"428 17 OFFCURVE",
"511 142 OFFCURVE",
"511 263 CURVE SMOOTH",
"512 277 OFFCURVE",
"512 291 OFFCURVE",
"512 303 CURVE SMOOTH",
"512 351 OFFCURVE",
"504 384 OFFCURVE",
"497 405 CURVE SMOOTH",
"460 520 OFFCURVE",
"353 583 OFFCURVE",
"205 583 CURVE",
"118 588 LINE",
"115 587 OFFCURVE",
"110 587 OFFCURVE",
"105 587 CURVE SMOOTH",
"99 587 OFFCURVE",
"93 588 OFFCURVE",
"88 591 CURVE",
"76 595 OFFCURVE",
"67 606 OFFCURVE",
"67 630 CURVE SMOOTH",
"67 677 OFFCURVE",
"144 688 OFFCURVE",
"183 697 CURVE",
"190 696 OFFCURVE",
"201 697 OFFCURVE",
"213 697 CURVE SMOOTH",
"225 698 OFFCURVE",
"239 698 OFFCURVE",
"255 698 CURVE SMOOTH",
"304 698 OFFCURVE",
"390 689 OFFCURVE",
"423 665 CURVE SMOOTH",
"436 655 OFFCURVE",
"448 638 OFFCURVE",
"448 618 CURVE SMOOTH",
"448 603 OFFCURVE",
"434 586 OFFCURVE",
"413 586 CURVE SMOOTH",
"400 586 OFFCURVE",
"382 591 OFFCURVE",
"365 606 CURVE SMOOTH",
"351 617 OFFCURVE",
"347 630 OFFCURVE",
"347 644 CURVE SMOOTH",
"347 657 OFFCURVE",
"351 670 OFFCURVE",
"357 683 CURVE",
"320 689 LINE",
"319 686 OFFCURVE",
"317 682 OFFCURVE",
"316 679 CURVE SMOOTH",
"312 669 LINE SMOOTH",
"309 662 OFFCURVE",
"308 652 OFFCURVE",
"308 634 CURVE SMOOTH",
"310 586 OFFCURVE",
"342 570 OFFCURVE",
"378 557 CURVE SMOOTH",
"392 553 OFFCURVE",
"405 551 OFFCURVE",
"418 551 CURVE SMOOTH",
"459 551 OFFCURVE",
"492 570 OFFCURVE",
"492 611 CURVE SMOOTH",
"492 617 OFFCURVE",
"491 623 OFFCURVE",
"490 628 CURVE SMOOTH",
"487 637 OFFCURVE",
"485 644 OFFCURVE",
"484 648 CURVE SMOOTH",
"482 657 OFFCURVE",
"479 662 OFFCURVE",
"471 670 CURVE SMOOTH",
"455 688 LINE",
"449 691 OFFCURVE",
"444 695 OFFCURVE",
"439 698 CURVE",
"435 702 OFFCURVE",
"428 705 OFFCURVE",
"420 708 CURVE SMOOTH",
"405 715 OFFCURVE",
"380 722 OFFCURVE",
"333 728 CURVE SMOOTH",
"302 731 OFFCURVE",
"267 733 OFFCURVE",
"234 733 CURVE SMOOTH",
"201 732 OFFCURVE",
"169 730 OFFCURVE",
"146 728 CURVE SMOOTH",
"90 724 OFFCURVE",
"35 689 OFFCURVE",
"33 630 CURVE SMOOTH",
"33 583 OFFCURVE",
"39 575 OFFCURVE",
"69 554 CURVE",
"104 545 LINE",
"212 542 LINE SMOOTH",
"400 536 OFFCURVE",
"470 419 OFFCURVE",
"470 308 CURVE SMOOTH",
"470 158 OFFCURVE",
"407 41 OFFCURVE",
"274 41 CURVE SMOOTH",
"159 41 OFFCURVE",
"70 82 OFFCURVE",
"70 188 CURVE SMOOTH",
"70 271 OFFCURVE",
"101 304 OFFCURVE",
"184 304 CURVE SMOOTH",
"332 304 LINE",
"333 318 OFFCURVE",
"333 328 OFFCURVE",
"333 332 CURVE SMOOTH",
"333 418 OFFCURVE",
"271 468 OFFCURVE",
"184 468 CURVE SMOOTH",
"112 468 OFFCURVE",
"54 432 OFFCURVE",
"54 363 CURVE",
"55 344 LINE"
);
},
{
closed = 1;
nodes = (
"102 345 LINE",
"102 357 LINE SMOOTH",
"102 403 OFFCURVE",
"132 426 OFFCURVE",
"192 426 CURVE SMOOTH",
"241 426 OFFCURVE",
"284 394 OFFCURVE",
"284 345 CURVE"
);
}
);
width = 533;
}
);
},
{
glyphname = uni0DA10DCA;
lastChange = "2017-09-18 08:47:20 +0000";
layers = (
{
layerId = "902E803C-EB75-4CF8-B2E0-AD6A3AB6F03E";
paths = (
{
closed = 1;
nodes = (
"13 221 CURVE SMOOTH",
"13 126 OFFCURVE",
"56 48 OFFCURVE",
"140 17 CURVE",
"163 9 LINE",
"182 6 LINE SMOOTH",
"216 0 OFFCURVE",
"237 -1 OFFCURVE",
"246 -1 CURVE SMOOTH",
"299 3 LINE",
"344 13 LINE SMOOTH",
"426 32 OFFCURVE",
"476 128 OFFCURVE",
"482 170 CURVE SMOOTH",
"484 188 OFFCURVE",
"488 204 OFFCURVE",
"489 215 CURVE SMOOTH",
"490 241 LINE SMOOTH",
"490 243 OFFCURVE",
"490 244 OFFCURVE",
"490 246 CURVE SMOOTH",
"490 292 OFFCURVE",
"470 345 OFFCURVE",
"455 364 CURVE",
"462 378 OFFCURVE",
"468 393 OFFCURVE",
"466 410 CURVE SMOOTH",
"463 436 LINE",
"457 455 LINE",
"445 472 LINE",
"476 505 OFFCURVE",
"508 537 OFFCURVE",
"540 568 CURVE",
"488 568 LINE",
"414 495 LINE",
"402 500 OFFCURVE",
"390 502 OFFCURVE",
"377 503 CURVE SMOOTH",
"344 506 LINE",
"303 506 OFFCURVE",
"260 474 OFFCURVE",
"253 435 CURVE",
"243 492 OFFCURVE",
"202 506 OFFCURVE",
"135 506 CURVE SMOOTH",
"94 506 OFFCURVE",
"39 462 OFFCURVE",
"39 407 CURVE SMOOTH",
"39 405 OFFCURVE",
"39 403 OFFCURVE",
"39 401 CURVE SMOOTH",
"40 386 LINE",
"78 388 LINE",
"78 406 OFFCURVE",
"81 421 OFFCURVE",
"87 433 CURVE SMOOTH",
"94 445 OFFCURVE",
"104 453 OFFCURVE",
"114 457 CURVE SMOOTH",
"123 461 OFFCURVE",
"129 464 OFFCURVE",
"133 464 CURVE SMOOTH",
"158 465 LINE",
"170 464 LINE SMOOTH",
"192 462 OFFCURVE",
"205 452 OFFCURVE",
"212 433 CURVE SMOOTH",
"216 423 OFFCURVE",
"220 410 OFFCURVE",
"220 393 CURVE",
"138 393 LINE",
"104 387 LINE SMOOTH",
"92 384 OFFCURVE",
"78 376 OFFCURVE",
"63 366 CURVE SMOOTH",
"30 344 OFFCURVE",
"13 295 OFFCURVE"
);
},
{
closed = 1;
nodes = (
"52 226 CURVE SMOOTH",
"52 241 LINE",
"58 278 LINE SMOOTH",
"64 315 OFFCURVE",
"90 358 OFFCURVE",
"166 358 CURVE SMOOTH",
"243 358 LINE",
"249 341 LINE",
"265 318 LINE",
"290 298 OFFCURVE",
"314 288 OFFCURVE",
"336 288 CURVE SMOOTH",
"337 288 OFFCURVE",
"338 288 OFFCURVE",
"339 288 CURVE SMOOTH",
"364 289 LINE",
"393 297 LINE",
"410 303 OFFCURVE",
"423 313 OFFCURVE",
"433 327 CURVE",
"443 311 OFFCURVE",
"449 296 OFFCURVE",
"449 282 CURVE SMOOTH",
"452 227 LINE SMOOTH",
"452 224 OFFCURVE",
"452 220 OFFCURVE",
"452 217 CURVE SMOOTH",
"452 197 OFFCURVE",
"447 175 OFFCURVE",
"438 152 CURVE SMOOTH",
"415 99 OFFCURVE",
"362 49 OFFCURVE",
"289 43 CURVE SMOOTH",
"283 42 OFFCURVE",
"275 41 OFFCURVE",
"265 41 CURVE SMOOTH",
"248 41 LINE SMOOTH",
"208 41 OFFCURVE",
"173 45 OFFCURVE",
"143 58 CURVE SMOOTH",
"81 85 OFFCURVE",
"52 144 OFFCURVE"
);
},
{
closed = 1;
nodes = (
"281 393 CURVE SMOOTH",
"281 432 OFFCURVE",
"310 467 OFFCURVE",
"348 467 CURVE SMOOTH",
"382 467 OFFCURVE",
"403 457 OFFCURVE",
"414 442 CURVE SMOOTH",
"419 434 OFFCURVE",
"424 429 OFFCURVE",
"424 424 CURVE",
"425 421 OFFCURVE",
"426 415 OFFCURVE",
"426 405 CURVE SMOOTH",
"426 352 OFFCURVE",
"393 325 OFFCURVE",
"339 325 CURVE SMOOTH",
"300 325 OFFCURVE",
"281 348 OFFCURVE"
);
},
{
closed = 1;
nodes = (
"371 683 LINE",
"375 506 LINE",
"417 505 LINE",
"416 683 LINE"
);
}
);
width = 518;
}
);
},
{
glyphname = uni0DA20DCA;
lastChange = "2017-09-19 18:27:15 +0000";
layers = (
{
components = (
{
name = sinJa;
transform = "{1, 0, 0, 1, 10, 0}";
}
);
layerId = "902E803C-EB75-4CF8-B2E0-AD6A3AB6F03E";
paths = (
{
closed = 1;
nodes = (
"344 685 LINE",
"344 498 LINE",
"379 497 LINE",
"379 685 LINE"
);
}
);
width = 529;
}
);
},
{
glyphname = uni0DA40DCF;
lastChange = "2017-09-18 08:47:20 +0000";
layers = (
{
layerId = "902E803C-EB75-4CF8-B2E0-AD6A3AB6F03E";
paths = (
{
closed = 1;
nodes = (
"22 198 LINE",
"41 198 LINE",
"30 181 OFFCURVE",
"25 158 OFFCURVE",
"25 128 CURVE SMOOTH",
"25 102 OFFCURVE",
"27 77 OFFCURVE",
"38 56 CURVE SMOOTH",
"57 17 OFFCURVE",
"89 -1 OFFCURVE",
"128 -1 CURVE SMOOTH",
"175 -1 OFFCURVE",
"204 16 OFFCURVE",
"214 51 CURVE",
"218 41 OFFCURVE",
"222 33 OFFCURVE",
"226 29 CURVE SMOOTH",
"249 10 LINE SMOOTH",
"260 2 OFFCURVE",
"276 -1 OFFCURVE",
"296 -1 CURVE SMOOTH",
"362 -1 OFFCURVE",
"409 44 OFFCURVE",
"422 104 CURVE",
"429 145 LINE",
"431 167 LINE",
"431 180 LINE SMOOTH",
"431 278 OFFCURVE",
"390 369 OFFCURVE",
"312 385 CURVE SMOOTH",
"300 387 OFFCURVE",
"286 392 OFFCURVE",
"270 392 CURVE SMOOTH",
"237 393 LINE",
"238 417 LINE",
"257 443 OFFCURVE",
"298 459 OFFCURVE",
"317 461 CURVE SMOOTH",
"348 464 LINE",
"376 465 LINE SMOOTH",
"378 465 OFFCURVE",
"380 465 OFFCURVE",
"383 465 CURVE SMOOTH",
"441 465 OFFCURVE",
"493 438 OFFCURVE",
"528 356 CURVE SMOOTH",
"537 334 OFFCURVE",
"542 314 OFFCURVE",
"545 292 CURVE SMOOTH",
"549 265 LINE",
"549 228 LINE SMOOTH",
"549 160 OFFCURVE",
"506 75 OFFCURVE",
"462 43 CURVE",
"445 39 OFFCURVE",
"428 35 OFFCURVE",
"410 30 CURVE SMOOTH",
"372 20 OFFCURVE",
"348 -27 OFFCURVE",
"348 -71 CURVE SMOOTH",
"348 -139 OFFCURVE",
"399 -180 OFFCURVE",
"469 -180 CURVE SMOOTH",
"557 -180 OFFCURVE",
"600 -125 OFFCURVE",
"600 -15 CURVE",
"552 -15 LINE",
"552 -27 LINE SMOOTH",
"552 -98 OFFCURVE",
"525 -134 OFFCURVE",
"470 -134 CURVE SMOOTH",
"429 -134 OFFCURVE",
"396 -110 OFFCURVE",
"396 -71 CURVE SMOOTH",
"396 -30 OFFCURVE",
"422 -1 OFFCURVE",
"462 -1 CURVE",
"533 41 OFFCURVE",
"574 101 OFFCURVE",
"585 178 CURVE SMOOTH",
"587 191 OFFCURVE",
"588 213 OFFCURVE",
"588 243 CURVE SMOOTH",
"588 272 LINE",
"583 315 LINE",
"568 378 LINE SMOOTH",
"548 462 OFFCURVE",
"469 507 OFFCURVE",
"378 507 CURVE SMOOTH",
"316 507 OFFCURVE",
"268 490 OFFCURVE",
"235 456 CURVE",
"225 490 OFFCURVE",
"195 507 OFFCURVE",
"146 507 CURVE SMOOTH",
"113 507 OFFCURVE",
"74 485 OFFCURVE",
"63 457 CURVE SMOOTH",
"59 447 OFFCURVE",
"53 436 OFFCURVE",
"52 423 CURVE SMOOTH",
"50 394 LINE",
"50 357 LINE",
"51 348 LINE",
"92 348 LINE",
"91 355 LINE",
"91 367 LINE",
"92 394 LINE",
"97 423 LINE SMOOTH",
"100 437 OFFCURVE",
"106 448 OFFCURVE",
"115 455 CURVE SMOOTH",
"123 462 OFFCURVE",
"134 466 OFFCURVE",
"149 466 CURVE SMOOTH",
"169 466 OFFCURVE",
"193 455 OFFCURVE",
"193 437 CURVE SMOOTH",
"192 405 LINE",
"22 247 LINE"
);
},
{
closed = 1;
nodes = (
"59 235 LINE",
"193 356 LINE",
"215 355 LINE",
"282 355 LINE",
"334 345 OFFCURVE",
"366 312 OFFCURVE",
"378 256 CURVE SMOOTH",
"387 211 LINE",
"389 191 LINE",
"389 180 LINE SMOOTH",
"389 122 OFFCURVE",
"370 68 OFFCURVE",
"334 50 CURVE SMOOTH",
"322 44 OFFCURVE",
"311 39 OFFCURVE",
"301 41 CURVE SMOOTH",
"273 46 LINE",
"254 53 OFFCURVE",
"238 72 OFFCURVE",
"235 101 CURVE SMOOTH",
"231 136 LINE",
"231 213 LINE",
"190 213 LINE",
"188 97 LINE SMOOTH",
"188 66 OFFCURVE",
"165 41 OFFCURVE",
"135 41 CURVE SMOOTH",
"120 41 OFFCURVE",
"106 46 OFFCURVE",
"95 54 CURVE SMOOTH",
"83 63 OFFCURVE",
"76 73 OFFCURVE",
"74 86 CURVE SMOOTH",
"70 115 LINE",
"69 131 LINE",
"70 153 LINE",
"72 169 LINE",
"78 184 LINE",
"88 202 LINE",
"89 218 LINE",
"88 235 LINE"
);
}
);
width = 600;
}
);
},
{
glyphname = uni0DA40DD4;
lastChange = "2017-09-18 08:47:20 +0000";
layers = (
{
layerId = "902E803C-EB75-4CF8-B2E0-AD6A3AB6F03E";
paths = (
{
closed = 1;
nodes = (
"4 358 CURVE SMOOTH",
"4 326 OFFCURVE",
"11 280 OFFCURVE",
"29 269 CURVE",
"38 279 OFFCURVE",
"44 286 OFFCURVE",
"50 292 CURVE SMOOTH",
"55 296 OFFCURVE",
"59 300 OFFCURVE",
"62 303 CURVE SMOOTH",
"65 305 OFFCURVE",
"67 307 OFFCURVE",
"67 308 CURVE",
"68 308 OFFCURVE",
"68 309 OFFCURVE",
"66 311 CURVE SMOOTH",
"49 327 OFFCURVE",
"42 346 OFFCURVE",
"38 362 CURVE SMOOTH",
"36 370 OFFCURVE",
"36 377 OFFCURVE",
"36 383 CURVE SMOOTH",
"36 397 LINE",
"52 455 LINE SMOOTH",
"52 456 OFFCURVE",
"52 458 OFFCURVE",
"54 460 CURVE",
"56 466 OFFCURVE",
"58 473 OFFCURVE",
"58 477 CURVE SMOOTH",
"58 478 OFFCURVE",
"57 479 OFFCURVE",
"54 478 CURVE SMOOTH",
"19 463 OFFCURVE",
"4 410 OFFCURVE"
);
},
{
closed = 1;
nodes = (
"22 198 LINE",
"41 198 LINE",
"30 181 OFFCURVE",
"25 158 OFFCURVE",
"25 128 CURVE SMOOTH",
"25 102 OFFCURVE",
"27 77 OFFCURVE",
"38 56 CURVE SMOOTH",
"57 17 OFFCURVE",
"89 -1 OFFCURVE",
"128 -1 CURVE SMOOTH",
"175 -1 OFFCURVE",
"204 16 OFFCURVE",
"214 51 CURVE",
"218 41 OFFCURVE",
"222 33 OFFCURVE",
"226 29 CURVE SMOOTH",
"249 10 LINE SMOOTH",
"260 2 OFFCURVE",
"276 -1 OFFCURVE",
"296 -1 CURVE SMOOTH",
"362 -1 OFFCURVE",
"409 44 OFFCURVE",
"422 104 CURVE",
"429 145 LINE",
"431 167 LINE",
"431 180 LINE SMOOTH",
"431 278 OFFCURVE",
"390 369 OFFCURVE",
"312 385 CURVE SMOOTH",
"300 387 OFFCURVE",
"286 392 OFFCURVE",
"270 392 CURVE SMOOTH",
"237 393 LINE",
"238 405 LINE",
"259 437 OFFCURVE",
"308 461 OFFCURVE",
"348 464 CURVE SMOOTH",
"382 466 LINE SMOOTH",
"385 466 OFFCURVE",
"387 466 OFFCURVE",
"390 466 CURVE SMOOTH",
"442 466 OFFCURVE",
"488 439 OFFCURVE",
"494 409 CURVE SMOOTH",
"497 393 LINE",
"535 393 LINE",
"535 404 OFFCURVE",
"539 414 OFFCURVE",
"544 424 CURVE SMOOTH",
"550 435 OFFCURVE",
"556 443 OFFCURVE",
"565 447 CURVE",
"574 454 OFFCURVE",
"587 457 OFFCURVE",
"603 460 CURVE SMOOTH",
"618 462 OFFCURVE",
"641 465 OFFCURVE",
"674 465 CURVE SMOOTH",
"698 465 OFFCURVE",
"714 464 OFFCURVE",
"721 462 CURVE SMOOTH",
"755 453 LINE SMOOTH",
"783 446 OFFCURVE",
"797 426 OFFCURVE",
"797 393 CURVE",
"643 393 LINE SMOOTH",
"514 393 OFFCURVE",
"461 297 OFFCURVE",
"461 208 CURVE SMOOTH",
"461 206 OFFCURVE",
"461 203 OFFCURVE",
"461 201 CURVE SMOOTH",
"462 175 LINE",
"467 132 LINE",
"477 88 OFFCURVE",
"500 54 OFFCURVE",
"539 27 CURVE",
"575 9 LINE",
"593 3 LINE SMOOTH",
"597 1 OFFCURVE",
"602 1 OFFCURVE",
"608 1 CURVE SMOOTH",
"626 0 OFFCURVE",
"643 -1 OFFCURVE",
"657 -1 CURVE SMOOTH",
"717 1 LINE",
"768 7 LINE SMOOTH",
"797 10 OFFCURVE",
"820 18 OFFCURVE",
"839 29 CURVE",
"839 74 LINE",
"816 56 OFFCURVE",
"750 42 OFFCURVE",
"712 42 CURVE SMOOTH",
"711 42 OFFCURVE",
"709 42 OFFCURVE",
"708 42 CURVE SMOOTH",
"653 44 LINE SMOOTH",
"623 45 OFFCURVE",
"596 51 OFFCURVE",
"572 62 CURVE SMOOTH",
"530 81 OFFCURVE",
"512 157 OFFCURVE",
"512 218 CURVE SMOOTH",
"512 325 OFFCURVE",
"576 352 OFFCURVE",
"693 352 CURVE SMOOTH",
"841 352 LINE",
"841 370 OFFCURVE",
"840 383 OFFCURVE",
"840 390 CURVE SMOOTH",
"831 477 OFFCURVE",
"776 507 OFFCURVE",
"670 507 CURVE SMOOTH",
"589 507 OFFCURVE",
"539 490 OFFCURVE",
"518 457 CURVE",
"487 490 OFFCURVE",
"441 507 OFFCURVE",
"378 507 CURVE SMOOTH",
"316 507 OFFCURVE",
"268 490 OFFCURVE",
"235 456 CURVE",
"225 490 OFFCURVE",
"195 507 OFFCURVE",
"146 507 CURVE SMOOTH",
"113 507 OFFCURVE",
"74 485 OFFCURVE",
"63 457 CURVE SMOOTH",
"59 447 OFFCURVE",
"53 436 OFFCURVE",
"52 423 CURVE SMOOTH",
"50 394 LINE",
"50 357 LINE",
"51 348 LINE",
"92 348 LINE",
"91 355 LINE",
"91 367 LINE",
"92 394 LINE",
"97 423 LINE SMOOTH",
"100 437 OFFCURVE",
"106 448 OFFCURVE",
"115 455 CURVE SMOOTH",
"123 462 OFFCURVE",
"134 466 OFFCURVE",
"149 466 CURVE SMOOTH",
"169 466 OFFCURVE",
"193 455 OFFCURVE",
"193 437 CURVE SMOOTH",
"192 405 LINE",
"22 247 LINE"
);
},
{
closed = 1;
nodes = (
"59 235 LINE",
"193 356 LINE",
"215 355 LINE",
"282 355 LINE",
"334 345 OFFCURVE",
"366 312 OFFCURVE",
"378 256 CURVE SMOOTH",
"387 211 LINE",
"389 191 LINE",
"389 180 LINE SMOOTH",
"389 122 OFFCURVE",
"370 68 OFFCURVE",
"334 50 CURVE SMOOTH",
"322 44 OFFCURVE",
"311 39 OFFCURVE",
"301 41 CURVE SMOOTH",
"273 46 LINE",
"254 53 OFFCURVE",
"238 72 OFFCURVE",
"235 101 CURVE SMOOTH",
"231 136 LINE",
"231 213 LINE",
"190 213 LINE",
"188 97 LINE SMOOTH",
"188 66 OFFCURVE",
"165 41 OFFCURVE",
"135 41 CURVE SMOOTH",
"120 41 OFFCURVE",
"106 46 OFFCURVE",
"95 54 CURVE SMOOTH",
"83 63 OFFCURVE",
"76 73 OFFCURVE",
"74 86 CURVE SMOOTH",
"70 115 LINE",
"69 131 LINE",
"70 153 LINE",
"72 169 LINE",
"78 184 LINE",
"88 202 LINE",
"89 218 LINE",
"88 235 LINE"
);
},
{
closed = 1;
nodes = (
"428 -124 LINE",
"428 -167 LINE",
"836 -167 LINE",
"837 23 LINE",
"794 10 LINE",
"794 -125 LINE"
);
}
);
width = 868;
}
);
},
{
glyphname = uni0DA40DD6;
lastChange = "2017-09-18 08:47:20 +0000";
layers = (
{
layerId = "902E803C-EB75-4CF8-B2E0-AD6A3AB6F03E";
paths = (
{
closed = 1;
nodes = (
"4 358 CURVE SMOOTH",
"4 326 OFFCURVE",
"11 280 OFFCURVE",
"29 269 CURVE",
"38 279 OFFCURVE",
"44 286 OFFCURVE",
"50 292 CURVE SMOOTH",
"55 296 OFFCURVE",
"59 300 OFFCURVE",
"62 303 CURVE SMOOTH",
"65 305 OFFCURVE",
"67 307 OFFCURVE",
"67 308 CURVE",
"68 308 OFFCURVE",
"68 309 OFFCURVE",
"66 311 CURVE SMOOTH",
"49 327 OFFCURVE",
"42 346 OFFCURVE",
"38 362 CURVE SMOOTH",
"36 370 OFFCURVE",
"36 377 OFFCURVE",
"36 383 CURVE SMOOTH",
"36 397 LINE",
"52 455 LINE SMOOTH",
"52 456 OFFCURVE",
"52 458 OFFCURVE",
"54 460 CURVE",
"56 466 OFFCURVE",
"58 473 OFFCURVE",
"58 477 CURVE SMOOTH",
"58 478 OFFCURVE",
"57 479 OFFCURVE",
"54 478 CURVE SMOOTH",
"19 463 OFFCURVE",
"4 410 OFFCURVE"
);
},
{
closed = 1;
nodes = (
"22 198 LINE",
"41 198 LINE",
"30 181 OFFCURVE",
"25 158 OFFCURVE",
"25 128 CURVE SMOOTH",
"25 102 OFFCURVE",
"27 77 OFFCURVE",
"38 56 CURVE SMOOTH",
"57 17 OFFCURVE",
"89 -1 OFFCURVE",
"128 -1 CURVE SMOOTH",
"175 -1 OFFCURVE",
"204 16 OFFCURVE",
"214 51 CURVE",
"218 41 OFFCURVE",
"222 33 OFFCURVE",
"226 29 CURVE SMOOTH",
"249 10 LINE SMOOTH",
"260 2 OFFCURVE",
"276 -1 OFFCURVE",
"296 -1 CURVE SMOOTH",
"362 -1 OFFCURVE",
"409 44 OFFCURVE",
"422 104 CURVE",
"429 145 LINE",
"431 167 LINE",
"431 180 LINE SMOOTH",
"431 278 OFFCURVE",
"390 369 OFFCURVE",
"312 385 CURVE SMOOTH",
"300 387 OFFCURVE",
"286 392 OFFCURVE",
"270 392 CURVE SMOOTH",
"237 393 LINE",
"238 405 LINE",
"259 437 OFFCURVE",
"308 461 OFFCURVE",
"348 464 CURVE SMOOTH",
"382 466 LINE SMOOTH",
"385 466 OFFCURVE",
"387 466 OFFCURVE",
"390 466 CURVE SMOOTH",
"442 466 OFFCURVE",
"488 439 OFFCURVE",
"494 409 CURVE SMOOTH",
"497 393 LINE",
"535 393 LINE",
"535 404 OFFCURVE",
"539 414 OFFCURVE",
"544 424 CURVE SMOOTH",
"550 435 OFFCURVE",
"556 443 OFFCURVE",
"565 447 CURVE",
"574 454 OFFCURVE",
"587 457 OFFCURVE",
"603 460 CURVE SMOOTH",
"618 462 OFFCURVE",
"641 465 OFFCURVE",
"674 465 CURVE SMOOTH",
"698 465 OFFCURVE",
"714 464 OFFCURVE",
"721 462 CURVE SMOOTH",
"755 453 LINE SMOOTH",
"783 446 OFFCURVE",
"797 426 OFFCURVE",
"797 393 CURVE",
"643 393 LINE SMOOTH",
"514 393 OFFCURVE",
"461 297 OFFCURVE",
"461 208 CURVE SMOOTH",
"461 206 OFFCURVE",
"461 203 OFFCURVE",
"461 201 CURVE SMOOTH",
"462 175 LINE",
"467 132 LINE",
"477 88 OFFCURVE",
"500 54 OFFCURVE",
"539 27 CURVE",
"575 9 LINE",
"593 3 LINE SMOOTH",
"597 1 OFFCURVE",
"602 1 OFFCURVE",
"608 1 CURVE SMOOTH",
"626 0 OFFCURVE",
"643 -1 OFFCURVE",
"657 -1 CURVE SMOOTH",
"717 1 LINE",
"768 7 LINE SMOOTH",
"797 10 OFFCURVE",
"820 18 OFFCURVE",
"839 29 CURVE",
"839 74 LINE",
"816 56 OFFCURVE",
"750 42 OFFCURVE",
"712 42 CURVE SMOOTH",
"711 42 OFFCURVE",
"709 42 OFFCURVE",
"708 42 CURVE SMOOTH",
"653 44 LINE SMOOTH",
"623 45 OFFCURVE",
"596 51 OFFCURVE",
"572 62 CURVE SMOOTH",
"530 81 OFFCURVE",
"512 157 OFFCURVE",
"512 218 CURVE SMOOTH",
"512 325 OFFCURVE",
"576 352 OFFCURVE",
"693 352 CURVE SMOOTH",
"841 352 LINE",
"841 370 OFFCURVE",
"840 383 OFFCURVE",
"840 390 CURVE SMOOTH",
"831 477 OFFCURVE",
"776 507 OFFCURVE",
"670 507 CURVE SMOOTH",
"589 507 OFFCURVE",
"539 490 OFFCURVE",
"518 457 CURVE",
"487 490 OFFCURVE",
"441 507 OFFCURVE",
"378 507 CURVE SMOOTH",
"316 507 OFFCURVE",
"268 490 OFFCURVE",
"235 456 CURVE",
"225 490 OFFCURVE",
"195 507 OFFCURVE",
"146 507 CURVE SMOOTH",
"113 507 OFFCURVE",
"74 485 OFFCURVE",
"63 457 CURVE SMOOTH",
"59 447 OFFCURVE",
"53 436 OFFCURVE",
"52 423 CURVE SMOOTH",
"50 394 LINE",
"50 357 LINE",
"51 348 LINE",
"92 348 LINE",
"91 355 LINE",
"91 367 LINE",
"92 394 LINE",
"97 423 LINE SMOOTH",
"100 437 OFFCURVE",
"106 448 OFFCURVE",
"115 455 CURVE SMOOTH",
"123 462 OFFCURVE",
"134 466 OFFCURVE",
"149 466 CURVE SMOOTH",
"169 466 OFFCURVE",
"193 455 OFFCURVE",
"193 437 CURVE SMOOTH",
"192 405 LINE",
"22 247 LINE"
);
},
{
closed = 1;
nodes = (
"59 235 LINE",
"193 356 LINE",
"215 355 LINE",
"282 355 LINE",
"334 345 OFFCURVE",
"366 312 OFFCURVE",
"378 256 CURVE SMOOTH",
"387 211 LINE",
"389 191 LINE",
"389 180 LINE SMOOTH",
"389 122 OFFCURVE",
"370 68 OFFCURVE",
"334 50 CURVE SMOOTH",
"322 44 OFFCURVE",
"311 39 OFFCURVE",
"301 41 CURVE SMOOTH",
"273 46 LINE",
"254 53 OFFCURVE",
"238 72 OFFCURVE",
"235 101 CURVE SMOOTH",
"231 136 LINE",
"231 213 LINE",
"190 213 LINE",
"188 97 LINE SMOOTH",
"188 66 OFFCURVE",
"165 41 OFFCURVE",
"135 41 CURVE SMOOTH",
"120 41 OFFCURVE",
"106 46 OFFCURVE",
"95 54 CURVE SMOOTH",
"83 63 OFFCURVE",
"76 73 OFFCURVE",
"74 86 CURVE SMOOTH",
"70 115 LINE",
"69 131 LINE",
"70 153 LINE",
"72 169 LINE",
"78 184 LINE",
"88 202 LINE",
"89 218 LINE",
"88 235 LINE"
);
},
{
closed = 1;
nodes = (
"428 -167 LINE",
"523 -165 LINE",
"533 -163 OFFCURVE",
"541 -160 OFFCURVE",
"550 -156 CURVE SMOOTH",
"577 -145 LINE SMOOTH",
"588 -140 OFFCURVE",
"600 -136 OFFCURVE",
"612 -136 CURVE SMOOTH",
"619 -136 OFFCURVE",
"626 -138 OFFCURVE",
"634 -140 CURVE SMOOTH",
"737 -166 LINE",
"759 -166 OFFCURVE",
"779 -165 OFFCURVE",
"798 -165 CURVE SMOOTH",
"810 -165 OFFCURVE",
"823 -165 OFFCURVE",
"836 -167 CURVE",
"837 23 LINE",
"794 10 LINE",
"794 -125 LINE",
"791 -124 OFFCURVE",
"787 -124 OFFCURVE",
"783 -124 CURVE SMOOTH",
"776 -124 OFFCURVE",
"769 -125 OFFCURVE",
"762 -125 CURVE SMOOTH",
"756 -125 OFFCURVE",
"750 -126 OFFCURVE",
"744 -126 CURVE SMOOTH",
"738 -126 OFFCURVE",
"731 -125 OFFCURVE",
"725 -124 CURVE SMOOTH",
"637 -99 LINE SMOOTH",
"628 -96 OFFCURVE",
"620 -95 OFFCURVE",
"614 -95 CURVE SMOOTH",
"603 -95 OFFCURVE",
"594 -99 OFFCURVE",
"585 -104 CURVE SMOOTH",
"581 -106 OFFCURVE",
"575 -109 OFFCURVE",
"569 -112 CURVE SMOOTH",
"557 -118 OFFCURVE",
"541 -125 OFFCURVE",
"515 -125 CURVE SMOOTH",
"430 -126 LINE"
);
}
);
width = 868;
}
);
},
{
glyphname = uni0DA50DCF;
lastChange = "2017-09-18 08:47:20 +0000";
layers = (
{
layerId = "902E803C-EB75-4CF8-B2E0-AD6A3AB6F03E";
paths = (
{
closed = 1;
nodes = (
"13 233 CURVE SMOOTH",
"13 98 OFFCURVE",
"113 -1 OFFCURVE",
"248 -1 CURVE SMOOTH",
"327 -1 OFFCURVE",
"384 30 OFFCURVE",
"428 85 CURVE SMOOTH",
"460 125 OFFCURVE",
"481 187 OFFCURVE",
"481 280 CURVE SMOOTH",
"481 312 OFFCURVE",
"476 342 OFFCURVE",
"465 370 CURVE SMOOTH",
"427 466 OFFCURVE",
"375 490 OFFCURVE",
"296 506 CURVE",
"274 506 LINE",
"302 523 OFFCURVE",
"330 540 OFFCURVE",
"357 557 CURVE SMOOTH",
"379 571 OFFCURVE",
"393 596 OFFCURVE",
"398 632 CURVE",
"342 632 LINE",
"342 588 OFFCURVE",
"288 538 OFFCURVE",
"175 498 CURVE SMOOTH",
"67 460 OFFCURVE",
"13 357 OFFCURVE"
);
},
{
closed = 1;
nodes = (
"58 233 CURVE SMOOTH",
"58 390 OFFCURVE",
"125 468 OFFCURVE",
"258 468 CURVE SMOOTH",
"379 468 OFFCURVE",
"440 391 OFFCURVE",
"440 236 CURVE SMOOTH",
"440 126 OFFCURVE",
"356 42 OFFCURVE",
"246 42 CURVE SMOOTH",
"144 42 OFFCURVE",
"58 131 OFFCURVE"
);
},
{
closed = 1;
nodes = (
"499 135 CURVE SMOOTH",
"499 43 OFFCURVE",
"531 -2 OFFCURVE",
"595 -2 CURVE SMOOTH",
"678 -2 OFFCURVE",
"696 48 OFFCURVE",
"696 136 CURVE SMOOTH",
"696 148 LINE",
"691 146 OFFCURVE",
"678 146 OFFCURVE",
"657 146 CURVE",
"657 133 LINE SMOOTH",
"657 83 OFFCURVE",
"654 41 OFFCURVE",
"604 41 CURVE SMOOTH",
"563 41 OFFCURVE",
"542 72 OFFCURVE",
"542 134 CURVE SMOOTH",
"542 236 OFFCURVE",
"580 311 OFFCURVE",
"662 442 CURVE",
"662 480 LINE",
"517 480 LINE",
"517 441 LINE",
"611 441 LINE",
"536 326 OFFCURVE",
"499 224 OFFCURVE"
);
}
);
width = 711;
}
);
},
{
glyphname = uni0DA50DD4;
lastChange = "2017-09-18 08:47:20 +0000";
layers = (
{
layerId = "902E803C-EB75-4CF8-B2E0-AD6A3AB6F03E";
paths = (
{
closed = 1;
nodes = (
"22 319 CURVE SMOOTH",
"22 275 OFFCURVE",
"32 230 OFFCURVE",
"53 184 CURVE",
"86 183 LINE",
"99 83 OFFCURVE",
"163 0 OFFCURVE",
"258 0 CURVE SMOOTH",
"361 0 OFFCURVE",
"423 47 OFFCURVE",
"444 141 CURVE SMOOTH",
"448 161 OFFCURVE",
"450 180 OFFCURVE",
"450 196 CURVE SMOOTH",
"450 199 OFFCURVE",
"450 202 OFFCURVE",
"450 205 CURVE SMOOTH",
"448 238 LINE",
"443 267 LINE",
"436 289 OFFCURVE",
"428 303 OFFCURVE",
"420 309 CURVE SMOOTH",
"394 330 LINE SMOOTH",
"388 334 OFFCURVE",
"379 336 OFFCURVE",
"368 338 CURVE SMOOTH",
"343 341 LINE",
"299 339 LINE",
"306 370 OFFCURVE",
"312 389 OFFCURVE",
"314 396 CURVE SMOOTH",
"331 442 OFFCURVE",
"363 466 OFFCURVE",
"409 466 CURVE SMOOTH",
"460 466 OFFCURVE",
"494 435 OFFCURVE",
"498 393 CURVE",
"538 393 LINE",
"538 427 OFFCURVE",
"561 465 OFFCURVE",
"652 465 CURVE SMOOTH",
"658 465 OFFCURVE",
"665 465 OFFCURVE",
"671 465 CURVE SMOOTH",
"713 463 LINE",
"753 453 LINE",
"779 442 OFFCURVE",
"792 422 OFFCURVE",
"792 393 CURVE",
"640 393 LINE SMOOTH",
"511 393 OFFCURVE",
"458 303 OFFCURVE",
"458 215 CURVE SMOOTH",
"458 213 OFFCURVE",
"458 210 OFFCURVE",
"458 208 CURVE SMOOTH",
"459 182 LINE",
"464 139 LINE",
"476 92 OFFCURVE",
"508 43 OFFCURVE",
"538 28 CURVE SMOOTH",
"571 12 LINE",
"605 3 LINE",
"651 -1 LINE",
"749 6 LINE SMOOTH",
"784 8 OFFCURVE",
"813 16 OFFCURVE",
"836 29 CURVE",
"836 70 LINE",
"817 58 OFFCURVE",
"799 51 OFFCURVE",
"782 49 CURVE SMOOTH",
"740 43 LINE",
"704 42 LINE",
"690 40 LINE",
"664 40 LINE",
"620 43 LINE",
"603 46 OFFCURVE",
"585 52 OFFCURVE",
"569 59 CURVE SMOOTH",
"527 78 OFFCURVE",
"502 160 OFFCURVE",
"502 216 CURVE SMOOTH",
"502 253 OFFCURVE",
"510 284 OFFCURVE",
"530 306 CURVE SMOOTH",
"564 343 OFFCURVE",
"593 352 OFFCURVE",
"652 352 CURVE SMOOTH",
"838 353 LINE",
"837 391 LINE",
"832 420 LINE SMOOTH",
"830 433 OFFCURVE",
"822 447 OFFCURVE",
"810 462 CURVE SMOOTH",
"785 492 OFFCURVE",
"737 507 OFFCURVE",
"667 507 CURVE SMOOTH",
"593 507 OFFCURVE",
"542 492 OFFCURVE",
"515 461 CURVE",
"497 479 LINE",
"482 490 LINE",
"470 497 OFFCURVE",
"457 500 OFFCURVE",
"442 502 CURVE SMOOTH",
"424 504 LINE",
"406 504 LINE",
"365 500 LINE",
"356 498 OFFCURVE",
"350 495 OFFCURVE",
"344 493 CURVE SMOOTH",
"315 478 OFFCURVE",
"291 454 OFFCURVE",
"280 426 CURVE SMOOTH",
"268 398 LINE",
"262 381 LINE",
"258 355 LINE",
"255 313 LINE",
"255 228 LINE",
"298 228 LINE",
"298 304 LINE",
"309 304 LINE",
"345 302 LINE",
"385 293 OFFCURVE",
"401 276 OFFCURVE",
"406 229 CURVE",
"407 211 LINE SMOOTH",
"407 208 OFFCURVE",
"408 204 OFFCURVE",
"408 200 CURVE SMOOTH",
"408 182 OFFCURVE",
"404 161 OFFCURVE",
"398 137 CURVE SMOOTH",
"380 74 OFFCURVE",
"338 42 OFFCURVE",
"272 42 CURVE SMOOTH",
"188 42 OFFCURVE",
"130 117 OFFCURVE",
"130 181 CURVE",
"126 221 LINE",
"126 246 LINE",
"127 277 LINE",
"132 324 LINE SMOOTH",
"136 363 OFFCURVE",
"171 443 OFFCURVE",
"219 458 CURVE SMOOTH",
"229 461 OFFCURVE",
"238 464 OFFCURVE",
"246 465 CURVE SMOOTH",
"251 466 OFFCURVE",
"265 467 OFFCURVE",
"287 467 CURVE",
"286 505 LINE",
"237 505 LINE",
"181 501 LINE SMOOTH",
"87 495 OFFCURVE",
"22 405 OFFCURVE"
);
},
{
closed = 1;
nodes = (
"60 307 CURVE SMOOTH",
"60 366 OFFCURVE",
"92 439 OFFCURVE",
"145 448 CURVE",
"121 419 OFFCURVE",
"105 391 OFFCURVE",
"97 362 CURVE SMOOTH",
"90 335 LINE",
"85 320 OFFCURVE",
"83 306 OFFCURVE",
"83 295 CURVE SMOOTH",
"82 267 LINE",
"82 238 LINE",
"83 208 LINE",
"71 226 OFFCURVE",
"60 281 OFFCURVE"
);
},
{
closed = 1;
nodes = (
"428 -124 LINE",
"428 -167 LINE",
"836 -167 LINE",
"837 23 LINE",
"794 10 LINE",
"794 -125 LINE"
);
}
);
width = 872;
}
);
},
{
glyphname = uni0DA50DD6;
lastChange = "2017-09-18 08:47:20 +0000";
layers = (
{
layerId = "902E803C-EB75-4CF8-B2E0-AD6A3AB6F03E";
paths = (
{
closed = 1;
nodes = (
"22 319 CURVE SMOOTH",
"22 275 OFFCURVE",
"32 230 OFFCURVE",
"53 184 CURVE",
"86 183 LINE",
"99 83 OFFCURVE",
"163 0 OFFCURVE",
"258 0 CURVE SMOOTH",
"361 0 OFFCURVE",
"423 47 OFFCURVE",
"444 141 CURVE SMOOTH",
"448 161 OFFCURVE",
"450 180 OFFCURVE",
"450 196 CURVE SMOOTH",
"450 199 OFFCURVE",
"450 202 OFFCURVE",
"450 205 CURVE SMOOTH",
"448 238 LINE",
"443 267 LINE",
"436 289 OFFCURVE",
"428 303 OFFCURVE",
"420 309 CURVE SMOOTH",
"394 330 LINE SMOOTH",
"388 334 OFFCURVE",
"379 336 OFFCURVE",
"368 338 CURVE SMOOTH",
"343 341 LINE",
"299 339 LINE",
"306 370 OFFCURVE",
"312 389 OFFCURVE",
"314 396 CURVE SMOOTH",
"331 442 OFFCURVE",
"363 466 OFFCURVE",
"409 466 CURVE SMOOTH",
"460 466 OFFCURVE",
"494 435 OFFCURVE",
"498 393 CURVE",
"538 393 LINE",
"538 427 OFFCURVE",
"561 465 OFFCURVE",
"652 465 CURVE SMOOTH",
"658 465 OFFCURVE",
"665 465 OFFCURVE",
"671 465 CURVE SMOOTH",
"713 463 LINE",
"753 453 LINE",
"779 442 OFFCURVE",
"792 422 OFFCURVE",
"792 393 CURVE",
"640 393 LINE SMOOTH",
"511 393 OFFCURVE",
"458 303 OFFCURVE",
"458 215 CURVE SMOOTH",
"458 213 OFFCURVE",
"458 210 OFFCURVE",
"458 208 CURVE SMOOTH",
"459 182 LINE",
"464 139 LINE",
"476 92 OFFCURVE",
"508 43 OFFCURVE",
"538 28 CURVE SMOOTH",
"571 12 LINE",
"605 3 LINE",
"651 -1 LINE",
"749 6 LINE SMOOTH",
"784 8 OFFCURVE",
"813 16 OFFCURVE",
"836 29 CURVE",
"836 70 LINE",
"817 58 OFFCURVE",
"799 51 OFFCURVE",
"782 49 CURVE SMOOTH",
"740 43 LINE",
"704 42 LINE",
"690 40 LINE",
"664 40 LINE",
"620 43 LINE",
"603 46 OFFCURVE",
"585 52 OFFCURVE",
"569 59 CURVE SMOOTH",
"527 78 OFFCURVE",
"502 160 OFFCURVE",
"502 216 CURVE SMOOTH",
"502 253 OFFCURVE",
"510 284 OFFCURVE",
"530 306 CURVE SMOOTH",
"564 343 OFFCURVE",
"593 352 OFFCURVE",
"652 352 CURVE SMOOTH",
"838 353 LINE",
"837 391 LINE",
"832 420 LINE SMOOTH",
"830 433 OFFCURVE",
"822 447 OFFCURVE",
"810 462 CURVE SMOOTH",
"785 492 OFFCURVE",
"737 507 OFFCURVE",
"667 507 CURVE SMOOTH",
"593 507 OFFCURVE",
"542 492 OFFCURVE",
"515 461 CURVE",
"497 479 LINE",
"482 490 LINE",
"470 497 OFFCURVE",
"457 500 OFFCURVE",
"442 502 CURVE SMOOTH",
"424 504 LINE",
"406 504 LINE",
"365 500 LINE",
"356 498 OFFCURVE",
"350 495 OFFCURVE",
"344 493 CURVE SMOOTH",
"315 478 OFFCURVE",
"291 454 OFFCURVE",
"280 426 CURVE SMOOTH",
"268 398 LINE",
"262 381 LINE",
"258 355 LINE",
"255 313 LINE",
"255 228 LINE",
"298 228 LINE",
"298 304 LINE",
"309 304 LINE",
"345 302 LINE",
"385 293 OFFCURVE",
"401 276 OFFCURVE",
"406 229 CURVE",
"407 211 LINE SMOOTH",
"407 208 OFFCURVE",
"408 204 OFFCURVE",
"408 200 CURVE SMOOTH",
"408 182 OFFCURVE",
"404 161 OFFCURVE",
"398 137 CURVE SMOOTH",
"380 74 OFFCURVE",
"338 42 OFFCURVE",
"272 42 CURVE SMOOTH",
"188 42 OFFCURVE",
"130 117 OFFCURVE",
"130 181 CURVE",
"126 221 LINE",
"126 246 LINE",
"127 277 LINE",
"132 324 LINE SMOOTH",
"136 363 OFFCURVE",
"171 443 OFFCURVE",
"219 458 CURVE SMOOTH",
"229 461 OFFCURVE",
"238 464 OFFCURVE",
"246 465 CURVE SMOOTH",
"251 466 OFFCURVE",
"265 467 OFFCURVE",
"287 467 CURVE",
"286 505 LINE",
"237 505 LINE",
"181 501 LINE SMOOTH",
"87 495 OFFCURVE",
"22 405 OFFCURVE"
);
},
{
closed = 1;
nodes = (
"60 307 CURVE SMOOTH",
"60 366 OFFCURVE",
"92 439 OFFCURVE",
"145 448 CURVE",
"121 419 OFFCURVE",
"105 391 OFFCURVE",
"97 362 CURVE SMOOTH",
"90 335 LINE",
"85 320 OFFCURVE",
"83 306 OFFCURVE",
"83 295 CURVE SMOOTH",
"82 267 LINE",
"82 238 LINE",
"83 208 LINE",
"71 226 OFFCURVE",
"60 281 OFFCURVE"
);
},
{
closed = 1;
nodes = (
"428 -124 LINE",
"428 -167 LINE",
"546 -163 LINE",
"565 -160 OFFCURVE",
"609 -144 OFFCURVE",
"624 -131 CURVE",
"630 -130 OFFCURVE",
"636 -130 OFFCURVE",
"641 -130 CURVE SMOOTH",
"680 -130 OFFCURVE",
"695 -156 OFFCURVE",
"723 -167 CURVE",
"836 -167 LINE",
"837 23 LINE",
"794 10 LINE",
"794 -125 LINE",
"724 -125 LINE",
"702 -107 OFFCURVE",
"675 -94 OFFCURVE",
"644 -94 CURVE SMOOTH",
"637 -94 OFFCURVE",
"630 -94 OFFCURVE",
"624 -93 CURVE",
"538 -122 LINE"
);
}
);
width = 875;
}
);
},
{
glyphname = uni0DA70DCA;
lastChange = "2017-09-19 18:05:19 +0000";
layers = (
{
components = (
{
name = sinTta;
}
);
layerId = "902E803C-EB75-4CF8-B2E0-AD6A3AB6F03E";
paths = (
{
closed = 1;
nodes = (
"131 579 OFFCURVE",
"125 589 OFFCURVE",
"125 602 CURVE SMOOTH",
"125 656 OFFCURVE",
"194 668 OFFCURVE",
"263 668 CURVE SMOOTH",
"352 668 OFFCURVE",
"418 627 OFFCURVE",
"425 543 CURVE",
"467 542 LINE",
"467 665 OFFCURVE",
"370 712 OFFCURVE",
"262 712 CURVE SMOOTH",
"166 712 OFFCURVE",
"77 685 OFFCURVE",
"77 609 CURVE SMOOTH",
"77 594 OFFCURVE",
"80 580 OFFCURVE",
"87 565 CURVE",
"138 569 LINE"
);
}
);
width = 504;
}
);
},
{
glyphname = uni0DA70DD2;
lastChange = "2017-09-20 08:52:30 +0000";
layers = (
{
layerId = "902E803C-EB75-4CF8-B2E0-AD6A3AB6F03E";
paths = (
{
closed = 1;
nodes = (
"17 249 CURVE SMOOTH",
"17 93 OFFCURVE",
"92 -2 OFFCURVE",
"245 -2 CURVE SMOOTH",
"428 3 OFFCURVE",
"484 131 OFFCURVE",
"484 326 CURVE SMOOTH",
"484 399 OFFCURVE",
"465 448 OFFCURVE",
"442 478 CURVE SMOOTH",
"419 507 OFFCURVE",
"395 531 OFFCURVE",
"368 548 CURVE SMOOTH",
"329 573 OFFCURVE",
"282 586 OFFCURVE",
"225 586 CURVE SMOOTH",
"219 586 OFFCURVE",
"213 586 OFFCURVE",
"207 586 CURVE SMOOTH",
"181 584 OFFCURVE",
"159 583 OFFCURVE",
"140 583 CURVE SMOOTH",
"121 583 OFFCURVE",
"106 583 OFFCURVE",
"94 586 CURVE SMOOTH",
"83 589 OFFCURVE",
"75 603 OFFCURVE",
"75 617 CURVE SMOOTH",
"75 636 OFFCURVE",
"89 658 OFFCURVE",
"120 671 CURVE SMOOTH",
"143 681 OFFCURVE",
"186 688 OFFCURVE",
"253 688 CURVE SMOOTH",
"368 688 OFFCURVE",
"428 647 OFFCURVE",
"435 563 CURVE",
"477 562 LINE",
"477 635 OFFCURVE",
"447 686 OFFCURVE",
"384 711 CURVE SMOOTH",
"353 723 OFFCURVE",
"309 728 OFFCURVE",
"254 728 CURVE SMOOTH",
"140 728 OFFCURVE",
"69 702 OFFCURVE",
"41 650 CURVE SMOOTH",
"34 638 OFFCURVE",
"30 623 OFFCURVE",
"30 608 CURVE SMOOTH",
"30 576 OFFCURVE",
"48 542 OFFCURVE",
"90 542 CURVE SMOOTH",
"140 542 OFFCURVE",
"183 545 OFFCURVE",
"226 545 CURVE SMOOTH",
"289 545 OFFCURVE",
"349 524 OFFCURVE",
"393 472 CURVE SMOOTH",
"425 433 OFFCURVE",
"438 386 OFFCURVE",
"440 338 CURVE",
"440 322 LINE SMOOTH",
"440 214 OFFCURVE",
"414 109 OFFCURVE",
"338 68 CURVE SMOOTH",
"306 50 OFFCURVE",
"271 44 OFFCURVE",
"238 44 CURVE SMOOTH",
"123 44 OFFCURVE",
"66 114 OFFCURVE",
"66 255 CURVE SMOOTH",
"66 340 OFFCURVE",
"108 383 OFFCURVE",
"194 383 CURVE SMOOTH",
"225 383 LINE SMOOTH",
"229 383 OFFCURVE",
"233 383 OFFCURVE",
"239 382 CURVE SMOOTH",
"245 382 OFFCURVE",
"250 382 OFFCURVE",
"253 382 CURVE",
"253 427 LINE",
"239 427 LINE",
"223 428 OFFCURVE",
"207 429 OFFCURVE",
"191 429 CURVE SMOOTH",
"172 429 OFFCURVE",
"153 429 OFFCURVE",
"135 426 CURVE SMOOTH",
"96 418 OFFCURVE",
"64 394 OFFCURVE",
"43 352 CURVE SMOOTH",
"25 316 OFFCURVE",
"17 281 OFFCURVE"
);
}
);
width = 501;
}
);
},
{
glyphname = uni0DA70DD3;
lastChange = "2017-09-18 08:47:20 +0000";
layers = (
{
layerId = "902E803C-EB75-4CF8-B2E0-AD6A3AB6F03E";
paths = (
{
closed = 1;
nodes = (
"17 249 CURVE SMOOTH",
"17 93 OFFCURVE",
"92 -2 OFFCURVE",
"245 -2 CURVE SMOOTH",
"330 0 OFFCURVE",
"391 31 OFFCURVE",
"433 90 CURVE SMOOTH",
"443 105 OFFCURVE",
"458 131 OFFCURVE",
"468 171 CURVE SMOOTH",
"481 220 OFFCURVE",
"484 271 OFFCURVE",
"484 326 CURVE SMOOTH",
"484 399 OFFCURVE",
"465 448 OFFCURVE",
"442 478 CURVE SMOOTH",
"419 507 OFFCURVE",
"395 531 OFFCURVE",
"368 548 CURVE SMOOTH",
"329 573 OFFCURVE",
"282 586 OFFCURVE",
"225 586 CURVE SMOOTH",
"219 586 OFFCURVE",
"213 586 OFFCURVE",
"207 586 CURVE SMOOTH",
"181 584 OFFCURVE",
"159 583 OFFCURVE",
"140 583 CURVE SMOOTH",
"121 583 OFFCURVE",
"106 583 OFFCURVE",
"94 586 CURVE SMOOTH",
"83 589 OFFCURVE",
"75 603 OFFCURVE",
"75 617 CURVE SMOOTH",
"75 636 OFFCURVE",
"89 658 OFFCURVE",
"120 671 CURVE SMOOTH",
"139 679 OFFCURVE",
"197 690 OFFCURVE",
"259 690 CURVE SMOOTH",
"344 690 OFFCURVE",
"435 671 OFFCURVE",
"435 607 CURVE SMOOTH",
"435 605 OFFCURVE",
"435 603 OFFCURVE",
"435 601 CURVE SMOOTH",
"426 585 OFFCURVE",
"413 578 OFFCURVE",
"395 578 CURVE SMOOTH",
"388 578 OFFCURVE",
"380 579 OFFCURVE",
"372 581 CURVE",
"354 592 OFFCURVE",
"345 607 OFFCURVE",
"345 625 CURVE SMOOTH",
"345 639 OFFCURVE",
"349 654 OFFCURVE",
"358 671 CURVE",
"333 679 LINE",
"325 671 OFFCURVE",
"312 640 OFFCURVE",
"312 619 CURVE SMOOTH",
"312 580 OFFCURVE",
"349 552 OFFCURVE",
"390 549 CURVE",
"394 547 OFFCURVE",
"404 547 OFFCURVE",
"415 547 CURVE SMOOTH",
"426 547 OFFCURVE",
"438 549 OFFCURVE",
"447 554 CURVE",
"464 559 OFFCURVE",
"472 574 OFFCURVE",
"472 599 CURVE SMOOTH",
"472 647 OFFCURVE",
"446 687 OFFCURVE",
"384 711 CURVE SMOOTH",
"353 724 OFFCURVE",
"309 728 OFFCURVE",
"254 728 CURVE SMOOTH",
"140 728 OFFCURVE",
"69 702 OFFCURVE",
"41 650 CURVE SMOOTH",
"34 638 OFFCURVE",
"30 623 OFFCURVE",
"30 608 CURVE SMOOTH",
"30 576 OFFCURVE",
"48 542 OFFCURVE",
"90 542 CURVE SMOOTH",
"140 542 OFFCURVE",
"183 545 OFFCURVE",
"226 545 CURVE SMOOTH",
"289 545 OFFCURVE",
"349 524 OFFCURVE",
"393 472 CURVE SMOOTH",
"425 433 OFFCURVE",
"438 386 OFFCURVE",
"440 338 CURVE",
"440 322 LINE SMOOTH",
"440 275 OFFCURVE",
"431 230 OFFCURVE",
"422 187 CURVE SMOOTH",
"412 138 OFFCURVE",
"388 95 OFFCURVE",
"338 68 CURVE SMOOTH",
"306 50 OFFCURVE",
"271 44 OFFCURVE",
"238 44 CURVE SMOOTH",
"123 44 OFFCURVE",
"66 114 OFFCURVE",
"66 255 CURVE SMOOTH",
"66 340 OFFCURVE",
"108 383 OFFCURVE",
"194 383 CURVE SMOOTH",
"225 383 LINE SMOOTH",
"229 383 OFFCURVE",
"233 383 OFFCURVE",
"239 382 CURVE SMOOTH",
"245 382 OFFCURVE",
"250 382 OFFCURVE",
"253 382 CURVE",
"253 427 LINE",
"239 427 LINE",
"223 428 OFFCURVE",
"207 429 OFFCURVE",
"191 429 CURVE SMOOTH",
"172 429 OFFCURVE",
"153 429 OFFCURVE",
"135 426 CURVE SMOOTH",
"96 418 OFFCURVE",
"64 394 OFFCURVE",
"43 352 CURVE SMOOTH",
"25 316 OFFCURVE",
"17 281 OFFCURVE"
);
}
);
width = 501;
}
);
},
{
glyphname = uni0DA80DCA;
lastChange = "2017-09-19 17:22:26 +0000";
layers = (
{
layerId = "902E803C-EB75-4CF8-B2E0-AD6A3AB6F03E";
paths = (
{
closed = 1;
nodes = (
"13 176 LINE",
"16 138 LINE",
"23 106 OFFCURVE",
"28 87 OFFCURVE",
"30 82 CURVE SMOOTH",
"46 45 OFFCURVE",
"69 19 OFFCURVE",
"100 6 CURVE SMOOTH",
"113 0 OFFCURVE",
"128 -2 OFFCURVE",
"144 -1 CURVE SMOOTH",
"176 2 LINE",
"205 13 LINE",
"228 27 OFFCURVE",
"242 42 OFFCURVE",
"248 58 CURVE",
"252 44 OFFCURVE",
"257 36 OFFCURVE",
"261 32 CURVE SMOOTH",
"280 16 LINE SMOOTH",
"289 9 OFFCURVE",
"298 4 OFFCURVE",
"306 3 CURVE SMOOTH",
"338 0 LINE",
"372 4 LINE",
"413 22 LINE",
"455 53 OFFCURVE",
"479 91 OFFCURVE",
"489 136 CURVE SMOOTH",
"497 173 OFFCURVE",
"501 207 OFFCURVE",
"501 236 CURVE SMOOTH",
"501 276 OFFCURVE",
"498 308 OFFCURVE",
"491 332 CURVE SMOOTH",
"472 403 LINE",
"432 516 OFFCURVE",
"348 572 OFFCURVE",
"220 572 CURVE SMOOTH",
"216 572 OFFCURVE",
"212 572 OFFCURVE",
"207 572 CURVE SMOOTH",
"200 572 OFFCURVE",
"192 573 OFFCURVE",
"186 573 CURVE SMOOTH",
"139 573 OFFCURVE",
"94 563 OFFCURVE",
"49 543 CURVE",
"51 497 LINE",
"100 517 OFFCURVE",
"139 526 OFFCURVE",
"169 526 CURVE SMOOTH",
"188 526 OFFCURVE",
"203 523 OFFCURVE",
"214 515 CURVE",
"221 515 OFFCURVE",
"225 510 OFFCURVE",
"225 501 CURVE SMOOTH",
"225 492 OFFCURVE",
"217 451 OFFCURVE",
"217 440 CURVE SMOOTH",
"217 396 OFFCURVE",
"249 375 OFFCURVE",
"313 375 CURVE SMOOTH",
"328 375 OFFCURVE",
"351 381 OFFCURVE",
"376 393 CURVE SMOOTH",
"397 402 OFFCURVE",
"408 418 OFFCURVE",
"413 433 CURVE",
"443 391 OFFCURVE",
"459 313 OFFCURVE",
"459 252 CURVE SMOOTH",
"459 245 OFFCURVE",
"459 239 OFFCURVE",
"459 233 CURVE SMOOTH",
"455 172 LINE",
"449 146 LINE",
"444 127 LINE",
"428 82 OFFCURVE",
"395 42 OFFCURVE",
"352 42 CURVE SMOOTH",
"299 42 OFFCURVE",
"272 68 OFFCURVE",
"272 119 CURVE SMOOTH",
"272 268 LINE",
"225 268 LINE",
"225 207 LINE",
"224 149 LINE",
"219 93 LINE",
"211 63 OFFCURVE",
"179 41 OFFCURVE",
"147 41 CURVE SMOOTH",
"135 41 OFFCURVE",
"122 42 OFFCURVE",
"111 50 CURVE SMOOTH",
"64 82 OFFCURVE",
"57 135 OFFCURVE",
"57 171 CURVE SMOOTH",
"57 176 OFFCURVE",
"57 180 OFFCURVE",
"57 184 CURVE SMOOTH",
"60 249 LINE SMOOTH",
"64 356 OFFCURVE",
"137 393 OFFCURVE",
"205 393 CURVE",
"205 433 LINE",
"148 433 OFFCURVE",
"106 419 OFFCURVE",
"78 391 CURVE SMOOTH",
"70 384 OFFCURVE",
"59 371 OFFCURVE",
"46 351 CURVE SMOOTH",
"24 316 OFFCURVE",
"13 267 OFFCURVE",
"13 201 CURVE SMOOTH"
);
},
{
closed = 1;
nodes = (
"257 524 CURVE",
"262 525 OFFCURVE",
"268 526 OFFCURVE",
"274 526 CURVE SMOOTH",
"324 526 OFFCURVE",
"383 492 OFFCURVE",
"384 460 CURVE",
"374 433 OFFCURVE",
"354 420 OFFCURVE",
"328 420 CURVE SMOOTH",
"321 420 OFFCURVE",
"307 422 OFFCURVE",
"285 427 CURVE",
"269 437 OFFCURVE",
"260 447 OFFCURVE",
"260 459 CURVE SMOOTH",
"260 467 OFFCURVE",
"270 493 OFFCURVE",
"270 500 CURVE SMOOTH",
"270 509 OFFCURVE",
"266 517 OFFCURVE"
);
},
{
closed = 1;
nodes = (
"384 676 LINE",
"392 496 LINE",
"431 468 LINE",
"429 676 LINE"
);
}
);
width = 515;
}
);
},
{
glyphname = uni0DA80DD2;
lastChange = "2017-09-18 08:47:20 +0000";
layers = (
{
layerId = "902E803C-EB75-4CF8-B2E0-AD6A3AB6F03E";
paths = (
{
closed = 1;
nodes = (
"13 176 LINE",
"16 138 LINE",
"23 106 OFFCURVE",
"28 87 OFFCURVE",
"30 82 CURVE SMOOTH",
"46 45 OFFCURVE",
"69 19 OFFCURVE",
"100 6 CURVE SMOOTH",
"113 0 OFFCURVE",
"128 -2 OFFCURVE",
"144 -1 CURVE SMOOTH",
"176 2 LINE",
"205 13 LINE",
"228 27 OFFCURVE",
"242 42 OFFCURVE",
"248 58 CURVE",
"252 44 OFFCURVE",
"257 36 OFFCURVE",
"261 32 CURVE SMOOTH",
"280 16 LINE SMOOTH",
"289 9 OFFCURVE",
"298 4 OFFCURVE",
"306 3 CURVE SMOOTH",
"338 0 LINE",
"372 4 LINE",
"413 22 LINE",
"455 53 OFFCURVE",
"479 91 OFFCURVE",
"489 136 CURVE SMOOTH",
"497 173 OFFCURVE",
"501 207 OFFCURVE",
"501 236 CURVE SMOOTH",
"501 276 OFFCURVE",
"498 308 OFFCURVE",
"491 332 CURVE SMOOTH",
"472 403 LINE",
"430 517 OFFCURVE",
"348 577 OFFCURVE",
"226 577 CURVE SMOOTH",
"195 577 OFFCURVE",
"169 569 OFFCURVE",
"148 569 CURVE SMOOTH",
"101 569 OFFCURVE",
"76 579 OFFCURVE",
"76 611 CURVE SMOOTH",
"76 665 OFFCURVE",
"185 682 OFFCURVE",
"250 682 CURVE SMOOTH",
"299 682 OFFCURVE",
"348 677 OFFCURVE",
"369 669 CURVE SMOOTH",
"413 652 OFFCURVE",
"433 616 OFFCURVE",
"433 565 CURVE SMOOTH",
"433 556 OFFCURVE",
"433 546 OFFCURVE",
"431 536 CURVE",
"475 538 LINE",
"475 543 OFFCURVE",
"475 548 OFFCURVE",
"475 552 CURVE SMOOTH",
"475 621 OFFCURVE",
"452 664 OFFCURVE",
"412 689 CURVE SMOOTH",
"379 709 OFFCURVE",
"322 724 OFFCURVE",
"233 724 CURVE SMOOTH",
"136 724 OFFCURVE",
"74 706 OFFCURVE",
"46 669 CURVE SMOOTH",
"31 648 OFFCURVE",
"24 628 OFFCURVE",
"24 609 CURVE SMOOTH",
"24 586 OFFCURVE",
"35 564 OFFCURVE",
"56 543 CURVE SMOOTH",
"66 532 OFFCURVE",
"93 526 OFFCURVE",
"138 526 CURVE",
"153 530 OFFCURVE",
"166 532 OFFCURVE",
"176 532 CURVE SMOOTH",
"194 532 OFFCURVE",
"206 526 OFFCURVE",
"214 515 CURVE",
"221 515 OFFCURVE",
"225 510 OFFCURVE",
"225 501 CURVE SMOOTH",
"225 492 OFFCURVE",
"217 451 OFFCURVE",
"217 440 CURVE SMOOTH",
"217 396 OFFCURVE",
"250 375 OFFCURVE",
"315 373 CURVE SMOOTH",
"331 373 OFFCURVE",
"352 379 OFFCURVE",
"376 393 CURVE SMOOTH",
"396 404 OFFCURVE",
"408 418 OFFCURVE",
"413 433 CURVE",
"443 391 OFFCURVE",
"459 313 OFFCURVE",
"459 252 CURVE SMOOTH",
"459 245 OFFCURVE",
"459 239 OFFCURVE",
"459 233 CURVE SMOOTH",
"455 172 LINE",
"449 146 LINE",
"444 127 LINE",
"428 82 OFFCURVE",
"395 42 OFFCURVE",
"352 42 CURVE SMOOTH",
"299 42 OFFCURVE",
"272 68 OFFCURVE",
"272 119 CURVE SMOOTH",
"272 268 LINE",
"225 268 LINE",
"225 207 LINE",
"224 149 LINE",
"219 93 LINE",
"211 63 OFFCURVE",
"179 41 OFFCURVE",
"147 41 CURVE SMOOTH",
"135 41 OFFCURVE",
"122 42 OFFCURVE",
"111 50 CURVE SMOOTH",
"64 82 OFFCURVE",
"57 135 OFFCURVE",
"57 171 CURVE SMOOTH",
"57 176 OFFCURVE",
"57 180 OFFCURVE",
"57 184 CURVE SMOOTH",
"60 249 LINE SMOOTH",
"64 356 OFFCURVE",
"137 393 OFFCURVE",
"205 393 CURVE",
"205 433 LINE",
"148 433 OFFCURVE",
"106 419 OFFCURVE",
"78 391 CURVE SMOOTH",
"70 384 OFFCURVE",
"59 371 OFFCURVE",
"46 351 CURVE SMOOTH",
"24 316 OFFCURVE",
"13 267 OFFCURVE",
"13 201 CURVE SMOOTH"
);
},
{
closed = 1;
nodes = (
"257 524 CURVE",
"262 525 OFFCURVE",
"268 526 OFFCURVE",
"274 526 CURVE SMOOTH",
"324 526 OFFCURVE",
"383 492 OFFCURVE",
"384 460 CURVE",
"376 436 OFFCURVE",
"360 422 OFFCURVE",
"336 420 CURVE",
"329 417 OFFCURVE",
"321 416 OFFCURVE",
"313 416 CURVE SMOOTH",
"304 416 OFFCURVE",
"294 418 OFFCURVE",
"284 422 CURVE",
"268 435 OFFCURVE",
"260 447 OFFCURVE",
"260 459 CURVE SMOOTH",
"260 467 OFFCURVE",
"270 493 OFFCURVE",
"270 500 CURVE SMOOTH",
"270 509 OFFCURVE",
"266 517 OFFCURVE"
);
}
);
width = 515;
}
);
},
{
glyphname = uni0DA80DD3;
lastChange = "2017-09-18 08:47:20 +0000";
layers = (
{
layerId = "902E803C-EB75-4CF8-B2E0-AD6A3AB6F03E";
paths = (
{
closed = 1;
nodes = (
"13 176 LINE",
"16 138 LINE",
"23 106 OFFCURVE",
"28 87 OFFCURVE",
"30 82 CURVE SMOOTH",
"46 45 OFFCURVE",
"69 19 OFFCURVE",
"100 6 CURVE SMOOTH",
"113 0 OFFCURVE",
"128 -2 OFFCURVE",
"144 -1 CURVE SMOOTH",
"176 2 LINE",
"205 13 LINE",
"228 27 OFFCURVE",
"242 42 OFFCURVE",
"248 58 CURVE",
"252 44 OFFCURVE",
"257 36 OFFCURVE",
"261 32 CURVE SMOOTH",
"280 16 LINE SMOOTH",
"289 9 OFFCURVE",
"298 4 OFFCURVE",
"306 3 CURVE SMOOTH",
"338 0 LINE",
"372 4 LINE",
"413 22 LINE",
"455 53 OFFCURVE",
"479 91 OFFCURVE",
"489 136 CURVE SMOOTH",
"497 173 OFFCURVE",
"501 207 OFFCURVE",
"501 236 CURVE SMOOTH",
"501 276 OFFCURVE",
"498 308 OFFCURVE",
"491 332 CURVE SMOOTH",
"472 403 LINE",
"433 515 OFFCURVE",
"351 572 OFFCURVE",
"226 577 CURVE",
"195 572 OFFCURVE",
"169 569 OFFCURVE",
"148 569 CURVE SMOOTH",
"101 569 OFFCURVE",
"76 579 OFFCURVE",
"76 611 CURVE SMOOTH",
"76 665 OFFCURVE",
"185 682 OFFCURVE",
"250 682 CURVE SMOOTH",
"299 682 OFFCURVE",
"347 674 OFFCURVE",
"369 669 CURVE SMOOTH",
"415 660 OFFCURVE",
"438 632 OFFCURVE",
"439 583 CURVE",
"432 570 OFFCURVE",
"422 563 OFFCURVE",
"411 563 CURVE SMOOTH",
"383 563 OFFCURVE",
"359 593 OFFCURVE",
"359 622 CURVE SMOOTH",
"359 633 OFFCURVE",
"362 645 OFFCURVE",
"367 659 CURVE",
"341 665 OFFCURVE",
"328 668 OFFCURVE",
"328 669 CURVE SMOOTH",
"328 669 OFFCURVE",
"329 669 OFFCURVE",
"331 669 CURVE SMOOTH",
"333 669 OFFCURVE",
"335 669 OFFCURVE",
"338 669 CURVE",
"337 670 OFFCURVE",
"335 669 OFFCURVE",
"333 665 CURVE SMOOTH",
"332 661 OFFCURVE",
"330 655 OFFCURVE",
"328 648 CURVE SMOOTH",
"325 639 OFFCURVE",
"323 626 OFFCURVE",
"323 616 CURVE SMOOTH",
"323 611 OFFCURVE",
"324 607 OFFCURVE",
"324 604 CURVE SMOOTH",
"327 588 OFFCURVE",
"337 567 OFFCURVE",
"348 561 CURVE",
"371 536 OFFCURVE",
"392 527 OFFCURVE",
"413 527 CURVE SMOOTH",
"421 527 OFFCURVE",
"429 528 OFFCURVE",
"437 530 CURVE",
"462 544 OFFCURVE",
"479 564 OFFCURVE",
"479 592 CURVE SMOOTH",
"479 636 OFFCURVE",
"458 669 OFFCURVE",
"416 693 CURVE SMOOTH",
"383 713 OFFCURVE",
"322 724 OFFCURVE",
"233 724 CURVE SMOOTH",
"136 724 OFFCURVE",
"74 706 OFFCURVE",
"46 669 CURVE SMOOTH",
"31 648 OFFCURVE",
"24 628 OFFCURVE",
"24 609 CURVE SMOOTH",
"24 586 OFFCURVE",
"35 564 OFFCURVE",
"56 543 CURVE SMOOTH",
"66 532 OFFCURVE",
"93 526 OFFCURVE",
"138 526 CURVE",
"153 530 OFFCURVE",
"166 532 OFFCURVE",
"176 532 CURVE SMOOTH",
"194 532 OFFCURVE",
"206 526 OFFCURVE",
"214 515 CURVE",
"221 515 OFFCURVE",
"225 510 OFFCURVE",
"225 501 CURVE SMOOTH",
"225 492 OFFCURVE",
"217 451 OFFCURVE",
"217 440 CURVE SMOOTH",
"217 396 OFFCURVE",
"250 375 OFFCURVE",
"315 373 CURVE SMOOTH",
"331 373 OFFCURVE",
"352 379 OFFCURVE",
"376 393 CURVE SMOOTH",
"396 404 OFFCURVE",
"408 418 OFFCURVE",
"413 433 CURVE",
"443 391 OFFCURVE",
"459 313 OFFCURVE",
"459 252 CURVE SMOOTH",
"459 245 OFFCURVE",
"459 239 OFFCURVE",
"459 233 CURVE SMOOTH",
"455 172 LINE",
"449 146 LINE",
"444 127 LINE",
"428 82 OFFCURVE",
"395 42 OFFCURVE",
"352 42 CURVE SMOOTH",
"299 42 OFFCURVE",
"272 68 OFFCURVE",
"272 119 CURVE SMOOTH",
"272 268 LINE",
"225 268 LINE",
"225 207 LINE",
"224 149 LINE",
"219 93 LINE",
"211 63 OFFCURVE",
"179 41 OFFCURVE",
"147 41 CURVE SMOOTH",
"135 41 OFFCURVE",
"122 42 OFFCURVE",
"111 50 CURVE SMOOTH",
"64 82 OFFCURVE",
"57 135 OFFCURVE",
"57 171 CURVE SMOOTH",
"57 176 OFFCURVE",
"57 180 OFFCURVE",
"57 184 CURVE SMOOTH",
"60 249 LINE SMOOTH",
"64 356 OFFCURVE",
"137 393 OFFCURVE",
"205 393 CURVE",
"205 433 LINE",
"148 433 OFFCURVE",
"106 419 OFFCURVE",
"78 391 CURVE SMOOTH",
"70 384 OFFCURVE",
"59 371 OFFCURVE",
"46 351 CURVE SMOOTH",
"24 316 OFFCURVE",
"13 267 OFFCURVE",
"13 201 CURVE SMOOTH"
);
},
{
closed = 1;
nodes = (
"257 524 CURVE",
"262 525 OFFCURVE",
"268 526 OFFCURVE",
"274 526 CURVE SMOOTH",
"324 526 OFFCURVE",
"383 492 OFFCURVE",
"384 460 CURVE",
"376 436 OFFCURVE",
"360 422 OFFCURVE",
"336 420 CURVE",
"329 417 OFFCURVE",
"321 416 OFFCURVE",
"313 416 CURVE SMOOTH",
"304 416 OFFCURVE",
"294 418 OFFCURVE",
"284 422 CURVE",
"268 435 OFFCURVE",
"260 447 OFFCURVE",
"260 459 CURVE SMOOTH",
"260 467 OFFCURVE",
"270 493 OFFCURVE",
"270 500 CURVE SMOOTH",
"270 509 OFFCURVE",
"266 517 OFFCURVE"
);
}
);
width = 515;
}
);
},
{
glyphname = uni0DA90DCA;
lastChange = "2017-09-19 18:05:05 +0000";
layers = (
{
components = (
{
name = sinDda;
}
);
layerId = "902E803C-EB75-4CF8-B2E0-AD6A3AB6F03E";
paths = (
{
closed = 1;
nodes = (
"145 589 OFFCURVE",
"135 609 OFFCURVE",
"135 622 CURVE SMOOTH",
"135 676 OFFCURVE",
"204 688 OFFCURVE",
"273 688 CURVE SMOOTH",
"382 688 OFFCURVE",
"448 647 OFFCURVE",
"455 563 CURVE",
"497 562 LINE",
"497 685 OFFCURVE",
"400 732 OFFCURVE",
"272 732 CURVE SMOOTH",
"176 732 OFFCURVE",
"87 705 OFFCURVE",
"87 629 CURVE SMOOTH",
"87 614 OFFCURVE",
"94 590 OFFCURVE",
"101 575 CURVE",
"152 579 LINE"
);
}
);
width = 533;
}
);
},
{
glyphname = uni0DA90DD2;
lastChange = "2017-09-19 13:36:19 +0000";
layers = (
{
layerId = "902E803C-EB75-4CF8-B2E0-AD6A3AB6F03E";
paths = (
{
closed = 1;
nodes = (
"12 171 CURVE SMOOTH",
"12 77 OFFCURVE",
"53 -1 OFFCURVE",
"142 -1 CURVE SMOOTH",
"192 -1 OFFCURVE",
"226 21 OFFCURVE",
"245 63 CURVE",
"261 21 OFFCURVE",
"297 -1 OFFCURVE",
"352 -1 CURVE SMOOTH",
"471 -1 OFFCURVE",
"508 123 OFFCURVE",
"508 260 CURVE SMOOTH",
"508 454 OFFCURVE",
"454 572 OFFCURVE",
"285 598 CURVE SMOOTH",
"273 600 OFFCURVE",
"261 601 OFFCURVE",
"248 601 CURVE SMOOTH",
"240 601 OFFCURVE",
"226 599 OFFCURVE",
"136 593 CURVE SMOOTH",
"107 593 OFFCURVE",
"88 605 OFFCURVE",
"88 631 CURVE SMOOTH",
"88 685 OFFCURVE",
"162 688 OFFCURVE",
"217 688 CURVE SMOOTH",
"248 688 OFFCURVE",
"280 688 OFFCURVE",
"311 688 CURVE SMOOTH",
"386 688 OFFCURVE",
"452 689 OFFCURVE",
"452 627 CURVE SMOOTH",
"452 616 OFFCURVE",
"450 603 OFFCURVE",
"443 588 CURVE",
"488 586 LINE",
"492 603 OFFCURVE",
"494 618 OFFCURVE",
"494 631 CURVE SMOOTH",
"494 678 OFFCURVE",
"452 712 OFFCURVE",
"398 720 CURVE SMOOTH",
"317 730 OFFCURVE",
"325 723 OFFCURVE",
"259 728 CURVE SMOOTH",
"161 728 OFFCURVE",
"41 718 OFFCURVE",
"41 625 CURVE SMOOTH",
"41 578 OFFCURVE",
"73 548 OFFCURVE",
"145 548 CURVE SMOOTH",
"176 548 OFFCURVE",
"192 557 OFFCURVE",
"247 557 CURVE SMOOTH",
"416 557 OFFCURVE",
"467 441 OFFCURVE",
"467 236 CURVE SMOOTH",
"467 144 OFFCURVE",
"428 41 OFFCURVE",
"351 41 CURVE SMOOTH",
"294 41 OFFCURVE",
"264 85 OFFCURVE",
"265 139 CURVE SMOOTH",
"266 204 LINE",
"222 204 LINE",
"222 205 OFFCURVE",
"223 139 OFFCURVE",
"223 139 CURVE SMOOTH",
"223 93 OFFCURVE",
"195 41 OFFCURVE",
"140 41 CURVE SMOOTH",
"87 41 OFFCURVE",
"53 95 OFFCURVE",
"53 182 CURVE SMOOTH",
"53 254 OFFCURVE",
"89 306 OFFCURVE",
"137 306 CURVE SMOOTH",
"267 306 LINE",
"267 375 LINE SMOOTH",
"267 430 OFFCURVE",
"223 467 OFFCURVE",
"168 467 CURVE SMOOTH",
"85 467 OFFCURVE",
"51 425 OFFCURVE",
"49 342 CURVE",
"20 342 LINE",
"20 306 LINE",
"58 306 LINE",
"27 282 OFFCURVE",
"12 237 OFFCURVE"
);
},
{
closed = 1;
nodes = (
"88 343 LINE",
"93 406 OFFCURVE",
"114 430 OFFCURVE",
"159 430 CURVE SMOOTH",
"204 430 OFFCURVE",
"226 411 OFFCURVE",
"226 366 CURVE SMOOTH",
"226 343 LINE"
);
}
);
width = 533;
}
);
},
{
glyphname = uni0DA90DD3;
lastChange = "2017-09-18 09:13:17 +0000";
layers = (
{
layerId = "902E803C-EB75-4CF8-B2E0-AD6A3AB6F03E";
paths = (
{
closed = 1;
nodes = (
"13 171 CURVE SMOOTH",
"13 77 OFFCURVE",
"54 -1 OFFCURVE",
"143 -1 CURVE SMOOTH",
"193 -1 OFFCURVE",
"227 21 OFFCURVE",
"246 63 CURVE",
"262 21 OFFCURVE",
"298 -1 OFFCURVE",
"353 -1 CURVE SMOOTH",
"472 -1 OFFCURVE",
"509 123 OFFCURVE",
"509 260 CURVE SMOOTH",
"509 338 OFFCURVE",
"497 404 OFFCURVE",
"477 456 CURVE SMOOTH",
"464 489 OFFCURVE",
"447 522 OFFCURVE",
"417 546 CURVE SMOOTH",
"372 583 OFFCURVE",
"325 596 OFFCURVE",
"257 596 CURVE SMOOTH",
"218 596 OFFCURVE",
"174 588 OFFCURVE",
"140 588 CURVE SMOOTH",
"101 588 OFFCURVE",
"79 606 OFFCURVE",
"79 630 CURVE SMOOTH",
"79 657 OFFCURVE",
"96 667 OFFCURVE",
"117 675 CURVE SMOOTH",
"157 690 OFFCURVE",
"207 693 OFFCURVE",
"260 693 CURVE SMOOTH",
"309 693 OFFCURVE",
"460 683 OFFCURVE",
"460 627 CURVE SMOOTH",
"460 608 OFFCURVE",
"447 588 OFFCURVE",
"422 588 CURVE SMOOTH",
"392 588 OFFCURVE",
"377 606 OFFCURVE",
"377 632 CURVE SMOOTH",
"377 655 OFFCURVE",
"397 675 OFFCURVE",
"416 684 CURVE",
"394 691 LINE",
"379 691 OFFCURVE",
"350 672 OFFCURVE",
"350 626 CURVE SMOOTH",
"350 584 OFFCURVE",
"385 558 OFFCURVE",
"424 558 CURVE SMOOTH",
"464 558 OFFCURVE",
"492 584 OFFCURVE",
"492 627 CURVE SMOOTH",
"492 714 OFFCURVE",
"361 733 OFFCURVE",
"260 733 CURVE SMOOTH",
"200 733 OFFCURVE",
"141 728 OFFCURVE",
"104 713 CURVE SMOOTH",
"71 700 OFFCURVE",
"30 674 OFFCURVE",
"30 624 CURVE SMOOTH",
"30 574 OFFCURVE",
"69 545 OFFCURVE",
"138 545 CURVE SMOOTH",
"161 545 OFFCURVE",
"189 546 OFFCURVE",
"222 551 CURVE SMOOTH",
"235 553 OFFCURVE",
"246 553 OFFCURVE",
"258 553 CURVE SMOOTH",
"338 553 OFFCURVE",
"396 526 OFFCURVE",
"424 469 CURVE SMOOTH",
"452 412 OFFCURVE",
"461 353 OFFCURVE",
"465 296 CURVE SMOOTH",
"466 275 OFFCURVE",
"468 255 OFFCURVE",
"468 236 CURVE SMOOTH",
"468 179 OFFCURVE",
"459 131 OFFCURVE",
"435 96 CURVE SMOOTH",
"409 59 OFFCURVE",
"379 41 OFFCURVE",
"352 41 CURVE SMOOTH",
"295 41 OFFCURVE",
"267 73 OFFCURVE",
"267 169 CURVE SMOOTH",
"267 234 LINE",
"223 234 LINE",
"224 169 LINE",
"224 83 OFFCURVE",
"196 41 OFFCURVE",
"141 41 CURVE SMOOTH",
"88 41 OFFCURVE",
"56 95 OFFCURVE",
"56 152 CURVE SMOOTH",
"56 254 OFFCURVE",
"80 306 OFFCURVE",
"128 306 CURVE SMOOTH",
"268 306 LINE",
"268 375 LINE SMOOTH",
"268 430 OFFCURVE",
"224 467 OFFCURVE",
"159 467 CURVE SMOOTH",
"98 467 OFFCURVE",
"50 430 OFFCURVE",
"50 342 CURVE",
"21 342 LINE",
"21 306 LINE",
"59 306 LINE",
"28 282 OFFCURVE",
"13 237 OFFCURVE"
);
},
{
closed = 1;
nodes = (
"88 343 LINE",
"93 406 OFFCURVE",
"104 433 OFFCURVE",
"159 433 CURVE SMOOTH",
"204 433 OFFCURVE",
"226 411 OFFCURVE",
"226 366 CURVE SMOOTH",
"226 343 LINE"
);
}
);
width = 533;
}
);
},
{
glyphname = uni0DAA0DCA;
lastChange = "2017-09-18 08:47:20 +0000";
layers = (
{
layerId = "902E803C-EB75-4CF8-B2E0-AD6A3AB6F03E";
paths = (
{
closed = 1;
nodes = (
"13 317 LINE",
"64 317 LINE",
"38 288 OFFCURVE",
"20 231 OFFCURVE",
"20 183 CURVE SMOOTH",
"20 168 LINE",
"24 135 LINE SMOOTH",
"27 106 OFFCURVE",
"45 68 OFFCURVE",
"54 54 CURVE SMOOTH",
"74 22 OFFCURVE",
"111 0 OFFCURVE",
"158 0 CURVE SMOOTH",
"203 0 OFFCURVE",
"245 22 OFFCURVE",
"261 58 CURVE",
"266 44 OFFCURVE",
"271 35 OFFCURVE",
"274 32 CURVE SMOOTH",
"293 16 LINE SMOOTH",
"301 10 OFFCURVE",
"310 4 OFFCURVE",
"319 3 CURVE SMOOTH",
"351 0 LINE",
"386 4 LINE",
"425 18 LINE",
"440 25 OFFCURVE",
"455 39 OFFCURVE",
"469 59 CURVE SMOOTH",
"499 101 OFFCURVE",
"514 159 OFFCURVE",
"514 236 CURVE SMOOTH",
"514 296 OFFCURVE",
"505 350 OFFCURVE",
"487 396 CURVE SMOOTH",
"470 438 LINE",
"448 479 LINE SMOOTH",
"421 530 OFFCURVE",
"419 535 OFFCURVE",
"380 560 CURVE SMOOTH",
"363 572 OFFCURVE",
"347 579 OFFCURVE",
"331 580 CURVE",
"308 587 OFFCURVE",
"272 592 OFFCURVE",
"224 595 CURVE SMOOTH",
"217 595 OFFCURVE",
"209 596 OFFCURVE",
"202 596 CURVE SMOOTH",
"150 596 OFFCURVE",
"93 582 OFFCURVE",
"31 554 CURVE",
"49 516 LINE",
"89 539 OFFCURVE",
"125 550 OFFCURVE",
"155 550 CURVE SMOOTH",
"158 550 OFFCURVE",
"162 550 OFFCURVE",
"165 550 CURVE SMOOTH",
"183 550 OFFCURVE",
"200 547 OFFCURVE",
"216 540 CURVE",
"227 528 OFFCURVE",
"240 517 OFFCURVE",
"240 498 CURVE SMOOTH",
"240 486 OFFCURVE",
"236 469 OFFCURVE",
"229 447 CURVE",
"216 455 OFFCURVE",
"205 461 OFFCURVE",
"195 465 CURVE SMOOTH",
"184 470 OFFCURVE",
"178 473 OFFCURVE",
"176 473 CURVE",
"174 475 OFFCURVE",
"169 475 OFFCURVE",
"161 475 CURVE",
"159 477 OFFCURVE",
"152 477 OFFCURVE",
"143 477 CURVE SMOOTH",
"74 477 OFFCURVE",
"40 437 OFFCURVE",
"40 356 CURVE",
"13 356 LINE"
);
},
{
closed = 1;
nodes = (
"66 165 CURVE SMOOTH",
"66 169 OFFCURVE",
"66 174 OFFCURVE",
"66 178 CURVE SMOOTH",
"68 221 LINE",
"79 259 LINE SMOOTH",
"85 281 OFFCURVE",
"111 313 OFFCURVE",
"127 317 CURVE",
"238 317 LINE",
"238 403 LINE",
"253 391 LINE SMOOTH",
"262 384 OFFCURVE",
"268 380 OFFCURVE",
"270 380 CURVE SMOOTH",
"293 374 LINE",
"319 373 LINE",
"338 373 LINE",
"375 377 OFFCURVE",
"416 400 OFFCURVE",
"426 433 CURVE",
"461 384 OFFCURVE",
"473 287 OFFCURVE",
"473 245 CURVE SMOOTH",
"473 242 OFFCURVE",
"473 239 OFFCURVE",
"473 236 CURVE SMOOTH",
"472 211 LINE",
"468 172 LINE",
"462 146 LINE",
"457 127 LINE SMOOTH",
"455 118 OFFCURVE",
"451 109 OFFCURVE",
"447 101 CURVE SMOOTH",
"445 98 OFFCURVE",
"443 91 OFFCURVE",
"437 84 CURVE SMOOTH",
"415 55 OFFCURVE",
"390 42 OFFCURVE",
"365 42 CURVE SMOOTH",
"324 42 OFFCURVE",
"297 54 OFFCURVE",
"291 82 CURVE SMOOTH",
"285 112 LINE",
"285 268 LINE",
"238 268 LINE",
"238 207 LINE",
"237 149 LINE",
"232 93 LINE",
"224 63 OFFCURVE",
"188 41 OFFCURVE",
"156 41 CURVE SMOOTH",
"98 41 OFFCURVE",
"66 102 OFFCURVE"
);
},
{
closed = 1;
nodes = (
"83 358 LINE",
"83 374 LINE",
"86 401 LINE",
"93 426 OFFCURVE",
"111 439 OFFCURVE",
"139 439 CURVE SMOOTH",
"172 439 OFFCURVE",
"198 423 OFFCURVE",
"198 374 CURVE SMOOTH",
"198 358 LINE"
);
},
{
closed = 1;
nodes = (
"260 447 CURVE SMOOTH",
"260 448 OFFCURVE",
"262 455 OFFCURVE",
"267 467 CURVE SMOOTH",
"271 479 OFFCURVE",
"272 490 OFFCURVE",
"272 499 CURVE SMOOTH",
"272 513 OFFCURVE",
"269 525 OFFCURVE",
"261 538 CURVE",
"286 534 OFFCURVE",
"308 531 OFFCURVE",
"328 527 CURVE",
"369 506 OFFCURVE",
"389 484 OFFCURVE",
"389 461 CURVE SMOOTH",
"389 452 OFFCURVE",
"386 442 OFFCURVE",
"379 432 CURVE",
"363 424 OFFCURVE",
"339 413 OFFCURVE",
"317 413 CURVE SMOOTH",
"291 413 OFFCURVE",
"272 425 OFFCURVE",
"261 443 CURVE SMOOTH",
"261 444 OFFCURVE",
"260 445 OFFCURVE"
);
},
{
closed = 1;
nodes = (
"408 668 LINE",
"412 491 LINE",
"455 490 LINE",
"453 668 LINE"
);
}
);
width = 523;
}
);
},
{
glyphname = uni0DAA0DD2;
lastChange = "2017-09-18 08:47:20 +0000";
layers = (
{
layerId = "902E803C-EB75-4CF8-B2E0-AD6A3AB6F03E";
paths = (
{
closed = 1;
nodes = (
"13 317 LINE",
"64 317 LINE",
"38 288 OFFCURVE",
"20 231 OFFCURVE",
"20 183 CURVE SMOOTH",
"20 168 LINE",
"24 135 LINE SMOOTH",
"27 106 OFFCURVE",
"45 68 OFFCURVE",
"54 54 CURVE SMOOTH",
"74 22 OFFCURVE",
"111 0 OFFCURVE",
"158 0 CURVE SMOOTH",
"203 0 OFFCURVE",
"245 22 OFFCURVE",
"261 58 CURVE",
"266 44 OFFCURVE",
"271 35 OFFCURVE",
"274 32 CURVE SMOOTH",
"293 16 LINE SMOOTH",
"301 10 OFFCURVE",
"310 4 OFFCURVE",
"319 3 CURVE SMOOTH",
"351 0 LINE",
"386 4 LINE",
"425 18 LINE",
"440 25 OFFCURVE",
"455 39 OFFCURVE",
"469 59 CURVE SMOOTH",
"499 101 OFFCURVE",
"514 159 OFFCURVE",
"514 236 CURVE SMOOTH",
"514 296 OFFCURVE",
"505 350 OFFCURVE",
"487 396 CURVE SMOOTH",
"470 438 LINE",
"448 479 LINE SMOOTH",
"421 530 OFFCURVE",
"419 535 OFFCURVE",
"380 560 CURVE SMOOTH",
"363 572 OFFCURVE",
"347 579 OFFCURVE",
"331 580 CURVE",
"313 585 OFFCURVE",
"277 588 OFFCURVE",
"223 588 CURVE SMOOTH",
"208 588 OFFCURVE",
"191 585 OFFCURVE",
"173 587 CURVE SMOOTH",
"108 594 LINE",
"93 603 OFFCURVE",
"84 614 OFFCURVE",
"84 635 CURVE SMOOTH",
"84 665 OFFCURVE",
"103 682 OFFCURVE",
"130 686 CURVE SMOOTH",
"149 688 OFFCURVE",
"175 690 OFFCURVE",
"210 691 CURVE SMOOTH",
"269 692 LINE SMOOTH",
"276 692 OFFCURVE",
"283 693 OFFCURVE",
"290 693 CURVE SMOOTH",
"335 693 OFFCURVE",
"386 686 OFFCURVE",
"414 673 CURVE SMOOTH",
"446 658 OFFCURVE",
"454 624 OFFCURVE",
"454 585 CURVE SMOOTH",
"454 579 OFFCURVE",
"453 574 OFFCURVE",
"453 572 CURVE",
"487 568 LINE",
"487 598 LINE",
"488 606 OFFCURVE",
"488 614 OFFCURVE",
"488 622 CURVE SMOOTH",
"488 671 OFFCURVE",
"444 705 OFFCURVE",
"410 716 CURVE SMOOTH",
"384 725 OFFCURVE",
"357 727 OFFCURVE",
"326 727 CURVE SMOOTH",
"316 727 OFFCURVE",
"305 728 OFFCURVE",
"291 728 CURVE SMOOTH",
"247 728 LINE",
"215 727 OFFCURVE",
"182 727 OFFCURVE",
"154 725 CURVE SMOOTH",
"125 722 OFFCURVE",
"102 719 OFFCURVE",
"91 713 CURVE SMOOTH",
"60 696 OFFCURVE",
"45 692 OFFCURVE",
"40 647 CURVE SMOOTH",
"39 640 OFFCURVE",
"38 634 OFFCURVE",
"38 627 CURVE SMOOTH",
"38 600 OFFCURVE",
"49 578 OFFCURVE",
"72 560 CURVE",
"89 553 OFFCURVE",
"109 549 OFFCURVE",
"134 549 CURVE SMOOTH",
"141 549 OFFCURVE",
"147 549 OFFCURVE",
"155 550 CURVE SMOOTH",
"158 550 OFFCURVE",
"162 550 OFFCURVE",
"165 550 CURVE SMOOTH",
"183 550 OFFCURVE",
"200 547 OFFCURVE",
"216 540 CURVE",
"227 528 OFFCURVE",
"240 517 OFFCURVE",
"240 498 CURVE SMOOTH",
"240 486 OFFCURVE",
"236 469 OFFCURVE",
"229 447 CURVE",
"216 455 OFFCURVE",
"205 461 OFFCURVE",
"195 465 CURVE SMOOTH",
"184 470 OFFCURVE",
"178 473 OFFCURVE",
"176 473 CURVE",
"174 475 OFFCURVE",
"169 475 OFFCURVE",
"161 475 CURVE",
"159 477 OFFCURVE",
"152 477 OFFCURVE",
"143 477 CURVE SMOOTH",
"74 477 OFFCURVE",
"40 437 OFFCURVE",
"40 356 CURVE",
"13 356 LINE"
);
},
{
closed = 1;
nodes = (
"66 165 CURVE SMOOTH",
"66 169 OFFCURVE",
"66 174 OFFCURVE",
"66 178 CURVE SMOOTH",
"68 221 LINE",
"79 259 LINE SMOOTH",
"85 281 OFFCURVE",
"111 313 OFFCURVE",
"127 317 CURVE",
"238 317 LINE",
"238 403 LINE",
"253 391 LINE SMOOTH",
"262 384 OFFCURVE",
"268 380 OFFCURVE",
"270 380 CURVE SMOOTH",
"293 374 LINE",
"319 373 LINE",
"338 373 LINE",
"375 377 OFFCURVE",
"416 400 OFFCURVE",
"426 433 CURVE",
"461 384 OFFCURVE",
"473 287 OFFCURVE",
"473 245 CURVE SMOOTH",
"473 242 OFFCURVE",
"473 239 OFFCURVE",
"473 236 CURVE SMOOTH",
"472 211 LINE",
"468 172 LINE",
"462 146 LINE",
"457 127 LINE SMOOTH",
"455 118 OFFCURVE",
"451 109 OFFCURVE",
"447 101 CURVE SMOOTH",
"445 98 OFFCURVE",
"443 91 OFFCURVE",
"437 84 CURVE SMOOTH",
"415 55 OFFCURVE",
"390 42 OFFCURVE",
"365 42 CURVE SMOOTH",
"324 42 OFFCURVE",
"297 54 OFFCURVE",
"291 82 CURVE SMOOTH",
"285 112 LINE",
"285 268 LINE",
"238 268 LINE",
"238 207 LINE",
"237 149 LINE",
"232 93 LINE",
"224 63 OFFCURVE",
"188 41 OFFCURVE",
"156 41 CURVE SMOOTH",
"98 41 OFFCURVE",
"66 102 OFFCURVE"
);
},
{
closed = 1;
nodes = (
"83 358 LINE",
"83 374 LINE",
"86 401 LINE",
"93 426 OFFCURVE",
"111 439 OFFCURVE",
"139 439 CURVE SMOOTH",
"172 439 OFFCURVE",
"198 423 OFFCURVE",
"198 374 CURVE SMOOTH",
"198 358 LINE"
);
},
{
closed = 1;
nodes = (
"260 447 CURVE SMOOTH",
"260 448 OFFCURVE",
"262 455 OFFCURVE",
"267 467 CURVE SMOOTH",
"271 479 OFFCURVE",
"272 490 OFFCURVE",
"272 499 CURVE SMOOTH",
"272 513 OFFCURVE",
"269 525 OFFCURVE",
"261 538 CURVE",
"286 534 OFFCURVE",
"308 531 OFFCURVE",
"328 527 CURVE",
"369 506 OFFCURVE",
"389 484 OFFCURVE",
"389 461 CURVE SMOOTH",
"389 452 OFFCURVE",
"386 442 OFFCURVE",
"379 432 CURVE",
"363 424 OFFCURVE",
"339 413 OFFCURVE",
"317 413 CURVE SMOOTH",
"291 413 OFFCURVE",
"272 425 OFFCURVE",
"261 443 CURVE SMOOTH",
"261 444 OFFCURVE",
"260 445 OFFCURVE"
);
}
);
width = 523;
}
);
},
{
glyphname = uni0DAA0DD3;
lastChange = "2017-09-18 08:47:20 +0000";
layers = (
{
layerId = "902E803C-EB75-4CF8-B2E0-AD6A3AB6F03E";
paths = (
{
closed = 1;
nodes = (
"13 317 LINE",
"64 317 LINE",
"38 288 OFFCURVE",
"20 231 OFFCURVE",
"20 183 CURVE SMOOTH",
"20 168 LINE",
"24 135 LINE SMOOTH",
"27 106 OFFCURVE",
"45 68 OFFCURVE",
"54 54 CURVE SMOOTH",
"74 22 OFFCURVE",
"111 0 OFFCURVE",
"158 0 CURVE SMOOTH",
"203 0 OFFCURVE",
"245 22 OFFCURVE",
"261 58 CURVE",
"266 44 OFFCURVE",
"271 35 OFFCURVE",
"274 32 CURVE SMOOTH",
"293 16 LINE SMOOTH",
"301 10 OFFCURVE",
"310 4 OFFCURVE",
"319 3 CURVE SMOOTH",
"351 0 LINE",
"386 4 LINE",
"425 18 LINE",
"440 25 OFFCURVE",
"455 39 OFFCURVE",
"469 59 CURVE SMOOTH",
"499 101 OFFCURVE",
"514 159 OFFCURVE",
"514 236 CURVE SMOOTH",
"514 296 OFFCURVE",
"505 350 OFFCURVE",
"487 396 CURVE SMOOTH",
"470 438 LINE",
"448 479 LINE SMOOTH",
"421 530 OFFCURVE",
"419 535 OFFCURVE",
"380 560 CURVE SMOOTH",
"363 572 OFFCURVE",
"347 579 OFFCURVE",
"331 580 CURVE",
"313 585 OFFCURVE",
"277 588 OFFCURVE",
"223 588 CURVE SMOOTH",
"208 588 OFFCURVE",
"191 585 OFFCURVE",
"173 587 CURVE SMOOTH",
"108 594 LINE",
"93 603 OFFCURVE",
"84 614 OFFCURVE",
"84 635 CURVE SMOOTH",
"84 665 OFFCURVE",
"103 682 OFFCURVE",
"130 686 CURVE SMOOTH",
"149 688 OFFCURVE",
"175 690 OFFCURVE",
"210 691 CURVE SMOOTH",
"269 692 LINE SMOOTH",
"289 693 OFFCURVE",
"308 693 OFFCURVE",
"326 693 CURVE SMOOTH",
"374 693 OFFCURVE",
"423 688 OFFCURVE",
"441 662 CURVE SMOOTH",
"447 654 OFFCURVE",
"452 643 OFFCURVE",
"452 632 CURVE SMOOTH",
"452 617 OFFCURVE",
"438 600 OFFCURVE",
"405 600 CURVE SMOOTH",
"376 600 OFFCURVE",
"359 627 OFFCURVE",
"359 657 CURVE SMOOTH",
"359 667 OFFCURVE",
"362 678 OFFCURVE",
"366 686 CURVE",
"330 685 LINE",
"327 645 LINE SMOOTH",
"325 617 OFFCURVE",
"340 597 OFFCURVE",
"358 584 CURVE SMOOTH",
"375 572 OFFCURVE",
"396 566 OFFCURVE",
"405 566 CURVE SMOOTH",
"442 566 OFFCURVE",
"475 584 OFFCURVE",
"484 604 CURVE SMOOTH",
"486 609 OFFCURVE",
"488 612 OFFCURVE",
"488 614 CURVE SMOOTH",
"488 618 OFFCURVE",
"488 622 OFFCURVE",
"488 625 CURVE SMOOTH",
"488 672 OFFCURVE",
"442 706 OFFCURVE",
"410 716 CURVE SMOOTH",
"384 725 OFFCURVE",
"357 727 OFFCURVE",
"326 727 CURVE SMOOTH",
"316 727 OFFCURVE",
"305 728 OFFCURVE",
"291 728 CURVE SMOOTH",
"247 728 LINE",
"215 727 OFFCURVE",
"182 727 OFFCURVE",
"154 725 CURVE SMOOTH",
"125 722 OFFCURVE",
"102 719 OFFCURVE",
"91 713 CURVE SMOOTH",
"60 696 OFFCURVE",
"45 692 OFFCURVE",
"40 647 CURVE SMOOTH",
"39 640 OFFCURVE",
"38 634 OFFCURVE",
"38 627 CURVE SMOOTH",
"38 600 OFFCURVE",
"49 578 OFFCURVE",
"72 560 CURVE",
"89 553 OFFCURVE",
"109 549 OFFCURVE",
"134 549 CURVE SMOOTH",
"141 549 OFFCURVE",
"147 549 OFFCURVE",
"155 550 CURVE SMOOTH",
"158 550 OFFCURVE",
"162 550 OFFCURVE",
"165 550 CURVE SMOOTH",
"183 550 OFFCURVE",
"200 547 OFFCURVE",
"216 540 CURVE",
"227 528 OFFCURVE",
"240 517 OFFCURVE",
"240 498 CURVE SMOOTH",
"240 486 OFFCURVE",
"236 469 OFFCURVE",
"229 447 CURVE",
"216 455 OFFCURVE",
"205 461 OFFCURVE",
"195 465 CURVE SMOOTH",
"184 470 OFFCURVE",
"178 473 OFFCURVE",
"176 473 CURVE",
"174 475 OFFCURVE",
"169 475 OFFCURVE",
"161 475 CURVE",
"159 477 OFFCURVE",
"152 477 OFFCURVE",
"143 477 CURVE SMOOTH",
"74 477 OFFCURVE",
"40 437 OFFCURVE",
"40 356 CURVE",
"13 356 LINE"
);
},
{
closed = 1;
nodes = (
"66 165 CURVE SMOOTH",
"66 169 OFFCURVE",
"66 174 OFFCURVE",
"66 178 CURVE SMOOTH",
"68 221 LINE",
"79 259 LINE SMOOTH",
"85 281 OFFCURVE",
"111 313 OFFCURVE",
"127 317 CURVE",
"238 317 LINE",
"238 403 LINE",
"253 391 LINE SMOOTH",
"262 384 OFFCURVE",
"268 380 OFFCURVE",
"270 380 CURVE SMOOTH",
"293 374 LINE",
"319 373 LINE",
"338 373 LINE",
"375 377 OFFCURVE",
"416 400 OFFCURVE",
"426 433 CURVE",
"461 384 OFFCURVE",
"473 287 OFFCURVE",
"473 245 CURVE SMOOTH",
"473 242 OFFCURVE",
"473 239 OFFCURVE",
"473 236 CURVE SMOOTH",
"472 211 LINE",
"468 172 LINE",
"462 146 LINE",
"457 127 LINE SMOOTH",
"455 118 OFFCURVE",
"451 109 OFFCURVE",
"447 101 CURVE SMOOTH",
"445 98 OFFCURVE",
"443 91 OFFCURVE",
"437 84 CURVE SMOOTH",
"415 55 OFFCURVE",
"390 42 OFFCURVE",
"365 42 CURVE SMOOTH",
"324 42 OFFCURVE",
"297 54 OFFCURVE",
"291 82 CURVE SMOOTH",
"285 112 LINE",
"285 268 LINE",
"238 268 LINE",
"238 207 LINE",
"237 149 LINE",
"232 93 LINE",
"224 63 OFFCURVE",
"188 41 OFFCURVE",
"156 41 CURVE SMOOTH",
"98 41 OFFCURVE",
"66 102 OFFCURVE"
);
},
{
closed = 1;
nodes = (
"83 358 LINE",
"83 374 LINE",
"86 401 LINE",
"93 426 OFFCURVE",
"111 439 OFFCURVE",
"139 439 CURVE SMOOTH",
"172 439 OFFCURVE",
"198 423 OFFCURVE",
"198 374 CURVE SMOOTH",
"198 358 LINE"
);
},
{
closed = 1;
nodes = (
"260 447 CURVE SMOOTH",
"260 448 OFFCURVE",
"262 455 OFFCURVE",
"267 467 CURVE SMOOTH",
"271 479 OFFCURVE",
"272 490 OFFCURVE",
"272 499 CURVE SMOOTH",
"272 513 OFFCURVE",
"269 525 OFFCURVE",
"261 538 CURVE",
"286 534 OFFCURVE",
"308 531 OFFCURVE",
"328 527 CURVE",
"369 506 OFFCURVE",
"389 484 OFFCURVE",
"389 461 CURVE SMOOTH",
"389 452 OFFCURVE",
"386 442 OFFCURVE",
"379 432 CURVE",
"363 424 OFFCURVE",
"339 413 OFFCURVE",
"317 413 CURVE SMOOTH",
"291 413 OFFCURVE",
"272 425 OFFCURVE",
"261 443 CURVE SMOOTH",
"261 444 OFFCURVE",
"260 445 OFFCURVE"
);
}
);
width = 523;
}
);
},
{
glyphname = uni0DAC0DCA;
lastChange = "2017-09-18 08:47:20 +0000";
layers = (
{
layerId = "902E803C-EB75-4CF8-B2E0-AD6A3AB6F03E";
paths = (
{
closed = 1;
nodes = (
"13 295 CURVE SMOOTH",
"13 286 OFFCURVE",
"13 275 OFFCURVE",
"16 265 CURVE SMOOTH",
"20 251 OFFCURVE",
"46 208 OFFCURVE",
"59 202 CURVE",
"49 210 OFFCURVE",
"39 263 OFFCURVE",
"39 285 CURVE SMOOTH",
"39 288 OFFCURVE",
"39 291 OFFCURVE",
"39 292 CURVE SMOOTH",
"40 294 OFFCURVE",
"40 296 OFFCURVE",
"40 299 CURVE SMOOTH",
"40 314 OFFCURVE",
"52 330 OFFCURVE",
"63 341 CURVE SMOOTH",
"66 346 OFFCURVE",
"70 349 OFFCURVE",
"76 353 CURVE SMOOTH",
"82 356 OFFCURVE",
"88 361 OFFCURVE",
"100 367 CURVE",
"99 369 OFFCURVE",
"99 371 OFFCURVE",
"99 373 CURVE SMOOTH",
"99 380 OFFCURVE",
"111 420 LINE",
"110 419 OFFCURVE",
"108 415 CURVE",
"97 410 OFFCURVE",
"86 403 OFFCURVE",
"74 398 CURVE SMOOTH",
"70 396 OFFCURVE",
"68 395 OFFCURVE",
"67 394 CURVE SMOOTH",
"34 370 OFFCURVE",
"13 338 OFFCURVE"
);
},
{
closed = 1;
nodes = (
"63 171 CURVE SMOOTH",
"63 77 OFFCURVE",
"104 -1 OFFCURVE",
"193 -1 CURVE SMOOTH",
"243 -1 OFFCURVE",
"277 21 OFFCURVE",
"296 63 CURVE",
"312 21 OFFCURVE",
"348 -1 OFFCURVE",
"403 -1 CURVE SMOOTH",
"522 -1 OFFCURVE",
"559 123 OFFCURVE",
"559 260 CURVE SMOOTH",
"559 338 OFFCURVE",
"547 404 OFFCURVE",
"527 456 CURVE SMOOTH",
"514 489 OFFCURVE",
"497 522 OFFCURVE",
"467 546 CURVE SMOOTH",
"421 583 OFFCURVE",
"358 602 OFFCURVE",
"280 602 CURVE SMOOTH",
"272 602 OFFCURVE",
"264 602 OFFCURVE",
"256 602 CURVE SMOOTH",
"193 601 LINE",
"177 607 OFFCURVE",
"158 622 OFFCURVE",
"158 642 CURVE SMOOTH",
"158 688 OFFCURVE",
"240 689 OFFCURVE",
"286 689 CURVE SMOOTH",
"296 689 OFFCURVE",
"304 689 OFFCURVE",
"311 689 CURVE SMOOTH",
"361 689 OFFCURVE",
"461 692 OFFCURVE",
"487 669 CURVE SMOOTH",
"496 660 OFFCURVE",
"504 646 OFFCURVE",
"504 626 CURVE SMOOTH",
"504 614 OFFCURVE",
"500 600 OFFCURVE",
"491 585 CURVE",
"539 586 LINE",
"542 603 OFFCURVE",
"544 618 OFFCURVE",
"544 631 CURVE SMOOTH",
"544 644 OFFCURVE",
"542 655 OFFCURVE",
"540 665 CURVE SMOOTH",
"526 704 OFFCURVE",
"500 715 OFFCURVE",
"469 720 CURVE SMOOTH",
"437 724 OFFCURVE",
"398 726 OFFCURVE",
"359 727 CURVE SMOOTH",
"340 727 OFFCURVE",
"324 727 OFFCURVE",
"310 728 CURVE SMOOTH",
"300 728 OFFCURVE",
"289 728 OFFCURVE",
"275 728 CURVE SMOOTH",
"231 728 OFFCURVE",
"182 724 OFFCURVE",
"153 712 CURVE SMOOTH",
"127 701 OFFCURVE",
"109 682 OFFCURVE",
"109 642 CURVE SMOOTH",
"109 633 OFFCURVE",
"111 626 OFFCURVE",
"115 620 CURVE SMOOTH",
"120 611 OFFCURVE",
"130 603 OFFCURVE",
"146 594 CURVE",
"138 594 OFFCURVE",
"130 594 OFFCURVE",
"123 594 CURVE SMOOTH",
"108 594 OFFCURVE",
"95 594 OFFCURVE",
"83 592 CURVE",
"83 545 LINE",
"137 549 OFFCURVE",
"189 551 OFFCURVE",
"241 551 CURVE SMOOTH",
"251 551 OFFCURVE",
"262 551 OFFCURVE",
"272 551 CURVE SMOOTH",
"285 551 OFFCURVE",
"296 553 OFFCURVE",
"308 553 CURVE SMOOTH",
"388 553 OFFCURVE",
"446 526 OFFCURVE",
"474 469 CURVE SMOOTH",
"502 412 OFFCURVE",
"511 353 OFFCURVE",
"515 296 CURVE SMOOTH",
"516 275 OFFCURVE",
"518 255 OFFCURVE",
"518 236 CURVE SMOOTH",
"518 179 OFFCURVE",
"509 131 OFFCURVE",
"485 96 CURVE SMOOTH",
"459 59 OFFCURVE",
"429 41 OFFCURVE",
"402 41 CURVE SMOOTH",
"345 41 OFFCURVE",
"316 75 OFFCURVE",
"316 142 CURVE SMOOTH",
"316 210 LINE",
"317 234 LINE",
"273 234 LINE",
"273 230 OFFCURVE",
"273 226 OFFCURVE",
"273 219 CURVE SMOOTH",
"274 212 OFFCURVE",
"274 208 OFFCURVE",
"274 204 CURVE SMOOTH",
"274 169 LINE SMOOTH",
"274 83 OFFCURVE",
"246 41 OFFCURVE",
"191 41 CURVE SMOOTH",
"138 41 OFFCURVE",
"106 95 OFFCURVE",
"106 152 CURVE SMOOTH",
"106 254 OFFCURVE",
"130 306 OFFCURVE",
"178 306 CURVE SMOOTH",
"318 306 LINE",
"318 375 LINE SMOOTH",
"318 430 OFFCURVE",
"274 467 OFFCURVE",
"219 467 CURVE SMOOTH",
"172 467 OFFCURVE",
"141 458 OFFCURVE",
"124 438 CURVE SMOOTH",
"103 413 OFFCURVE",
"100 369 OFFCURVE",
"100 342 CURVE",
"71 342 LINE",
"71 306 LINE",
"109 306 LINE",
"78 282 OFFCURVE",
"63 237 OFFCURVE"
);
},
{
closed = 1;
nodes = (
"139 343 LINE",
"144 406 OFFCURVE",
"154 433 OFFCURVE",
"209 433 CURVE SMOOTH",
"254 433 OFFCURVE",
"277 411 OFFCURVE",
"277 366 CURVE SMOOTH",
"277 343 LINE"
);
}
);
width = 583;
}
);
},
{
glyphname = uni0DAC0DD2;
lastChange = "2017-09-18 08:47:20 +0000";
layers = (
{
layerId = "902E803C-EB75-4CF8-B2E0-AD6A3AB6F03E";
paths = (
{
closed = 1;
nodes = (
"13 295 CURVE SMOOTH",
"13 286 OFFCURVE",
"13 275 OFFCURVE",
"16 265 CURVE SMOOTH",
"20 251 OFFCURVE",
"46 208 OFFCURVE",
"59 202 CURVE",
"49 210 OFFCURVE",
"39 263 OFFCURVE",
"39 285 CURVE SMOOTH",
"39 288 OFFCURVE",
"39 291 OFFCURVE",
"39 292 CURVE SMOOTH",
"40 294 OFFCURVE",
"40 296 OFFCURVE",
"40 299 CURVE SMOOTH",
"40 314 OFFCURVE",
"52 330 OFFCURVE",
"63 341 CURVE SMOOTH",
"66 346 OFFCURVE",
"70 349 OFFCURVE",
"76 353 CURVE SMOOTH",
"82 356 OFFCURVE",
"88 361 OFFCURVE",
"100 367 CURVE",
"99 369 OFFCURVE",
"99 371 OFFCURVE",
"99 373 CURVE SMOOTH",
"99 380 OFFCURVE",
"111 420 LINE",
"110 419 OFFCURVE",
"108 415 CURVE",
"97 410 OFFCURVE",
"86 403 OFFCURVE",
"74 398 CURVE SMOOTH",
"70 396 OFFCURVE",
"68 395 OFFCURVE",
"67 394 CURVE SMOOTH",
"34 370 OFFCURVE",
"13 338 OFFCURVE"
);
},
{
closed = 1;
nodes = (
"63 171 CURVE SMOOTH",
"63 77 OFFCURVE",
"104 -1 OFFCURVE",
"193 -1 CURVE SMOOTH",
"243 -1 OFFCURVE",
"277 21 OFFCURVE",
"296 63 CURVE",
"312 21 OFFCURVE",
"348 -1 OFFCURVE",
"403 -1 CURVE SMOOTH",
"522 -1 OFFCURVE",
"559 123 OFFCURVE",
"559 260 CURVE SMOOTH",
"559 338 OFFCURVE",
"547 404 OFFCURVE",
"527 456 CURVE SMOOTH",
"514 489 OFFCURVE",
"497 522 OFFCURVE",
"467 546 CURVE SMOOTH",
"418 586 OFFCURVE",
"372 596 OFFCURVE",
"296 596 CURVE SMOOTH",
"284 596 OFFCURVE",
"271 595 OFFCURVE",
"260 595 CURVE SMOOTH",
"185 593 LINE SMOOTH",
"180 592 OFFCURVE",
"175 592 OFFCURVE",
"170 592 CURVE SMOOTH",
"138 592 OFFCURVE",
"129 616 OFFCURVE",
"129 640 CURVE SMOOTH",
"129 691 OFFCURVE",
"258 689 OFFCURVE",
"311 689 CURVE SMOOTH",
"361 689 OFFCURVE",
"461 692 OFFCURVE",
"487 669 CURVE SMOOTH",
"496 660 OFFCURVE",
"504 646 OFFCURVE",
"504 626 CURVE SMOOTH",
"504 614 OFFCURVE",
"500 600 OFFCURVE",
"491 585 CURVE",
"539 586 LINE",
"542 603 OFFCURVE",
"544 618 OFFCURVE",
"544 631 CURVE SMOOTH",
"544 644 OFFCURVE",
"542 655 OFFCURVE",
"540 665 CURVE SMOOTH",
"526 704 OFFCURVE",
"500 715 OFFCURVE",
"469 720 CURVE SMOOTH",
"437 724 OFFCURVE",
"398 726 OFFCURVE",
"359 727 CURVE SMOOTH",
"340 727 OFFCURVE",
"324 727 OFFCURVE",
"310 728 CURVE SMOOTH",
"300 728 OFFCURVE",
"289 728 OFFCURVE",
"275 728 CURVE SMOOTH",
"199 728 OFFCURVE",
"143 719 OFFCURVE",
"104 683 CURVE SMOOTH",
"89 669 OFFCURVE",
"80 652 OFFCURVE",
"80 630 CURVE SMOOTH",
"80 599 OFFCURVE",
"91 570 OFFCURVE",
"121 556 CURVE SMOOTH",
"134 549 OFFCURVE",
"156 545 OFFCURVE",
"188 545 CURVE SMOOTH",
"218 545 OFFCURVE",
"270 553 OFFCURVE",
"308 553 CURVE SMOOTH",
"388 553 OFFCURVE",
"446 526 OFFCURVE",
"474 469 CURVE SMOOTH",
"502 412 OFFCURVE",
"511 353 OFFCURVE",
"515 296 CURVE SMOOTH",
"516 275 OFFCURVE",
"518 255 OFFCURVE",
"518 236 CURVE SMOOTH",
"518 179 OFFCURVE",
"509 131 OFFCURVE",
"485 96 CURVE SMOOTH",
"459 59 OFFCURVE",
"429 41 OFFCURVE",
"402 41 CURVE SMOOTH",
"345 41 OFFCURVE",
"316 75 OFFCURVE",
"316 142 CURVE SMOOTH",
"316 210 LINE",
"317 234 LINE",
"273 234 LINE",
"273 230 OFFCURVE",
"273 226 OFFCURVE",
"273 219 CURVE SMOOTH",
"274 212 OFFCURVE",
"274 208 OFFCURVE",
"274 204 CURVE SMOOTH",
"274 169 LINE SMOOTH",
"274 83 OFFCURVE",
"246 41 OFFCURVE",
"191 41 CURVE SMOOTH",
"138 41 OFFCURVE",
"106 95 OFFCURVE",
"106 152 CURVE SMOOTH",
"106 254 OFFCURVE",
"130 306 OFFCURVE",
"178 306 CURVE SMOOTH",
"318 306 LINE",
"318 375 LINE SMOOTH",
"318 430 OFFCURVE",
"274 467 OFFCURVE",
"219 467 CURVE SMOOTH",
"172 467 OFFCURVE",
"141 458 OFFCURVE",
"124 438 CURVE SMOOTH",
"103 413 OFFCURVE",
"100 369 OFFCURVE",
"100 342 CURVE",
"71 342 LINE",
"71 306 LINE",
"109 306 LINE",
"78 282 OFFCURVE",
"63 237 OFFCURVE"
);
},
{
closed = 1;
nodes = (
"139 343 LINE",
"144 406 OFFCURVE",
"154 433 OFFCURVE",
"209 433 CURVE SMOOTH",
"254 433 OFFCURVE",
"277 411 OFFCURVE",
"277 366 CURVE SMOOTH",
"277 343 LINE"
);
}
);
width = 583;
}
);
},
{
glyphname = uni0DAC0DD3;
lastChange = "2017-09-18 09:12:25 +0000";
layers = (
{
layerId = "902E803C-EB75-4CF8-B2E0-AD6A3AB6F03E";
paths = (
{
closed = 1;
nodes = (
"13 295 CURVE SMOOTH",
"13 286 OFFCURVE",
"13 275 OFFCURVE",
"16 265 CURVE SMOOTH",
"20 251 OFFCURVE",
"46 208 OFFCURVE",
"59 202 CURVE",
"49 210 OFFCURVE",
"39 263 OFFCURVE",
"39 285 CURVE SMOOTH",
"39 288 OFFCURVE",
"39 291 OFFCURVE",
"39 292 CURVE SMOOTH",
"40 294 OFFCURVE",
"40 296 OFFCURVE",
"40 299 CURVE SMOOTH",
"40 314 OFFCURVE",
"52 330 OFFCURVE",
"63 341 CURVE SMOOTH",
"66 346 OFFCURVE",
"70 349 OFFCURVE",
"76 353 CURVE SMOOTH",
"82 356 OFFCURVE",
"88 361 OFFCURVE",
"100 367 CURVE",
"99 369 OFFCURVE",
"99 371 OFFCURVE",
"99 373 CURVE SMOOTH",
"99 380 OFFCURVE",
"111 420 LINE",
"110 419 OFFCURVE",
"108 415 CURVE",
"97 410 OFFCURVE",
"86 403 OFFCURVE",
"74 398 CURVE SMOOTH",
"70 396 OFFCURVE",
"68 395 OFFCURVE",
"67 394 CURVE SMOOTH",
"34 370 OFFCURVE",
"13 338 OFFCURVE"
);
},
{
closed = 1;
nodes = (
"63 171 CURVE SMOOTH",
"63 77 OFFCURVE",
"104 -1 OFFCURVE",
"193 -1 CURVE SMOOTH",
"243 -1 OFFCURVE",
"277 21 OFFCURVE",
"296 63 CURVE",
"312 21 OFFCURVE",
"348 -1 OFFCURVE",
"403 -1 CURVE SMOOTH",
"522 -1 OFFCURVE",
"559 123 OFFCURVE",
"559 260 CURVE SMOOTH",
"559 338 OFFCURVE",
"547 404 OFFCURVE",
"527 456 CURVE SMOOTH",
"514 489 OFFCURVE",
"497 522 OFFCURVE",
"467 546 CURVE SMOOTH",
"419 585 OFFCURVE",
"373 596 OFFCURVE",
"297 596 CURVE SMOOTH",
"262 596 OFFCURVE",
"220 588 OFFCURVE",
"190 588 CURVE SMOOTH",
"151 588 OFFCURVE",
"129 606 OFFCURVE",
"129 630 CURVE SMOOTH",
"129 657 OFFCURVE",
"146 667 OFFCURVE",
"167 675 CURVE SMOOTH",
"208 688 OFFCURVE",
"257 693 OFFCURVE",
"310 693 CURVE SMOOTH",
"358 693 OFFCURVE",
"510 683 OFFCURVE",
"510 627 CURVE SMOOTH",
"510 608 OFFCURVE",
"497 588 OFFCURVE",
"472 588 CURVE SMOOTH",
"442 588 OFFCURVE",
"427 606 OFFCURVE",
"427 632 CURVE SMOOTH",
"427 655 OFFCURVE",
"447 675 OFFCURVE",
"466 684 CURVE",
"444 691 LINE",
"429 691 OFFCURVE",
"400 672 OFFCURVE",
"400 626 CURVE SMOOTH",
"400 584 OFFCURVE",
"435 558 OFFCURVE",
"474 558 CURVE SMOOTH",
"514 558 OFFCURVE",
"542 584 OFFCURVE",
"542 627 CURVE SMOOTH",
"542 714 OFFCURVE",
"411 733 OFFCURVE",
"310 733 CURVE SMOOTH",
"250 733 OFFCURVE",
"191 728 OFFCURVE",
"154 713 CURVE SMOOTH",
"120 702 OFFCURVE",
"80 674 OFFCURVE",
"80 624 CURVE SMOOTH",
"80 574 OFFCURVE",
"119 545 OFFCURVE",
"188 545 CURVE SMOOTH",
"218 545 OFFCURVE",
"270 553 OFFCURVE",
"308 553 CURVE SMOOTH",
"388 553 OFFCURVE",
"446 526 OFFCURVE",
"474 469 CURVE SMOOTH",
"502 412 OFFCURVE",
"511 353 OFFCURVE",
"515 296 CURVE SMOOTH",
"516 275 OFFCURVE",
"518 255 OFFCURVE",
"518 236 CURVE SMOOTH",
"518 179 OFFCURVE",
"509 131 OFFCURVE",
"485 96 CURVE SMOOTH",
"459 59 OFFCURVE",
"429 41 OFFCURVE",
"402 41 CURVE SMOOTH",
"345 41 OFFCURVE",
"317 73 OFFCURVE",
"317 169 CURVE SMOOTH",
"317 234 LINE",
"273 234 LINE",
"274 169 LINE",
"274 83 OFFCURVE",
"246 41 OFFCURVE",
"191 41 CURVE SMOOTH",
"138 41 OFFCURVE",
"106 95 OFFCURVE",
"106 152 CURVE SMOOTH",
"106 254 OFFCURVE",
"130 306 OFFCURVE",
"178 306 CURVE SMOOTH",
"318 306 LINE",
"318 375 LINE SMOOTH",
"318 430 OFFCURVE",
"274 467 OFFCURVE",
"209 467 CURVE SMOOTH",
"148 467 OFFCURVE",
"100 430 OFFCURVE",
"100 342 CURVE",
"71 342 LINE",
"71 306 LINE",
"109 306 LINE",
"78 282 OFFCURVE",
"63 237 OFFCURVE"
);
},
{
closed = 1;
nodes = (
"139 343 LINE",
"144 406 OFFCURVE",
"154 433 OFFCURVE",
"209 433 CURVE SMOOTH",
"254 433 OFFCURVE",
"279 411 OFFCURVE",
"279 366 CURVE SMOOTH",
"279 343 LINE"
);
}
);
width = 583;
}
);
},
{
glyphname = uni0DAD0DD4;
lastChange = "2017-09-18 08:47:20 +0000";
layers = (
{
layerId = "902E803C-EB75-4CF8-B2E0-AD6A3AB6F03E";
paths = (
{
closed = 1;
nodes = (
"23 216 LINE",
"42 216 LINE",
"38 203 OFFCURVE",
"35 187 OFFCURVE",
"35 170 CURVE SMOOTH",
"35 57 OFFCURVE",
"95 0 OFFCURVE",
"214 0 CURVE SMOOTH",
"240 0 OFFCURVE",
"269 5 OFFCURVE",
"301 15 CURVE SMOOTH",
"352 31 OFFCURVE",
"410 89 OFFCURVE",
"415 139 CURVE SMOOTH",
"416 153 OFFCURVE",
"419 169 OFFCURVE",
"420 187 CURVE SMOOTH",
"421 214 LINE SMOOTH",
"421 216 OFFCURVE",
"421 219 OFFCURVE",
"421 221 CURVE SMOOTH",
"421 281 OFFCURVE",
"396 363 OFFCURVE",
"343 384 CURVE SMOOTH",
"328 390 OFFCURVE",
"314 395 OFFCURVE",
"300 396 CURVE SMOOTH",
"295 397 OFFCURVE",
"287 398 OFFCURVE",
"275 398 CURVE SMOOTH",
"250 398 LINE",
"250 414 LINE",
"271 429 OFFCURVE",
"285 438 OFFCURVE",
"294 442 CURVE SMOOTH",
"333 458 LINE SMOOTH",
"347 464 OFFCURVE",
"364 467 OFFCURVE",
"382 467 CURVE SMOOTH",
"414 467 OFFCURVE",
"451 452 OFFCURVE",
"472 440 CURVE SMOOTH",
"500 424 OFFCURVE",
"521 396 OFFCURVE",
"534 355 CURVE",
"543 329 LINE SMOOTH",
"545 324 OFFCURVE",
"545 316 OFFCURVE",
"547 308 CURVE SMOOTH",
"552 282 LINE",
"552 251 LINE",
"548 193 LINE",
"536 138 LINE SMOOTH",
"526 89 OFFCURVE",
"477 50 OFFCURVE",
"425 44 CURVE SMOOTH",
"392 40 LINE",
"363 40 LINE",
"363 0 LINE",
"456 0 OFFCURVE",
"554 15 OFFCURVE",
"585 148 CURVE SMOOTH",
"591 173 OFFCURVE",
"593 196 OFFCURVE",
"593 215 CURVE SMOOTH",
"590 298 LINE",
"584 330 OFFCURVE",
"580 354 OFFCURVE",
"577 370 CURVE",
"562 406 LINE",
"545 437 LINE SMOOTH",
"529 467 OFFCURVE",
"478 496 OFFCURVE",
"439 502 CURVE SMOOTH",
"411 507 LINE",
"378 507 LINE",
"359 506 LINE",
"327 502 LINE",
"299 495 LINE",
"283 488 LINE",
"241 463 LINE",
"220 491 OFFCURVE",
"200 506 OFFCURVE",
"149 506 CURVE SMOOTH",
"80 506 OFFCURVE",
"45 472 OFFCURVE",
"45 405 CURVE SMOOTH",
"45 352 LINE",
"88 352 LINE",
"88 398 LINE SMOOTH",
"88 443 OFFCURVE",
"105 465 OFFCURVE",
"138 465 CURVE SMOOTH",
"140 465 OFFCURVE",
"141 465 OFFCURVE",
"143 465 CURVE SMOOTH",
"172 463 LINE",
"191 455 LINE",
"199 449 OFFCURVE",
"205 443 OFFCURVE",
"206 438 CURVE SMOOTH",
"210 422 LINE",
"23 264 LINE"
);
},
{
closed = 1;
nodes = (
"49 245 LINE",
"198 360 LINE",
"271 360 LINE SMOOTH",
"308 360 OFFCURVE",
"334 347 OFFCURVE",
"351 323 CURVE SMOOTH",
"360 310 OFFCURVE",
"367 296 OFFCURVE",
"372 278 CURVE SMOOTH",
"375 266 OFFCURVE",
"378 254 OFFCURVE",
"379 244 CURVE SMOOTH",
"380 218 LINE",
"378 178 LINE",
"372 146 LINE",
"346 76 OFFCURVE",
"300 41 OFFCURVE",
"234 41 CURVE SMOOTH",
"231 41 OFFCURVE",
"229 41 OFFCURVE",
"226 41 CURVE SMOOTH",
"205 42 LINE SMOOTH",
"119 46 OFFCURVE",
"76 93 OFFCURVE",
"76 184 CURVE SMOOTH",
"76 211 OFFCURVE",
"79 231 OFFCURVE",
"85 245 CURVE"
);
},
{
closed = 1;
nodes = (
"272 -76 CURVE SMOOTH",
"272 -144 OFFCURVE",
"324 -185 OFFCURVE",
"394 -185 CURVE SMOOTH",
"481 -185 OFFCURVE",
"524 -130 OFFCURVE",
"524 -20 CURVE",
"477 -20 LINE",
"477 -32 LINE SMOOTH",
"477 -103 OFFCURVE",
"449 -139 OFFCURVE",
"395 -139 CURVE SMOOTH",
"354 -139 OFFCURVE",
"320 -115 OFFCURVE",
"320 -76 CURVE SMOOTH",
"320 -35 OFFCURVE",
"346 -6 OFFCURVE",
"387 -6 CURVE",
"387 38 LINE",
"320 38 OFFCURVE",
"272 -9 OFFCURVE"
);
}
);
width = 623;
}
);
},
{
glyphname = uni0DAF0DCF;
lastChange = "2017-09-19 18:00:11 +0000";
layers = (
{
layerId = "902E803C-EB75-4CF8-B2E0-AD6A3AB6F03E";
paths = (
{
closed = 1;
nodes = (
"377 -218 OFFCURVE",
"260 -234 OFFCURVE",
"167 -234 CURVE",
"167 -275 LINE",
"327 -275 OFFCURVE",
"432 -252 OFFCURVE",
"432 -135 CURVE SMOOTH",
"432 -56 OFFCURVE",
"303 31 OFFCURVE",
"227 31 CURVE SMOOTH",
"225 31 OFFCURVE",
"224 31 OFFCURVE",
"223 31 CURVE SMOOTH",
"168 31 LINE",
"168 9 LINE",
"191 9 LINE",
"305 -21 OFFCURVE",
"377 -71 OFFCURVE",
"377 -138 CURVE SMOOTH"
);
},
{
closed = 1;
nodes = (
"256 -1 CURVE SMOOTH",
"321 -1 OFFCURVE",
"368 12 OFFCURVE",
"398 29 CURVE",
"380 72 LINE",
"356 55 OFFCURVE",
"304 44 OFFCURVE",
"270 44 CURVE SMOOTH",
"145 44 OFFCURVE",
"61 84 OFFCURVE",
"61 218 CURVE SMOOTH",
"61 325 OFFCURVE",
"145 354 OFFCURVE",
"212 354 CURVE SMOOTH",
"387 354 LINE",
"387 469 OFFCURVE",
"318 508 OFFCURVE",
"210 508 CURVE SMOOTH",
"125 508 OFFCURVE",
"42 483 OFFCURVE",
"42 393 CURVE",
"86 393 LINE",
"91 445 OFFCURVE",
"135 466 OFFCURVE",
"208 466 CURVE SMOOTH",
"272 466 OFFCURVE",
"339 449 OFFCURVE",
"339 393 CURVE",
"212 393 LINE SMOOTH",
"62 393 OFFCURVE",
"10 298 OFFCURVE",
"10 199 CURVE SMOOTH",
"10 59 OFFCURVE",
"112 -1 OFFCURVE"
);
}
);
width = 428;
}
);
},
{
glyphname = uni0DAF0DD4;
lastChange = "2017-09-19 18:00:37 +0000";
layers = (
{
layerId = "902E803C-EB75-4CF8-B2E0-AD6A3AB6F03E";
paths = (
{
closed = 1;
nodes = (
"40 -141 LINE",
"40 -184 LINE",
"407 -184 LINE",
"407 52 LINE",
"380 72 LINE",
"365 26 LINE",
"365 -140 LINE"
);
},
{
closed = 1;
nodes = (
"256 -1 CURVE SMOOTH",
"321 -1 OFFCURVE",
"368 12 OFFCURVE",
"398 29 CURVE",
"380 72 LINE",
"356 55 OFFCURVE",
"304 44 OFFCURVE",
"270 44 CURVE SMOOTH",
"145 44 OFFCURVE",
"61 84 OFFCURVE",
"61 218 CURVE SMOOTH",
"61 325 OFFCURVE",
"145 354 OFFCURVE",
"212 354 CURVE SMOOTH",
"387 354 LINE",
"387 469 OFFCURVE",
"318 508 OFFCURVE",
"210 508 CURVE SMOOTH",
"125 508 OFFCURVE",
"42 483 OFFCURVE",
"42 393 CURVE",
"86 393 LINE",
"91 445 OFFCURVE",
"135 466 OFFCURVE",
"208 466 CURVE SMOOTH",
"272 466 OFFCURVE",
"339 449 OFFCURVE",
"339 393 CURVE",
"212 393 LINE SMOOTH",
"62 393 OFFCURVE",
"10 298 OFFCURVE",
"10 199 CURVE SMOOTH",
"10 59 OFFCURVE",
"112 -1 OFFCURVE"
);
}
);
width = 428;
}
);
},
{
glyphname = uni0DAF0DD6;
lastChange = "2017-09-19 18:02:29 +0000";
layers = (
{
layerId = "902E803C-EB75-4CF8-B2E0-AD6A3AB6F03E";
paths = (
{
closed = 1;
nodes = (
"84 -143 OFFCURVE",
"50 -135 OFFCURVE",
"38 -120 CURVE",
"38 -168 LINE",
"45 -175 OFFCURVE",
"81 -188 OFFCURVE",
"98 -188 CURVE SMOOTH",
"156 -188 OFFCURVE",
"171 -145 OFFCURVE",
"240 -145 CURVE SMOOTH",
"291 -145 OFFCURVE",
"358 -184 OFFCURVE",
"378 -184 CURVE SMOOTH",
"417 -184 LINE",
"416 51 LINE",
"380 72 LINE",
"380 -138 LINE",
"327 -118 OFFCURVE",
"294 -101 OFFCURVE",
"241 -101 CURVE SMOOTH",
"170 -101 OFFCURVE",
"145 -143 OFFCURVE",
"101 -143 CURVE SMOOTH"
);
},
{
closed = 1;
nodes = (
"256 -1 CURVE SMOOTH",
"321 -1 OFFCURVE",
"368 12 OFFCURVE",
"398 29 CURVE",
"380 72 LINE",
"356 55 OFFCURVE",
"304 44 OFFCURVE",
"270 44 CURVE SMOOTH",
"145 44 OFFCURVE",
"61 84 OFFCURVE",
"61 218 CURVE SMOOTH",
"61 325 OFFCURVE",
"145 354 OFFCURVE",
"212 354 CURVE SMOOTH",
"387 354 LINE",
"387 469 OFFCURVE",
"318 508 OFFCURVE",
"210 508 CURVE SMOOTH",
"125 508 OFFCURVE",
"42 483 OFFCURVE",
"42 393 CURVE",
"86 393 LINE",
"91 445 OFFCURVE",
"135 466 OFFCURVE",
"208 466 CURVE SMOOTH",
"272 466 OFFCURVE",
"339 449 OFFCURVE",
"339 393 CURVE",
"212 393 LINE SMOOTH",
"62 393 OFFCURVE",
"10 298 OFFCURVE",
"10 199 CURVE SMOOTH",
"10 59 OFFCURVE",
"112 -1 OFFCURVE"
);
}
);
width = 458;
}
);
},
{
glyphname = uni0DAF0DD8;
lastChange = "2017-09-19 18:03:21 +0000";
layers = (
{
layerId = "902E803C-EB75-4CF8-B2E0-AD6A3AB6F03E";
paths = (
{
closed = 1;
nodes = (
"255 -98 OFFCURVE",
"236 -117 OFFCURVE",
"236 -144 CURVE SMOOTH",
"236 -178 OFFCURVE",
"262 -217 OFFCURVE",
"303 -217 CURVE SMOOTH",
"418 -216 LINE",
"418 -38 LINE SMOOTH",
"418 3 OFFCURVE",
"374 32 OFFCURVE",
"323 32 CURVE SMOOTH",
"292 32 OFFCURVE",
"268 20 OFFCURVE",
"251 -5 CURVE SMOOTH",
"240 -21 LINE SMOOTH",
"237 -25 OFFCURVE",
"237 -34 OFFCURVE",
"237 -47 CURVE",
"270 -43 LINE",
"271 -11 OFFCURVE",
"285 5 OFFCURVE",
"312 5 CURVE SMOOTH",
"317 5 OFFCURVE",
"322 5 OFFCURVE",
"327 4 CURVE SMOOTH",
"331 3 OFFCURVE",
"334 4 OFFCURVE",
"337 4 CURVE SMOOTH",
"371 4 OFFCURVE",
"386 -11 OFFCURVE",
"386 -45 CURVE",
"305 -61 LINE",
"287 -71 OFFCURVE",
"275 -78 OFFCURVE",
"270 -83 CURVE SMOOTH"
);
},
{
closed = 1;
nodes = (
"320 -190 OFFCURVE",
"278 -182 OFFCURVE",
"278 -144 CURVE SMOOTH",
"278 -117 OFFCURVE",
"296 -97 OFFCURVE",
"332 -94 CURVE",
"388 -87 LINE",
"387 -188 LINE",
"351 -189 LINE SMOOTH"
);
},
{
closed = 1;
nodes = (
"10 59 OFFCURVE",
"112 -1 OFFCURVE",
"256 -1 CURVE SMOOTH",
"321 -1 OFFCURVE",
"368 12 OFFCURVE",
"398 29 CURVE",
"380 72 LINE",
"356 55 OFFCURVE",
"304 44 OFFCURVE",
"270 44 CURVE SMOOTH",
"145 44 OFFCURVE",
"61 84 OFFCURVE",
"61 218 CURVE SMOOTH",
"61 325 OFFCURVE",
"145 354 OFFCURVE",
"212 354 CURVE SMOOTH",
"387 354 LINE",
"387 469 OFFCURVE",
"318 508 OFFCURVE",
"210 508 CURVE SMOOTH",
"125 508 OFFCURVE",
"42 483 OFFCURVE",
"42 393 CURVE",
"86 393 LINE",
"91 445 OFFCURVE",
"135 466 OFFCURVE",
"208 466 CURVE SMOOTH",
"272 466 OFFCURVE",
"339 449 OFFCURVE",
"339 393 CURVE",
"212 393 LINE SMOOTH",
"62 393 OFFCURVE",
"10 298 OFFCURVE",
"10 199 CURVE SMOOTH"
);
}
);
width = 428;
}
);
},
{
glyphname = uni0DB00DCA;
lastChange = "2017-09-19 18:06:23 +0000";
layers = (
{
components = (
{
name = sinDha;
}
);
layerId = "902E803C-EB75-4CF8-B2E0-AD6A3AB6F03E";
paths = (
{
closed = 1;
nodes = (
"135 589 OFFCURVE",
"125 609 OFFCURVE",
"125 622 CURVE SMOOTH",
"125 676 OFFCURVE",
"194 688 OFFCURVE",
"263 688 CURVE SMOOTH",
"372 688 OFFCURVE",
"438 647 OFFCURVE",
"445 563 CURVE",
"487 562 LINE",
"487 685 OFFCURVE",
"390 732 OFFCURVE",
"262 732 CURVE SMOOTH",
"166 732 OFFCURVE",
"77 705 OFFCURVE",
"77 629 CURVE SMOOTH",
"77 614 OFFCURVE",
"84 590 OFFCURVE",
"91 575 CURVE",
"142 579 LINE"
);
}
);
width = 517;
}
);
},
{
glyphname = uni0DB00DD2;
lastChange = "2017-09-18 08:47:20 +0000";
layers = (
{
layerId = "902E803C-EB75-4CF8-B2E0-AD6A3AB6F03E";
paths = (
{
closed = 1;
nodes = (
"13 176 LINE",
"16 138 LINE",
"23 106 OFFCURVE",
"28 87 OFFCURVE",
"30 82 CURVE SMOOTH",
"46 45 OFFCURVE",
"69 19 OFFCURVE",
"100 6 CURVE SMOOTH",
"113 0 OFFCURVE",
"128 -2 OFFCURVE",
"144 -1 CURVE SMOOTH",
"176 2 LINE",
"205 13 LINE",
"228 27 OFFCURVE",
"242 42 OFFCURVE",
"248 58 CURVE",
"252 44 OFFCURVE",
"257 36 OFFCURVE",
"261 32 CURVE SMOOTH",
"280 16 LINE SMOOTH",
"289 9 OFFCURVE",
"298 4 OFFCURVE",
"306 3 CURVE SMOOTH",
"338 0 LINE",
"372 4 LINE",
"412 18 LINE",
"488 57 OFFCURVE",
"501 177 OFFCURVE",
"501 236 CURVE SMOOTH",
"501 276 OFFCURVE",
"498 308 OFFCURVE",
"491 332 CURVE SMOOTH",
"472 403 LINE",
"426 516 OFFCURVE",
"344 572 OFFCURVE",
"226 572 CURVE SMOOTH",
"223 572 OFFCURVE",
"220 572 OFFCURVE",
"217 572 CURVE SMOOTH",
"169 570 LINE",
"127 571 LINE",
"95 574 OFFCURVE",
"78 589 OFFCURVE",
"78 621 CURVE SMOOTH",
"78 675 OFFCURVE",
"149 677 OFFCURVE",
"194 686 CURVE SMOOTH",
"208 688 OFFCURVE",
"238 691 OFFCURVE",
"273 691 CURVE SMOOTH",
"299 691 OFFCURVE",
"327 690 OFFCURVE",
"354 687 CURVE SMOOTH",
"399 681 OFFCURVE",
"429 666 OFFCURVE",
"439 652 CURVE SMOOTH",
"441 649 OFFCURVE",
"443 646 OFFCURVE",
"445 641 CURVE SMOOTH",
"450 631 OFFCURVE",
"453 619 OFFCURVE",
"453 604 CURVE SMOOTH",
"453 596 OFFCURVE",
"452 588 OFFCURVE",
"449 580 CURVE SMOOTH",
"448 579 OFFCURVE",
"447 577 OFFCURVE",
"445 575 CURVE SMOOTH",
"441 569 OFFCURVE",
"438 563 OFFCURVE",
"435 558 CURVE SMOOTH",
"433 555 OFFCURVE",
"433 554 OFFCURVE",
"434 554 CURVE SMOOTH",
"468 548 LINE",
"482 572 OFFCURVE",
"493 581 OFFCURVE",
"493 617 CURVE SMOOTH",
"493 658 OFFCURVE",
"463 690 OFFCURVE",
"436 702 CURVE SMOOTH",
"415 711 OFFCURVE",
"384 718 OFFCURVE",
"352 723 CURVE SMOOTH",
"320 727 OFFCURVE",
"287 728 OFFCURVE",
"259 728 CURVE SMOOTH",
"226 728 OFFCURVE",
"180 723 OFFCURVE",
"160 720 CURVE",
"147 717 LINE",
"129 710 OFFCURVE",
"108 708 OFFCURVE",
"91 699 CURVE SMOOTH",
"68 688 OFFCURVE",
"42 665 OFFCURVE",
"37 632 CURVE SMOOTH",
"37 628 OFFCURVE",
"36 623 OFFCURVE",
"36 617 CURVE SMOOTH",
"36 606 OFFCURVE",
"36 593 OFFCURVE",
"41 574 CURVE SMOOTH",
"45 557 OFFCURVE",
"58 544 OFFCURVE",
"78 537 CURVE",
"86 531 OFFCURVE",
"102 528 OFFCURVE",
"126 528 CURVE SMOOTH",
"161 528 OFFCURVE",
"183 531 OFFCURVE",
"191 531 CURVE SMOOTH",
"229 531 LINE",
"307 527 OFFCURVE",
"361 497 OFFCURVE",
"392 457 CURVE SMOOTH",
"406 440 OFFCURVE",
"412 432 LINE",
"412 432 OFFCURVE",
"413 432 OFFCURVE",
"413 433 CURVE",
"443 391 OFFCURVE",
"459 313 OFFCURVE",
"459 252 CURVE SMOOTH",
"459 245 OFFCURVE",
"459 239 OFFCURVE",
"459 233 CURVE SMOOTH",
"455 172 LINE",
"449 146 LINE",
"444 127 LINE",
"428 82 OFFCURVE",
"395 42 OFFCURVE",
"352 42 CURVE SMOOTH",
"299 42 OFFCURVE",
"272 68 OFFCURVE",
"272 119 CURVE SMOOTH",
"272 268 LINE",
"225 268 LINE",
"225 207 LINE",
"224 149 LINE",
"219 93 LINE",
"211 63 OFFCURVE",
"179 41 OFFCURVE",
"147 41 CURVE SMOOTH",
"135 41 OFFCURVE",
"122 42 OFFCURVE",
"111 50 CURVE SMOOTH",
"64 82 OFFCURVE",
"57 135 OFFCURVE",
"57 171 CURVE SMOOTH",
"57 176 OFFCURVE",
"57 180 OFFCURVE",
"57 184 CURVE SMOOTH",
"60 249 LINE SMOOTH",
"64 356 OFFCURVE",
"137 393 OFFCURVE",
"205 393 CURVE",
"205 433 LINE",
"148 433 OFFCURVE",
"106 419 OFFCURVE",
"78 391 CURVE SMOOTH",
"70 384 OFFCURVE",
"59 371 OFFCURVE",
"46 351 CURVE SMOOTH",
"24 316 OFFCURVE",
"13 267 OFFCURVE",
"13 201 CURVE SMOOTH"
);
}
);
width = 517;
}
);
},
{
glyphname = uni0DB00DD3;
lastChange = "2017-09-18 08:47:20 +0000";
layers = (
{
layerId = "902E803C-EB75-4CF8-B2E0-AD6A3AB6F03E";
paths = (
{
closed = 1;
nodes = (
"13 176 LINE",
"16 138 LINE",
"23 106 OFFCURVE",
"28 87 OFFCURVE",
"30 82 CURVE SMOOTH",
"46 45 OFFCURVE",
"69 19 OFFCURVE",
"100 6 CURVE SMOOTH",
"113 0 OFFCURVE",
"128 -2 OFFCURVE",
"144 -1 CURVE SMOOTH",
"176 2 LINE",
"205 13 LINE",
"228 27 OFFCURVE",
"242 42 OFFCURVE",
"248 58 CURVE",
"252 44 OFFCURVE",
"257 36 OFFCURVE",
"261 32 CURVE SMOOTH",
"280 16 LINE SMOOTH",
"289 9 OFFCURVE",
"298 4 OFFCURVE",
"306 3 CURVE SMOOTH",
"338 0 LINE",
"372 4 LINE",
"412 18 LINE",
"488 57 OFFCURVE",
"501 177 OFFCURVE",
"501 236 CURVE SMOOTH",
"501 276 OFFCURVE",
"498 308 OFFCURVE",
"491 332 CURVE SMOOTH",
"472 403 LINE",
"426 516 OFFCURVE",
"344 572 OFFCURVE",
"226 572 CURVE SMOOTH",
"223 572 OFFCURVE",
"220 572 OFFCURVE",
"217 572 CURVE SMOOTH",
"169 570 LINE",
"127 571 LINE",
"95 574 OFFCURVE",
"78 589 OFFCURVE",
"78 621 CURVE SMOOTH",
"78 675 OFFCURVE",
"149 677 OFFCURVE",
"194 686 CURVE SMOOTH",
"208 688 OFFCURVE",
"238 691 OFFCURVE",
"273 691 CURVE SMOOTH",
"299 691 OFFCURVE",
"327 690 OFFCURVE",
"354 687 CURVE SMOOTH",
"398 681 OFFCURVE",
"424 673 OFFCURVE",
"443 655 CURVE SMOOTH",
"446 652 OFFCURVE",
"453 641 OFFCURVE",
"457 627 CURVE SMOOTH",
"458 623 OFFCURVE",
"458 618 OFFCURVE",
"458 613 CURVE SMOOTH",
"458 603 OFFCURVE",
"456 591 OFFCURVE",
"447 582 CURVE",
"434 574 OFFCURVE",
"422 571 OFFCURVE",
"411 571 CURVE SMOOTH",
"386 571 OFFCURVE",
"360 593 OFFCURVE",
"360 612 CURVE SMOOTH",
"360 614 OFFCURVE",
"360 615 OFFCURVE",
"360 616 CURVE SMOOTH",
"362 640 OFFCURVE",
"375 665 OFFCURVE",
"386 674 CURVE SMOOTH",
"388 676 OFFCURVE",
"390 677 OFFCURVE",
"390 676 CURVE SMOOTH",
"390 675 LINE",
"389 675 OFFCURVE",
"387 674 OFFCURVE",
"383 675 CURVE",
"373 675 OFFCURVE",
"361 677 OFFCURVE",
"353 679 CURVE",
"336 642 LINE SMOOTH",
"331 631 OFFCURVE",
"328 622 OFFCURVE",
"328 613 CURVE SMOOTH",
"328 584 OFFCURVE",
"350 560 OFFCURVE",
"363 551 CURVE SMOOTH",
"368 548 OFFCURVE",
"372 545 OFFCURVE",
"373 545 CURVE SMOOTH",
"374 546 LINE",
"381 539 OFFCURVE",
"398 538 OFFCURVE",
"412 538 CURVE SMOOTH",
"424 538 OFFCURVE",
"437 539 OFFCURVE",
"446 541 CURVE SMOOTH",
"453 542 OFFCURVE",
"457 543 OFFCURVE",
"458 544 CURVE SMOOTH",
"485 560 OFFCURVE",
"493 574 OFFCURVE",
"493 602 CURVE SMOOTH",
"493 652 OFFCURVE",
"470 687 OFFCURVE",
"436 702 CURVE SMOOTH",
"415 711 OFFCURVE",
"384 718 OFFCURVE",
"352 723 CURVE SMOOTH",
"320 727 OFFCURVE",
"287 728 OFFCURVE",
"259 728 CURVE SMOOTH",
"226 728 OFFCURVE",
"180 723 OFFCURVE",
"160 720 CURVE",
"147 717 LINE",
"129 710 OFFCURVE",
"108 708 OFFCURVE",
"91 699 CURVE SMOOTH",
"68 688 OFFCURVE",
"42 665 OFFCURVE",
"37 632 CURVE SMOOTH",
"37 628 OFFCURVE",
"36 623 OFFCURVE",
"36 617 CURVE SMOOTH",
"36 606 OFFCURVE",
"36 593 OFFCURVE",
"41 574 CURVE SMOOTH",
"45 557 OFFCURVE",
"58 544 OFFCURVE",
"78 537 CURVE",
"86 531 OFFCURVE",
"102 528 OFFCURVE",
"126 528 CURVE SMOOTH",
"161 528 OFFCURVE",
"183 531 OFFCURVE",
"191 531 CURVE SMOOTH",
"229 531 LINE",
"307 527 OFFCURVE",
"361 497 OFFCURVE",
"392 457 CURVE SMOOTH",
"406 440 OFFCURVE",
"412 432 LINE",
"412 432 OFFCURVE",
"413 432 OFFCURVE",
"413 433 CURVE",
"443 391 OFFCURVE",
"459 313 OFFCURVE",
"459 252 CURVE SMOOTH",
"459 245 OFFCURVE",
"459 239 OFFCURVE",
"459 233 CURVE SMOOTH",
"455 172 LINE",
"449 146 LINE",
"444 127 LINE",
"428 82 OFFCURVE",
"395 42 OFFCURVE",
"352 42 CURVE SMOOTH",
"299 42 OFFCURVE",
"272 68 OFFCURVE",
"272 119 CURVE SMOOTH",
"272 268 LINE",
"225 268 LINE",
"225 207 LINE",
"224 149 LINE",
"219 93 LINE",
"211 63 OFFCURVE",
"179 41 OFFCURVE",
"147 41 CURVE SMOOTH",
"135 41 OFFCURVE",
"122 42 OFFCURVE",
"111 50 CURVE SMOOTH",
"64 82 OFFCURVE",
"57 135 OFFCURVE",
"57 171 CURVE SMOOTH",
"57 176 OFFCURVE",
"57 180 OFFCURVE",
"57 184 CURVE SMOOTH",
"60 249 LINE SMOOTH",
"64 356 OFFCURVE",
"137 393 OFFCURVE",
"205 393 CURVE",
"205 433 LINE",
"148 433 OFFCURVE",
"106 419 OFFCURVE",
"78 391 CURVE SMOOTH",
"70 384 OFFCURVE",
"59 371 OFFCURVE",
"46 351 CURVE SMOOTH",
"24 316 OFFCURVE",
"13 267 OFFCURVE",
"13 201 CURVE SMOOTH"
);
}
);
width = 517;
}
);
},
{
glyphname = uni0DB30DCF;
lastChange = "2017-09-19 18:24:25 +0000";
layers = (
{
layerId = "902E803C-EB75-4CF8-B2E0-AD6A3AB6F03E";
paths = (
{
closed = 1;
nodes = (
"32 115 LINE",
"75 115 LINE",
"74 248 LINE",
"74 336 OFFCURVE",
"92 388 OFFCURVE",
"176 388 CURVE",
"176 412 LINE",
"136 423 LINE",
"57 407 OFFCURVE",
"32 360 OFFCURVE",
"32 263 CURVE"
);
},
{
closed = 1;
nodes = (
"250 -254 LINE",
"250 -275 LINE",
"410 -275 OFFCURVE",
"515 -252 OFFCURVE",
"515 -135 CURVE SMOOTH",
"515 -111 OFFCURVE",
"506 -88 OFFCURVE",
"488 -66 CURVE SMOOTH",
"443 -10 OFFCURVE",
"347 -9 OFFCURVE",
"310 -9 CURVE SMOOTH",
"308 -9 OFFCURVE",
"307 -9 OFFCURVE",
"306 -9 CURVE SMOOTH",
"251 -9 LINE",
"251 -31 LINE",
"274 -31 LINE SMOOTH",
"306 -31 OFFCURVE",
"328 -32 OFFCURVE",
"341 -34 CURVE SMOOTH",
"360 -36 OFFCURVE",
"379 -41 OFFCURVE",
"398 -49 CURVE SMOOTH",
"439 -66 OFFCURVE",
"460 -95 OFFCURVE",
"460 -138 CURVE SMOOTH",
"460 -159 OFFCURVE",
"455 -178 OFFCURVE",
"445 -195 CURVE SMOOTH",
"414 -245 OFFCURVE",
"349 -254 OFFCURVE",
"294 -254 CURVE SMOOTH",
"291 -254 OFFCURVE",
"288 -254 OFFCURVE",
"285 -254 CURVE SMOOTH"
);
},
{
closed = 1;
nodes = (
"100 59 OFFCURVE",
"202 -1 OFFCURVE",
"346 -1 CURVE SMOOTH",
"411 -1 OFFCURVE",
"458 12 OFFCURVE",
"488 29 CURVE",
"470 72 LINE",
"446 55 OFFCURVE",
"394 44 OFFCURVE",
"360 44 CURVE SMOOTH",
"235 44 OFFCURVE",
"151 84 OFFCURVE",
"151 218 CURVE SMOOTH",
"151 325 OFFCURVE",
"235 354 OFFCURVE",
"302 354 CURVE SMOOTH",
"477 354 LINE",
"477 469 OFFCURVE",
"408 508 OFFCURVE",
"300 508 CURVE SMOOTH",
"215 508 OFFCURVE",
"132 483 OFFCURVE",
"132 393 CURVE",
"176 393 LINE",
"176 445 OFFCURVE",
"225 466 OFFCURVE",
"298 466 CURVE SMOOTH",
"362 466 OFFCURVE",
"429 449 OFFCURVE",
"429 393 CURVE",
"302 393 LINE SMOOTH",
"152 393 OFFCURVE",
"100 298 OFFCURVE",
"100 199 CURVE SMOOTH"
);
}
);
width = 523;
}
);
},
{
glyphname = uni0DB30DD4;
lastChange = "2017-09-19 18:24:38 +0000";
layers = (
{
layerId = "902E803C-EB75-4CF8-B2E0-AD6A3AB6F03E";
paths = (
{
closed = 1;
nodes = (
"130 -141 LINE",
"130 -184 LINE",
"497 -184 LINE",
"497 52 LINE",
"470 72 LINE",
"455 26 LINE",
"455 -140 LINE"
);
},
{
closed = 1;
nodes = (
"346 -1 CURVE SMOOTH",
"411 -1 OFFCURVE",
"458 12 OFFCURVE",
"488 29 CURVE",
"470 72 LINE",
"446 55 OFFCURVE",
"394 44 OFFCURVE",
"360 44 CURVE SMOOTH",
"235 44 OFFCURVE",
"151 84 OFFCURVE",
"151 218 CURVE SMOOTH",
"151 325 OFFCURVE",
"235 354 OFFCURVE",
"302 354 CURVE SMOOTH",
"477 354 LINE",
"477 469 OFFCURVE",
"408 508 OFFCURVE",
"300 508 CURVE SMOOTH",
"215 508 OFFCURVE",
"132 483 OFFCURVE",
"132 393 CURVE",
"176 393 LINE",
"181 445 OFFCURVE",
"225 466 OFFCURVE",
"298 466 CURVE SMOOTH",
"362 466 OFFCURVE",
"429 449 OFFCURVE",
"429 393 CURVE",
"302 393 LINE SMOOTH",
"152 393 OFFCURVE",
"100 298 OFFCURVE",
"100 199 CURVE SMOOTH",
"100 59 OFFCURVE",
"202 -1 OFFCURVE"
);
},
{
closed = 1;
nodes = (
"32 115 LINE",
"75 115 LINE",
"74 248 LINE",
"74 336 OFFCURVE",
"92 388 OFFCURVE",
"176 388 CURVE",
"176 412 LINE",
"136 423 LINE",
"57 407 OFFCURVE",
"32 360 OFFCURVE",
"32 263 CURVE"
);
}
);
width = 523;
}
);
},
{
glyphname = uni0DB30DD6;
lastChange = "2017-09-19 18:25:02 +0000";
layers = (
{
layerId = "902E803C-EB75-4CF8-B2E0-AD6A3AB6F03E";
paths = (
{
closed = 1;
nodes = (
"174 -143 OFFCURVE",
"140 -135 OFFCURVE",
"128 -120 CURVE",
"128 -168 LINE",
"135 -175 OFFCURVE",
"171 -188 OFFCURVE",
"188 -188 CURVE SMOOTH",
"246 -188 OFFCURVE",
"261 -145 OFFCURVE",
"330 -145 CURVE SMOOTH",
"381 -145 OFFCURVE",
"448 -184 OFFCURVE",
"468 -184 CURVE SMOOTH",
"507 -184 LINE",
"506 51 LINE",
"470 72 LINE",
"470 -138 LINE",
"417 -118 OFFCURVE",
"384 -101 OFFCURVE",
"331 -101 CURVE SMOOTH",
"260 -101 OFFCURVE",
"235 -143 OFFCURVE",
"191 -143 CURVE SMOOTH"
);
},
{
closed = 1;
nodes = (
"346 -1 CURVE SMOOTH",
"411 -1 OFFCURVE",
"458 12 OFFCURVE",
"488 29 CURVE",
"470 72 LINE",
"446 55 OFFCURVE",
"394 44 OFFCURVE",
"360 44 CURVE SMOOTH",
"235 44 OFFCURVE",
"151 84 OFFCURVE",
"151 218 CURVE SMOOTH",
"151 325 OFFCURVE",
"235 354 OFFCURVE",
"302 354 CURVE SMOOTH",
"477 354 LINE",
"477 469 OFFCURVE",
"408 508 OFFCURVE",
"300 508 CURVE SMOOTH",
"215 508 OFFCURVE",
"132 483 OFFCURVE",
"132 393 CURVE",
"176 393 LINE",
"181 445 OFFCURVE",
"225 466 OFFCURVE",
"298 466 CURVE SMOOTH",
"362 466 OFFCURVE",
"429 449 OFFCURVE",
"429 393 CURVE",
"302 393 LINE SMOOTH",
"152 393 OFFCURVE",
"100 298 OFFCURVE",
"100 199 CURVE SMOOTH",
"100 59 OFFCURVE",
"202 -1 OFFCURVE"
);
},
{
closed = 1;
nodes = (
"32 115 LINE",
"75 115 LINE",
"74 248 LINE",
"74 336 OFFCURVE",
"92 388 OFFCURVE",
"176 388 CURVE",
"176 412 LINE",
"136 423 LINE",
"57 407 OFFCURVE",
"32 360 OFFCURVE",
"32 263 CURVE"
);
}
);
width = 523;
}
);
},
{
glyphname = uni0DB30DCA200D0DA80DCA;
lastChange = "2017-09-18 08:47:20 +0000";
layers = (
{
layerId = "902E803C-EB75-4CF8-B2E0-AD6A3AB6F03E";
paths = (
{
closed = 1;
nodes = (
"8 295 CURVE SMOOTH",
"8 286 OFFCURVE",
"9 275 OFFCURVE",
"11 265 CURVE SMOOTH",
"13 250 OFFCURVE",
"41 207 OFFCURVE",
"54 202 CURVE",
"43 209 OFFCURVE",
"33 264 OFFCURVE",
"33 285 CURVE SMOOTH",
"33 288 OFFCURVE",
"33 291 OFFCURVE",
"34 292 CURVE",
"34 294 OFFCURVE",
"34 296 OFFCURVE",
"34 299 CURVE SMOOTH",
"34 319 OFFCURVE",
"56 343 OFFCURVE",
"71 353 CURVE SMOOTH",
"76 356 OFFCURVE",
"83 361 OFFCURVE",
"94 367 CURVE",
"94 369 OFFCURVE",
"94 371 OFFCURVE",
"94 373 CURVE SMOOTH",
"94 389 OFFCURVE",
"103 409 OFFCURVE",
"106 420 CURVE",
"105 420 OFFCURVE",
"104 419 OFFCURVE",
"103 415 CURVE",
"69 398 LINE SMOOTH",
"64 396 OFFCURVE",
"63 395 OFFCURVE",
"62 394 CURVE SMOOTH",
"28 370 OFFCURVE",
"8 338 OFFCURVE"
);
},
{
closed = 1;
nodes = (
"78 168 LINE",
"82 135 LINE SMOOTH",
"85 106 OFFCURVE",
"103 68 OFFCURVE",
"112 54 CURVE SMOOTH",
"132 22 OFFCURVE",
"169 0 OFFCURVE",
"216 0 CURVE SMOOTH",
"261 0 OFFCURVE",
"303 22 OFFCURVE",
"319 58 CURVE",
"324 44 OFFCURVE",
"329 35 OFFCURVE",
"332 32 CURVE SMOOTH",
"351 16 LINE SMOOTH",
"359 10 OFFCURVE",
"368 4 OFFCURVE",
"377 3 CURVE SMOOTH",
"409 0 LINE",
"444 4 LINE",
"483 18 LINE",
"498 25 OFFCURVE",
"513 39 OFFCURVE",
"527 59 CURVE SMOOTH",
"557 101 OFFCURVE",
"572 159 OFFCURVE",
"572 236 CURVE SMOOTH",
"572 296 OFFCURVE",
"563 350 OFFCURVE",
"545 396 CURVE SMOOTH",
"528 438 LINE",
"506 479 LINE SMOOTH",
"479 530 OFFCURVE",
"478 535 OFFCURVE",
"438 560 CURVE SMOOTH",
"421 572 OFFCURVE",
"405 579 OFFCURVE",
"389 580 CURVE",
"366 587 OFFCURVE",
"330 592 OFFCURVE",
"282 595 CURVE SMOOTH",
"275 595 OFFCURVE",
"268 596 OFFCURVE",
"260 596 CURVE SMOOTH",
"208 596 OFFCURVE",
"151 582 OFFCURVE",
"89 554 CURVE",
"107 516 LINE",
"147 539 OFFCURVE",
"183 550 OFFCURVE",
"213 550 CURVE SMOOTH",
"216 550 OFFCURVE",
"220 550 OFFCURVE",
"223 550 CURVE SMOOTH",
"241 550 OFFCURVE",
"258 547 OFFCURVE",
"274 540 CURVE",
"285 528 OFFCURVE",
"298 517 OFFCURVE",
"298 498 CURVE SMOOTH",
"298 486 OFFCURVE",
"294 469 OFFCURVE",
"287 447 CURVE",
"274 455 OFFCURVE",
"263 461 OFFCURVE",
"253 465 CURVE SMOOTH",
"242 470 OFFCURVE",
"236 473 OFFCURVE",
"234 473 CURVE",
"232 475 OFFCURVE",
"227 475 OFFCURVE",
"219 475 CURVE",
"217 477 OFFCURVE",
"210 477 OFFCURVE",
"201 477 CURVE SMOOTH",
"132 477 OFFCURVE",
"97 436 OFFCURVE",
"94 354 CURVE",
"117 319 LINE",
"86 302 OFFCURVE",
"78 228 OFFCURVE",
"78 183 CURVE SMOOTH"
);
},
{
closed = 1;
nodes = (
"124 169 CURVE SMOOTH",
"124 172 OFFCURVE",
"124 175 OFFCURVE",
"124 178 CURVE SMOOTH",
"126 221 LINE",
"137 259 LINE SMOOTH",
"144 281 OFFCURVE",
"169 313 OFFCURVE",
"185 317 CURVE",
"296 317 LINE",
"296 403 LINE",
"311 391 LINE SMOOTH",
"320 384 OFFCURVE",
"326 380 OFFCURVE",
"328 380 CURVE SMOOTH",
"351 374 LINE",
"377 373 LINE",
"396 373 LINE",
"434 377 OFFCURVE",
"474 400 OFFCURVE",
"484 433 CURVE",
"519 384 OFFCURVE",
"531 287 OFFCURVE",
"531 245 CURVE SMOOTH",
"531 242 OFFCURVE",
"531 239 OFFCURVE",
"531 236 CURVE SMOOTH",
"530 211 LINE",
"526 172 LINE",
"520 146 LINE",
"515 127 LINE SMOOTH",
"513 118 OFFCURVE",
"509 109 OFFCURVE",
"505 101 CURVE SMOOTH",
"503 98 OFFCURVE",
"501 91 OFFCURVE",
"495 84 CURVE SMOOTH",
"473 55 OFFCURVE",
"448 42 OFFCURVE",
"423 42 CURVE SMOOTH",
"382 42 OFFCURVE",
"355 54 OFFCURVE",
"349 82 CURVE SMOOTH",
"343 112 LINE",
"343 268 LINE",
"296 268 LINE",
"296 207 LINE",
"295 149 LINE",
"290 93 LINE",
"282 63 OFFCURVE",
"247 41 OFFCURVE",
"214 41 CURVE SMOOTH",
"181 41 OFFCURVE",
"158 63 OFFCURVE",
"142 89 CURVE SMOOTH",
"129 110 OFFCURVE",
"124 137 OFFCURVE"
);
},
{
closed = 1;
nodes = (
"140 376 LINE",
"144 401 LINE",
"151 426 OFFCURVE",
"169 439 OFFCURVE",
"197 439 CURVE SMOOTH",
"230 439 OFFCURVE",
"256 423 OFFCURVE",
"256 374 CURVE SMOOTH",
"256 358 LINE",
"141 358 LINE"
);
},
{
closed = 1;
nodes = (
"318 447 CURVE SMOOTH",
"318 448 OFFCURVE",
"320 455 OFFCURVE",
"325 467 CURVE SMOOTH",
"329 479 OFFCURVE",
"331 490 OFFCURVE",
"331 499 CURVE SMOOTH",
"331 513 OFFCURVE",
"327 525 OFFCURVE",
"319 538 CURVE",
"344 534 OFFCURVE",
"366 531 OFFCURVE",
"386 527 CURVE",
"427 506 OFFCURVE",
"447 484 OFFCURVE",
"447 461 CURVE SMOOTH",
"447 452 OFFCURVE",
"444 442 OFFCURVE",
"438 432 CURVE",
"421 424 OFFCURVE",
"397 413 OFFCURVE",
"375 413 CURVE SMOOTH",
"349 413 OFFCURVE",
"330 425 OFFCURVE",
"319 443 CURVE SMOOTH",
"319 444 OFFCURVE",
"318 445 OFFCURVE"
);
},
{
closed = 1;
nodes = (
"466 668 LINE",
"470 491 LINE",
"513 490 LINE",
"511 668 LINE"
);
}
);
width = 583;
}
);
},
{
glyphname = uni0DB30DCA200D0DA80DD2;
lastChange = "2017-09-18 08:47:20 +0000";
layers = (
{
layerId = "902E803C-EB75-4CF8-B2E0-AD6A3AB6F03E";
paths = (
{
closed = 1;
nodes = (
"13 295 CURVE SMOOTH",
"13 286 OFFCURVE",
"14 275 OFFCURVE",
"16 265 CURVE SMOOTH",
"18 250 OFFCURVE",
"46 207 OFFCURVE",
"59 202 CURVE",
"48 209 OFFCURVE",
"38 262 OFFCURVE",
"38 285 CURVE SMOOTH",
"38 288 OFFCURVE",
"38 291 OFFCURVE",
"39 292 CURVE",
"39 294 OFFCURVE",
"39 296 OFFCURVE",
"39 299 CURVE SMOOTH",
"39 314 OFFCURVE",
"53 330 OFFCURVE",
"62 341 CURVE SMOOTH",
"66 346 OFFCURVE",
"69 349 OFFCURVE",
"75 353 CURVE SMOOTH",
"80 356 OFFCURVE",
"87 361 OFFCURVE",
"99 367 CURVE",
"99 369 OFFCURVE",
"99 371 OFFCURVE",
"99 373 CURVE SMOOTH",
"99 388 OFFCURVE",
"107 407 OFFCURVE",
"107 421 CURVE SMOOTH",
"107 422 OFFCURVE",
"106 421 OFFCURVE",
"103 416 CURVE",
"101 415 OFFCURVE",
"98 413 CURVE SMOOTH",
"91 408 OFFCURVE",
"81 402 OFFCURVE",
"73 398 CURVE SMOOTH",
"69 396 OFFCURVE",
"67 395 OFFCURVE",
"67 394 CURVE SMOOTH",
"33 370 OFFCURVE",
"13 338 OFFCURVE"
);
},
{
closed = 1;
nodes = (
"79 168 LINE",
"83 135 LINE SMOOTH",
"86 104 OFFCURVE",
"102 68 OFFCURVE",
"113 54 CURVE",
"116 47 OFFCURVE",
"122 40 OFFCURVE",
"129 32 CURVE SMOOTH",
"151 11 OFFCURVE",
"181 0 OFFCURVE",
"217 0 CURVE SMOOTH",
"264 0 OFFCURVE",
"301 23 OFFCURVE",
"320 58 CURVE",
"325 44 OFFCURVE",
"329 35 OFFCURVE",
"333 32 CURVE SMOOTH",
"352 16 LINE SMOOTH",
"359 10 OFFCURVE",
"368 4 OFFCURVE",
"377 3 CURVE SMOOTH",
"410 0 LINE",
"445 4 LINE",
"483 18 LINE",
"499 25 OFFCURVE",
"514 39 OFFCURVE",
"528 59 CURVE SMOOTH",
"558 101 OFFCURVE",
"573 159 OFFCURVE",
"573 236 CURVE SMOOTH",
"573 296 OFFCURVE",
"563 350 OFFCURVE",
"545 396 CURVE SMOOTH",
"529 438 LINE",
"507 479 LINE SMOOTH",
"479 530 OFFCURVE",
"478 535 OFFCURVE",
"438 560 CURVE SMOOTH",
"421 572 OFFCURVE",
"405 579 OFFCURVE",
"389 580 CURVE",
"371 585 OFFCURVE",
"335 588 OFFCURVE",
"282 588 CURVE SMOOTH",
"267 588 OFFCURVE",
"250 585 OFFCURVE",
"231 587 CURVE SMOOTH",
"167 594 LINE",
"151 603 OFFCURVE",
"143 614 OFFCURVE",
"143 635 CURVE SMOOTH",
"143 667 OFFCURVE",
"162 682 OFFCURVE",
"189 686 CURVE SMOOTH",
"208 688 OFFCURVE",
"234 690 OFFCURVE",
"269 691 CURVE SMOOTH",
"327 692 LINE SMOOTH",
"334 692 OFFCURVE",
"342 693 OFFCURVE",
"349 693 CURVE SMOOTH",
"394 693 OFFCURVE",
"445 686 OFFCURVE",
"472 673 CURVE SMOOTH",
"504 658 OFFCURVE",
"512 624 OFFCURVE",
"512 585 CURVE SMOOTH",
"512 579 OFFCURVE",
"512 574 OFFCURVE",
"512 572 CURVE",
"546 568 LINE",
"545 574 OFFCURVE",
"545 579 OFFCURVE",
"545 584 CURVE SMOOTH",
"545 589 OFFCURVE",
"545 593 OFFCURVE",
"546 598 CURVE",
"546 606 OFFCURVE",
"547 614 OFFCURVE",
"547 622 CURVE SMOOTH",
"547 671 OFFCURVE",
"502 705 OFFCURVE",
"468 716 CURVE SMOOTH",
"443 725 OFFCURVE",
"416 727 OFFCURVE",
"384 727 CURVE SMOOTH",
"375 727 OFFCURVE",
"363 728 OFFCURVE",
"350 728 CURVE SMOOTH",
"305 728 LINE",
"274 727 OFFCURVE",
"241 727 OFFCURVE",
"212 725 CURVE SMOOTH",
"184 722 OFFCURVE",
"160 719 OFFCURVE",
"150 713 CURVE SMOOTH",
"117 697 OFFCURVE",
"104 691 OFFCURVE",
"98 647 CURVE SMOOTH",
"97 640 OFFCURVE",
"96 634 OFFCURVE",
"96 627 CURVE SMOOTH",
"96 600 OFFCURVE",
"107 578 OFFCURVE",
"131 560 CURVE",
"147 553 OFFCURVE",
"168 549 OFFCURVE",
"193 549 CURVE SMOOTH",
"199 549 OFFCURVE",
"206 549 OFFCURVE",
"213 550 CURVE SMOOTH",
"217 550 OFFCURVE",
"220 550 OFFCURVE",
"224 550 CURVE SMOOTH",
"242 550 OFFCURVE",
"258 547 OFFCURVE",
"274 540 CURVE",
"286 528 OFFCURVE",
"298 517 OFFCURVE",
"298 498 CURVE SMOOTH",
"298 486 OFFCURVE",
"295 469 OFFCURVE",
"288 447 CURVE",
"275 455 OFFCURVE",
"264 460 OFFCURVE",
"253 465 CURVE SMOOTH",
"243 469 OFFCURVE",
"236 473 OFFCURVE",
"234 473 CURVE",
"232 475 OFFCURVE",
"228 475 OFFCURVE",
"220 475 CURVE",
"217 477 OFFCURVE",
"211 477 OFFCURVE",
"202 477 CURVE SMOOTH",
"133 477 OFFCURVE",
"99 437 OFFCURVE",
"99 356 CURVE",
"132 325 LINE",
"123 317 LINE SMOOTH",
"112 308 OFFCURVE",
"105 295 OFFCURVE",
"98 279 CURVE SMOOTH",
"86 249 OFFCURVE",
"79 217 OFFCURVE",
"79 183 CURVE SMOOTH"
);
},
{
closed = 1;
nodes = (
"125 165 CURVE SMOOTH",
"125 169 OFFCURVE",
"125 174 OFFCURVE",
"125 178 CURVE SMOOTH",
"126 221 LINE",
"138 259 LINE SMOOTH",
"144 281 OFFCURVE",
"169 313 OFFCURVE",
"186 317 CURVE",
"296 317 LINE",
"296 403 LINE",
"312 391 LINE SMOOTH",
"320 384 OFFCURVE",
"326 380 OFFCURVE",
"329 380 CURVE SMOOTH",
"352 374 LINE",
"377 373 LINE",
"396 373 LINE",
"434 377 OFFCURVE",
"474 400 OFFCURVE",
"484 433 CURVE",
"521 382 OFFCURVE",
"532 280 OFFCURVE",
"532 241 CURVE SMOOTH",
"532 239 OFFCURVE",
"532 238 OFFCURVE",
"532 236 CURVE SMOOTH",
"531 211 LINE",
"526 172 LINE",
"521 146 LINE",
"516 127 LINE SMOOTH",
"513 118 OFFCURVE",
"510 109 OFFCURVE",
"505 101 CURVE SMOOTH",
"504 98 OFFCURVE",
"502 91 OFFCURVE",
"496 84 CURVE SMOOTH",
"473 55 OFFCURVE",
"448 42 OFFCURVE",
"424 42 CURVE SMOOTH",
"383 42 OFFCURVE",
"356 54 OFFCURVE",
"350 82 CURVE SMOOTH",
"344 112 LINE",
"344 268 LINE",
"296 268 LINE",
"296 207 LINE",
"295 149 LINE",
"291 93 LINE",
"282 63 OFFCURVE",
"247 41 OFFCURVE",
"214 41 CURVE SMOOTH",
"157 41 OFFCURVE",
"125 103 OFFCURVE"
);
},
{
closed = 1;
nodes = (
"142 358 LINE",
"142 374 LINE",
"145 401 LINE",
"152 426 OFFCURVE",
"169 439 OFFCURVE",
"198 439 CURVE SMOOTH",
"230 439 OFFCURVE",
"257 423 OFFCURVE",
"257 374 CURVE SMOOTH",
"257 358 LINE"
);
},
{
closed = 1;
nodes = (
"319 447 CURVE SMOOTH",
"319 448 OFFCURVE",
"321 455 OFFCURVE",
"325 467 CURVE SMOOTH",
"329 479 OFFCURVE",
"331 490 OFFCURVE",
"331 499 CURVE SMOOTH",
"331 513 OFFCURVE",
"327 525 OFFCURVE",
"319 538 CURVE",
"344 534 OFFCURVE",
"367 531 OFFCURVE",
"387 527 CURVE",
"427 506 OFFCURVE",
"448 484 OFFCURVE",
"448 461 CURVE SMOOTH",
"448 452 OFFCURVE",
"444 442 OFFCURVE",
"438 432 CURVE",
"422 424 OFFCURVE",
"398 413 OFFCURVE",
"376 413 CURVE SMOOTH",
"349 413 OFFCURVE",
"331 425 OFFCURVE",
"320 443 CURVE SMOOTH",
"319 444 OFFCURVE",
"319 445 OFFCURVE"
);
}
);
width = 589;
}
);
},
{
glyphname = uni0DB30DCA200D0DA80DD3;
lastChange = "2017-09-18 08:47:20 +0000";
layers = (
{
layerId = "902E803C-EB75-4CF8-B2E0-AD6A3AB6F03E";
paths = (
{
closed = 1;
nodes = (
"13 295 CURVE SMOOTH",
"13 286 OFFCURVE",
"14 275 OFFCURVE",
"16 265 CURVE SMOOTH",
"18 250 OFFCURVE",
"46 207 OFFCURVE",
"59 202 CURVE",
"48 209 OFFCURVE",
"38 262 OFFCURVE",
"38 285 CURVE SMOOTH",
"38 288 OFFCURVE",
"38 291 OFFCURVE",
"39 292 CURVE",
"39 294 OFFCURVE",
"39 296 OFFCURVE",
"39 299 CURVE SMOOTH",
"39 314 OFFCURVE",
"53 330 OFFCURVE",
"62 341 CURVE SMOOTH",
"66 346 OFFCURVE",
"69 349 OFFCURVE",
"75 353 CURVE SMOOTH",
"80 356 OFFCURVE",
"87 361 OFFCURVE",
"99 367 CURVE",
"99 369 OFFCURVE",
"99 371 OFFCURVE",
"99 373 CURVE SMOOTH",
"99 388 OFFCURVE",
"107 407 OFFCURVE",
"107 421 CURVE SMOOTH",
"107 422 OFFCURVE",
"106 421 OFFCURVE",
"103 416 CURVE",
"101 415 OFFCURVE",
"98 413 CURVE SMOOTH",
"91 408 OFFCURVE",
"81 402 OFFCURVE",
"73 398 CURVE SMOOTH",
"69 396 OFFCURVE",
"67 395 OFFCURVE",
"67 394 CURVE SMOOTH",
"33 370 OFFCURVE",
"13 338 OFFCURVE"
);
},
{
closed = 1;
nodes = (
"79 168 LINE",
"83 135 LINE SMOOTH",
"86 104 OFFCURVE",
"102 68 OFFCURVE",
"113 54 CURVE",
"116 47 OFFCURVE",
"122 40 OFFCURVE",
"129 32 CURVE SMOOTH",
"151 11 OFFCURVE",
"181 0 OFFCURVE",
"217 0 CURVE SMOOTH",
"264 0 OFFCURVE",
"301 23 OFFCURVE",
"320 58 CURVE",
"325 44 OFFCURVE",
"329 35 OFFCURVE",
"333 32 CURVE SMOOTH",
"352 16 LINE SMOOTH",
"359 10 OFFCURVE",
"368 4 OFFCURVE",
"377 3 CURVE SMOOTH",
"410 0 LINE",
"445 4 LINE",
"483 18 LINE",
"499 25 OFFCURVE",
"514 39 OFFCURVE",
"528 59 CURVE SMOOTH",
"558 101 OFFCURVE",
"573 159 OFFCURVE",
"573 236 CURVE SMOOTH",
"573 296 OFFCURVE",
"563 350 OFFCURVE",
"545 396 CURVE SMOOTH",
"529 438 LINE",
"507 479 LINE SMOOTH",
"479 530 OFFCURVE",
"478 535 OFFCURVE",
"438 560 CURVE SMOOTH",
"421 572 OFFCURVE",
"405 579 OFFCURVE",
"389 580 CURVE",
"371 585 OFFCURVE",
"335 588 OFFCURVE",
"282 588 CURVE SMOOTH",
"267 588 OFFCURVE",
"250 585 OFFCURVE",
"231 587 CURVE SMOOTH",
"167 594 LINE",
"151 603 OFFCURVE",
"143 614 OFFCURVE",
"143 635 CURVE SMOOTH",
"143 667 OFFCURVE",
"162 682 OFFCURVE",
"189 686 CURVE SMOOTH",
"208 688 OFFCURVE",
"234 690 OFFCURVE",
"269 691 CURVE SMOOTH",
"327 692 LINE SMOOTH",
"347 693 OFFCURVE",
"366 693 OFFCURVE",
"384 693 CURVE SMOOTH",
"432 693 OFFCURVE",
"482 688 OFFCURVE",
"500 662 CURVE SMOOTH",
"506 654 OFFCURVE",
"510 643 OFFCURVE",
"510 632 CURVE SMOOTH",
"510 617 OFFCURVE",
"497 600 OFFCURVE",
"463 600 CURVE SMOOTH",
"434 600 OFFCURVE",
"418 626 OFFCURVE",
"418 657 CURVE SMOOTH",
"418 667 OFFCURVE",
"420 678 OFFCURVE",
"425 686 CURVE",
"388 685 LINE",
"386 645 LINE SMOOTH",
"384 617 OFFCURVE",
"399 597 OFFCURVE",
"417 584 CURVE SMOOTH",
"434 572 OFFCURVE",
"455 566 OFFCURVE",
"464 566 CURVE SMOOTH",
"501 566 OFFCURVE",
"533 584 OFFCURVE",
"542 604 CURVE SMOOTH",
"545 609 OFFCURVE",
"546 612 OFFCURVE",
"546 614 CURVE SMOOTH",
"547 618 OFFCURVE",
"547 622 OFFCURVE",
"547 625 CURVE SMOOTH",
"547 672 OFFCURVE",
"501 706 OFFCURVE",
"468 716 CURVE SMOOTH",
"443 725 OFFCURVE",
"416 727 OFFCURVE",
"384 727 CURVE SMOOTH",
"375 727 OFFCURVE",
"363 728 OFFCURVE",
"350 728 CURVE SMOOTH",
"305 728 LINE",
"274 727 OFFCURVE",
"241 727 OFFCURVE",
"212 725 CURVE SMOOTH",
"184 722 OFFCURVE",
"160 719 OFFCURVE",
"150 713 CURVE SMOOTH",
"117 697 OFFCURVE",
"104 691 OFFCURVE",
"98 647 CURVE SMOOTH",
"97 640 OFFCURVE",
"96 634 OFFCURVE",
"96 627 CURVE SMOOTH",
"96 600 OFFCURVE",
"107 578 OFFCURVE",
"131 560 CURVE",
"147 553 OFFCURVE",
"168 549 OFFCURVE",
"193 549 CURVE SMOOTH",
"199 549 OFFCURVE",
"206 549 OFFCURVE",
"213 550 CURVE SMOOTH",
"217 550 OFFCURVE",
"220 550 OFFCURVE",
"224 550 CURVE SMOOTH",
"242 550 OFFCURVE",
"258 547 OFFCURVE",
"274 540 CURVE",
"286 528 OFFCURVE",
"298 517 OFFCURVE",
"298 498 CURVE SMOOTH",
"298 486 OFFCURVE",
"295 469 OFFCURVE",
"288 447 CURVE",
"275 455 OFFCURVE",
"264 460 OFFCURVE",
"253 465 CURVE SMOOTH",
"243 469 OFFCURVE",
"236 473 OFFCURVE",
"234 473 CURVE",
"232 475 OFFCURVE",
"228 475 OFFCURVE",
"220 475 CURVE",
"217 477 OFFCURVE",
"211 477 OFFCURVE",
"202 477 CURVE SMOOTH",
"133 477 OFFCURVE",
"99 437 OFFCURVE",
"99 356 CURVE",
"126 329 LINE",
"116 318 LINE",
"109 308 OFFCURVE",
"106 295 OFFCURVE",
"100 281 CURVE SMOOTH",
"87 248 OFFCURVE",
"79 217 OFFCURVE",
"79 183 CURVE SMOOTH"
);
},
{
closed = 1;
nodes = (
"125 165 CURVE SMOOTH",
"125 169 OFFCURVE",
"125 174 OFFCURVE",
"125 178 CURVE SMOOTH",
"126 221 LINE",
"138 259 LINE SMOOTH",
"144 281 OFFCURVE",
"169 313 OFFCURVE",
"186 317 CURVE",
"296 317 LINE",
"296 403 LINE",
"312 391 LINE SMOOTH",
"320 384 OFFCURVE",
"326 380 OFFCURVE",
"329 380 CURVE SMOOTH",
"352 374 LINE",
"377 373 LINE",
"396 373 LINE",
"434 377 OFFCURVE",
"474 400 OFFCURVE",
"484 433 CURVE",
"521 382 OFFCURVE",
"532 280 OFFCURVE",
"532 241 CURVE SMOOTH",
"532 239 OFFCURVE",
"532 238 OFFCURVE",
"532 236 CURVE SMOOTH",
"531 211 LINE",
"526 172 LINE",
"521 146 LINE",
"516 127 LINE SMOOTH",
"513 118 OFFCURVE",
"510 109 OFFCURVE",
"505 101 CURVE SMOOTH",
"504 98 OFFCURVE",
"502 91 OFFCURVE",
"496 84 CURVE SMOOTH",
"473 55 OFFCURVE",
"448 42 OFFCURVE",
"424 42 CURVE SMOOTH",
"383 42 OFFCURVE",
"356 54 OFFCURVE",
"350 82 CURVE SMOOTH",
"344 112 LINE",
"344 268 LINE",
"296 268 LINE",
"296 207 LINE",
"295 149 LINE",
"291 93 LINE",
"282 63 OFFCURVE",
"247 41 OFFCURVE",
"214 41 CURVE SMOOTH",
"157 41 OFFCURVE",
"125 103 OFFCURVE"
);
},
{
closed = 1;
nodes = (
"142 358 LINE",
"142 374 LINE",
"145 401 LINE",
"152 426 OFFCURVE",
"169 439 OFFCURVE",
"198 439 CURVE SMOOTH",
"230 439 OFFCURVE",
"257 423 OFFCURVE",
"257 374 CURVE SMOOTH",
"257 358 LINE"
);
},
{
closed = 1;
nodes = (
"319 447 CURVE SMOOTH",
"319 448 OFFCURVE",
"321 455 OFFCURVE",
"325 467 CURVE SMOOTH",
"329 479 OFFCURVE",
"331 490 OFFCURVE",
"331 499 CURVE SMOOTH",
"331 513 OFFCURVE",
"327 525 OFFCURVE",
"319 538 CURVE",
"344 534 OFFCURVE",
"367 531 OFFCURVE",
"387 527 CURVE",
"427 506 OFFCURVE",
"448 484 OFFCURVE",
"448 461 CURVE SMOOTH",
"448 452 OFFCURVE",
"444 442 OFFCURVE",
"438 432 CURVE",
"422 424 OFFCURVE",
"398 413 OFFCURVE",
"376 413 CURVE SMOOTH",
"349 413 OFFCURVE",
"331 425 OFFCURVE",
"320 443 CURVE SMOOTH",
"319 444 OFFCURVE",
"319 445 OFFCURVE"
);
}
);
width = 582;
}
);
},
